<?xml version="1.0" encoding="utf-8"?>
<svg version="1.1" xmlns:xlink="http://www.w3.org/1999/xlink" width="47px" height="47px" xmlns="http://www.w3.org/2000/svg">
  <g transform="matrix(1 0 0 1 -469 -110 )">
    <path d="M 32.83705357142857 41.347935267857146  C 35.722098214285715 39.81798735119048  38.0913318452381 37.74162946428571  39.944754464285715 35.118861607142854  C 39.5600818452381 32.408668154761905  38.795107886904766 30.157459077380953  37.649832589285715 28.365234375  C 36.50455729166667 26.573009672619047  34.89155505952381 25.537016369047613  32.810825892857146 25.25725446428571  C 31.639322916666668 26.55115327380952  30.244884672619047 27.56091889880952  28.627511160714285 28.28655133928571  C 27.01013764880953 29.012183779761905  25.300967261904766 29.375  23.5 29.375  C 21.699032738095237 29.375  19.989862351190478 29.012183779761905  18.372488839285715 28.28655133928571  C 16.755115327380956 27.56091889880952  15.360677083333334 26.55115327380952  14.189174107142858 25.25725446428571  C 12.10844494047619 25.537016369047613  10.495442708333334 26.573009672619047  9.350167410714286 28.365234375  C 8.204892113095239 30.157459077380953  7.439918154761905 32.408668154761905  7.0552455357142865 35.118861607142854  C 8.908668154761905 37.74162946428571  11.277901785714286 39.81798735119048  14.162946428571427 41.347935267857146  C 17.047991071428573 42.87788318452381  20.160342261904766 43.642857142857146  23.5 43.642857142857146  C 26.83965773809524 43.642857142857146  29.952008928571427 42.87788318452381  32.83705357142857 41.347935267857146  Z M 30.620814732142854 23.906529017857146  C 32.587890625 21.939453125  33.57142857142857 19.565848214285715  33.57142857142857 16.785714285714285  C 33.57142857142857 14.005580357142856  32.587890625 11.631975446428573  30.620814732142854 9.664899553571427  C 28.653738839285715 7.697823660714284  26.280133928571427 6.714285714285716  23.5 6.714285714285716  C 20.719866071428573 6.714285714285716  18.346261160714285 7.697823660714284  16.379185267857142 9.664899553571427  C 14.412109375 11.631975446428573  13.428571428571427 14.005580357142856  13.428571428571427 16.785714285714285  C 13.428571428571427 19.565848214285715  14.412109375 21.939453125  16.379185267857142 23.906529017857146  C 18.346261160714285 25.87360491071429  20.719866071428573 26.857142857142854  23.5 26.857142857142854  C 26.280133928571427 26.857142857142854  28.653738839285715 25.87360491071429  30.620814732142854 23.906529017857146  Z M 45.13783482142857 14.372767857142856  C 46.37927827380953 17.275297619047613  47 20.317708333333332  47 23.5  C 47 26.682291666666664  46.37927827380953 29.72033110119047  45.13783482142857 32.61411830357143  C 43.89639136904763 35.50790550595238  42.23093377976191 38.008277529761905  40.14146205357143 40.115234375  C 38.051990327380956 42.22219122023809  35.555989583333336 43.89639136904762  32.65345982142857 45.13783482142857  C 29.750930059523814 46.379278273809526  26.699776785714285 47  23.5 47  C 20.317708333333336 47  17.27529761904762 46.379278273809526  14.372767857142858 45.13783482142857  C 11.470238095238097 43.89639136904762  8.969866071428571 42.2265625  6.8716517857142865 40.12834821428571  C 4.7734375 38.03013392857143  3.103608630952381 35.529761904761905  1.8621651785714284 32.627232142857146  C 0.620721726190476 29.72470238095238  0 26.682291666666664  0 23.5  C 0 20.317708333333332  0.620721726190476 17.275297619047613  1.8621651785714284 14.372767857142856  C 3.103608630952381 11.470238095238091  4.7734375 8.969866071428573  6.8716517857142865 6.871651785714284  C 8.969866071428571 4.7734375  11.470238095238097 3.1036086309523796  14.372767857142858 1.862165178571428  C 17.27529761904762 0.6207217261904759  20.317708333333336 0  23.5 0  C 26.682291666666668 0  29.724702380952387 0.6207217261904759  32.627232142857146 1.862165178571428  C 35.52976190476191 3.1036086309523796  38.03013392857143 4.7734375  40.128348214285715 6.871651785714284  C 42.22656250000001 8.969866071428573  43.89639136904763 11.470238095238091  45.13783482142857 14.372767857142856  Z " fill-rule="nonzero" fill="#ffffff" stroke="none" transform="matrix(1 0 0 1 469 110 )" />
  </g>
</svg>