<?xml version="1.0" encoding="utf-8"?>
<svg version="1.1" xmlns:xlink="http://www.w3.org/1999/xlink" width="40px" height="34px" xmlns="http://www.w3.org/2000/svg">
  <g transform="matrix(1 0 0 1 -336 -28 )">
    <path d="M 39.505208333333336 27.7046875  C 39.83506944444444 28.041145833333335  40 28.439583333333335  40 28.9  L 40 32.3  C 40 32.760416666666664  39.83506944444444 33.158854166666664  39.505208333333336 33.4953125  C 39.17534722222223 33.83177083333334  38.78472222222223 34  38.333333333333336 34  L 1.6666666666666665 34  C 1.215277777777778 34  0.8246527777777778 33.83177083333334  0.49479166666666663 33.4953125  C 0.16493055555555555 33.158854166666664  0 32.760416666666664  0 32.3  L 0 28.9  C 0 28.439583333333335  0.16493055555555555 28.041145833333335  0.49479166666666663 27.7046875  C 0.8246527777777778 27.368229166666666  1.215277777777778 27.200000000000003  1.6666666666666665 27  L 38.333333333333336 27  C 38.78472222222223 27.200000000000003  39.17534722222223 27.368229166666666  39.505208333333336 27.7046875  Z M 39.505208333333336 14.104687499999999  C 39.83506944444444 14.441145833333332  40 14.839583333333332  40 15.299999999999999  L 40 18.700000000000003  C 40 19.160416666666663  39.83506944444444 19.558854166666663  39.505208333333336 19.895312500000003  C 39.17534722222223 20.231770833333332  38.78472222222223 20.4  38.333333333333336 20  L 1.6666666666666665 20  C 1.215277777777778 20.4  0.8246527777777778 20.231770833333332  0.49479166666666663 19.895312500000003  C 0.16493055555555555 19.558854166666663  0 19.160416666666663  0 18.700000000000003  L 0 15.299999999999999  C 0 14.839583333333332  0.16493055555555555 14.441145833333332  0.49479166666666663 14.104687499999999  C 0.8246527777777778 13.76822916666667  1.215277777777778 13.600000000000001  1.6666666666666665 14  L 38.333333333333336 14  C 38.78472222222223 13.600000000000001  39.17534722222223 13.76822916666667  39.505208333333336 14.104687499999999  Z M 39.505208333333336 0.5046875000000015  C 39.83506944444444 0.8411458333333308  40 1.2395833333333308  40 1.7000000000000015  L 40 5.1000000000000005  C 40 5.560416666666664  39.83506944444444 5.958854166666664  39.505208333333336 6.2953125000000005  C 39.17534722222223 6.63177083333333  38.78472222222223 6.799999999999999  38.333333333333336 7  L 1.6666666666666665 7  C 1.215277777777778 6.799999999999999  0.8246527777777778 6.63177083333333  0.49479166666666663 6.2953125000000005  C 0.16493055555555555 5.958854166666664  0 5.560416666666664  0 5.1000000000000005  L 0 1.7000000000000015  C 0 1.2395833333333308  0.16493055555555555 0.8411458333333308  0.49479166666666663 0.5046875000000015  C 0.8246527777777778 0.16822916666666465  1.215277777777778 0  1.6666666666666665 0  L 38.333333333333336 0  C 38.78472222222223 0  39.17534722222223 0.16822916666666465  39.505208333333336 0.5046875000000015  Z " fill-rule="nonzero" fill="#fff5f5" stroke="none" transform="matrix(1 0 0 1 336 28 )" />
  </g>
</svg>