<?xml version="1.0" encoding="utf-8"?>
<svg version="1.1" xmlns:xlink="http://www.w3.org/1999/xlink" width="197px" height="162px" xmlns="http://www.w3.org/2000/svg">
  <g transform="matrix(1 0 0 1 -156 -82 )">
    <path d="M 135.66550925925927 142.9005681818182  C 132.77739197530863 139.98579545454547  131.33333333333334 136.53409090909093  131.33333333333334 132.54545454545453  C 131.33333333333334 128.55681818181816  132.77739197530863 125.10511363636363  135.66550925925927 122.1903409090909  C 138.55362654320987 119.27556818181819  141.97376543209876 117.81818181818183  145.92592592592592 117.81818181818183  C 149.87808641975306 117.81818181818183  153.29822530864197 119.27556818181819  156.18634259259258 122.1903409090909  C 159.07445987654322 125.10511363636363  160.51851851851853 128.55681818181816  160.51851851851853 132.54545454545453  C 160.51851851851853 136.53409090909093  159.07445987654322 139.98579545454547  156.18634259259258 142.9005681818182  C 153.29822530864197 145.8153409090909  149.87808641975306 147.27272727272728  145.92592592592592 147.27272727272728  C 141.97376543209876 147.27272727272728  138.55362654320987 145.8153409090909  135.66550925925927 142.9005681818182  Z M 175.11111111111111 70.1846590909091  L 175.11111111111111 74  L 131 74  L 131 45  L 149.3460648148148 45  C 150.3341049382716 44.18181818181818  151.17013888888889 44.52698863636364  151.85416666666669 45.217329545454554  L 174.08506944444446 67.6534090909091  C 174.76909722222223 68.34375  175.11111111111111 69.18749999999999  175.11111111111111 70.1846590909091  Z M 33.5173611111111 142.9005681818182  C 30.629243827160504 139.98579545454547  29.185185185185183 136.53409090909093  29.185185185185183 132.54545454545453  C 29.185185185185183 128.55681818181816  30.629243827160504 125.10511363636363  33.5173611111111 122.1903409090909  C 36.40547839506172 119.27556818181819  39.82561728395062 117.81818181818183  43.77777777777778 117.81818181818183  C 47.72993827160493 117.81818181818183  51.15007716049381 119.27556818181819  54.03819444444445 122.1903409090909  C 56.92631172839505 125.10511363636363  58.37037037037037 128.55681818181816  58.37037037037037 132.54545454545453  C 58.37037037037037 136.53409090909093  56.92631172839505 139.98579545454547  54.03819444444445 142.9005681818182  C 51.15007716049381 145.8153409090909  47.72993827160493 147.27272727272728  43.77777777777778 147.27272727272728  C 39.82561728395062 147.27272727272728  36.40547839506172 145.8153409090909  33.5173611111111 142.9005681818182  Z M 2.166087962962959 2.186079545454554  C 0.7220293209876384 3.643465909090887  0 5.369318181818173  0 7.363636363636357  L 0 125.18181818181817  C 0 126.33238636363636  0.1520061728394959 127.34872159090908  0.4560185185185096 128.23082386363635  C 0.7600308641975233 129.11292613636365  1.2730516975308492 129.82244318181816  1.9950810185185097 130.359375  C 2.7171103395061698 130.89630681818184  3.344135802469129 131.33735795454547  3.8761574074074083 131.6825284090909  C 4.4081790123456654 132.02769886363635  5.301215277777775 132.2578125  6.5552662037036935 132.3728693181818  C 7.809317129629633 132.48792613636365  8.664351851851858 132.5646306818182  9.120370370370367 132.60298295454547  C 9.576388888888898 132.64133522727272  10.545428240740733 132.64133522727272  12.027488425925918 132.60298295454547  C 13.509548611111102 132.5646306818182  14.364583333333327 132.54545454545453  14.592592592592592 132.54545454545453  C 14.592592592592592 140.67613636363637  17.442708333333325 147.61789772727272  23.142939814814817 153.37073863636365  C 28.84317129629631 159.12357954545456  35.72145061728394 162  43.77777777777778 162  C 51.83410493827159 162  58.71238425925927 159.12357954545456  64.41261574074073 153.37073863636365  C 70.11284722222223 147.61789772727272  72.96296296296296 140.67613636363637  72.96296296296296 132  L 116.74074074074073 132  C 116.74074074074073 140.67613636363637  119.59085648148147 147.61789772727272  125.29108796296296 153.37073863636365  C 130.99131944444446 159.12357954545456  137.8695987654321 162  145.92592592592592 162  C 153.98225308641975 162  160.86053240740742 159.12357954545456  166.56076388888889 153.37073863636365  C 172.26099537037038 147.61789772727272  175.11111111111111 140.67613636363637  175.11111111111111 132.54545454545453  L 182.40740740740742 132.54545454545453  C 182.63541666666669 132.54545454545453  183.49045138888889 132.5646306818182  184.97251157407408 132.60298295454547  C 186.45457175925927 132.64133522727272  187.42361111111111 132.64133522727272  187.87962962962962 132.60298295454547  C 188.33564814814815 132.5646306818182  189.19068287037038 132.48792613636365  190.44473379629628 132.3728693181818  C 191.69878472222223 132.2578125  192.5918209876543 132.02769886363635  193.12384259259258 131.6825284090909  C 193.65586419753086 131.33735795454547  194.28288966049382 130.89630681818184  195.0049189814815 130.359375  C 195.72694830246914 129.82244318181816  196.23996913580248 129.11292613636365  196.5439814814815 128.23082386363635  C 196.84799382716048 127.34872159090908  197 126.33238636363636  197 125.18181818181817  C 197 123.18750000000001  196.27797067901233 121.46164772727272  194.83391203703704 120.00426136363636  C 193.38985339506172 118.54687499999999  191.67978395061726 117.81818181818183  189 117.81818181818183  L 189 81  C 189.70370370370372 80.38636363636364  189.72270447530866 79.0440340909091  189.7607060185185 76.97301136363636  C 189.7987075617284 74.90198863636364  189.7987075617284 73.44460227272725  189.7607060185185 72.60085227272727  C 189.72270447530866 71.75710227272727  189.62770061728395 70.43394886363635  189.47569444444446 68.63139204545455  C 189.32368827160494 66.82883522727272  189.07667824074073 65.40980113636364  188.73466435185185 64.37428977272727  C 188.39265046296296 63.338778409090914  187.86062885802468 62.16903409090908  187.13859953703704 60.86505681818182  C 186.4165702160494 59.56107954545455  185.56153549382717 58.41051136363637  184.57349537037038 57.413352272727266  L 162.00057870370372 34.632102272727266  C 160.5565200617284 33.1747159090909  158.63744212962962 31.947443181818173  156.24334490740742 30.95028409090909  C 153.8492476851852 29.95312499999999  151.62615740740742 29.454545454545446  149.57407407407408 30  L 131 30  L 131 7.363636363636357  C 131.33333333333334 5.369318181818173  130.6113040123457 3.643465909090887  129.16724537037038 2.186079545454554  C 127.72318672839505 0.7286931818181666  126.01311728395059 0  124.03703703703704 0  L 7.2962962962963065 0  C 5.320216049382707 0  3.6101466049382576 0.7286931818181666  2.166087962962959 2.186079545454554  Z " fill-rule="nonzero" fill="#555555" stroke="none" transform="matrix(1 0 0 1 156 82 )" />
  </g>
</svg>