<?xml version="1.0" encoding="utf-8"?>
<svg version="1.1" xmlns:xlink="http://www.w3.org/1999/xlink" width="47px" height="39px" xmlns="http://www.w3.org/2000/svg">
  <g transform="matrix(1 0 0 1 -4 -783 )">
    <path d="M 32.36689814814815 34.40198863636363  C 31.6778549382716 33.70028409090909  31.333333333333336 32.86931818181819  31.333333333333336 31.909090909090907  C 31.333333333333336 30.948863636363633  31.6778549382716 30.117897727272727  32.36689814814815 29.416193181818183  C 33.05594135802469 28.71448863636364  33.87191358024691 28.363636363636363  34.81481481481481 28.363636363636363  C 35.757716049382715 28.363636363636363  36.57368827160494 28.71448863636364  37.26273148148148 29.416193181818183  C 37.951774691358025 30.117897727272727  38.2962962962963 30.948863636363633  38.2962962962963 31.909090909090907  C 38.2962962962963 32.86931818181819  37.951774691358025 33.70028409090909  37.26273148148148 34.40198863636363  C 36.57368827160494 35.10369318181818  35.757716049382715 35.45454545454545  34.81481481481481 35.45454545454545  C 33.87191358024691 35.45454545454545  33.05594135802469 35.10369318181818  32.36689814814815 34.40198863636363  Z M 41.77777777777778 16.896306818181817  L 41.77777777777778 18  L 31.333333333333336 18  L 31.333333333333336 10.636363636363635  L 35.63078703703704 10.636363636363635  C 35.86651234567901 10.636363636363635  36.06597222222222 10.719460227272728  36.22916666666667 10.885653409090912  L 41.532986111111114 16.286931818181817  C 41.69618055555556 16.453125  41.77777777777778 16.656249999999996  41.77777777777778 16.896306818181817  Z M 7.996527777777775 34.40198863636363  C 7.307484567901237 33.70028409090909  6.962962962962963 32.86931818181819  6.962962962962963 31.909090909090907  C 6.962962962962963 30.948863636363633  7.307484567901237 30.117897727272727  7.996527777777775 29.416193181818183  C 8.68557098765432 28.71448863636364  9.501543209876544 28.363636363636363  10.444444444444445 28.363636363636363  C 11.387345679012345 28.363636363636363  12.203317901234563 28.71448863636364  12.892361111111112 29.416193181818183  C 13.581404320987652 30.117897727272727  13.925925925925926 30.948863636363633  13.925925925925926 31.909090909090907  C 13.925925925925926 32.86931818181819  13.581404320987652 33.70028409090909  12.892361111111112 34.40198863636363  C 12.203317901234563 35.10369318181818  11.387345679012345 35.45454545454545  10.444444444444445 35.45454545454545  C 9.501543209876544 35.45454545454545  8.68557098765432 35.10369318181818  7.996527777777775 34.40198863636363  Z M 0.5167824074074064 0.5262784090909111  C 0.172260802469132 0.8771306818181764  0 1.292613636363634  0 1.7727272727272712  L 0 30.136363636363637  C 0 30.41335227272727  0.036265432098762984 30.658025568181817  0.10879629629629417 30.87038352272727  C 0.18132716049382536 31.08274147727273  0.30372299382715695 31.253551136363633  0.47598379629629417 31.3828125  C 0.6482445987654314 31.512073863636367  0.7978395061728378 31.618252840909093  0.9247685185185187 31.701349431818183  C 1.0516975308641943 31.78444602272727  1.2647569444444438 31.83984375  1.5639467592592569 31.867542613636363  C 1.8631365740740748 31.89524147727273  2.067129629629631 31.91370738636364  2.175925925925925 31.922940340909093  C 2.2847222222222245 31.932173295454543  2.5159143518518503 31.932173295454543  2.869502314814813 31.922940340909093  C 3.2230902777777755 31.91370738636364  3.4270833333333317 31.909090909090907  3.4814814814814814 31.909090909090907  C 3.4814814814814814 33.86647727272727  4.161458333333331 35.53764204545455  5.521412037037037 36.92258522727273  C 6.881365740740743 38.307528409090914  8.522376543209875 39  10.444444444444445 39  C 12.366512345679007 39  14.007523148148149 38.307528409090914  15.367476851851851 36.92258522727273  C 16.727430555555557 35.53764204545455  17.407407407407405 33.86647727272727  17.407407407407405 32  L 27.85185185185185 32  C 27.85185185185185 33.86647727272727  28.531828703703702 35.53764204545455  29.891782407407405 36.92258522727273  C 31.25173611111111 38.307528409090914  32.89274691358025 39  34.81481481481481 39  C 36.73688271604938 39  38.37789351851852 38.307528409090914  39.73784722222222 36.92258522727273  C 41.097800925925924 35.53764204545455  41.77777777777778 33.86647727272727  41.77777777777778 31.909090909090907  L 43.51851851851852 31.909090909090907  C 43.57291666666667 31.909090909090907  43.77690972222222 31.91370738636364  44.13049768518519 31.922940340909093  C 44.48408564814815 31.932173295454543  44.71527777777778 31.932173295454543  44.824074074074076 31.922940340909093  C 44.93287037037037 31.91370738636364  45.136863425925924 31.89524147727273  45.43605324074074 31.867542613636363  C 45.73524305555556 31.83984375  45.9483024691358 31.78444602272727  46.07523148148148 31.701349431818183  C 46.202160493827165 31.618252840909093  46.35175540123457 31.512073863636367  46.5240162037037 31.3828125  C 46.696277006172835 31.253551136363633  46.81867283950618 31.08274147727273  46.8912037037037 30.87038352272727  C 46.963734567901234 30.658025568181817  47 30.41335227272727  47 30.136363636363637  C 47 29.656250000000004  46.82773919753086 29.240767045454547  46.483217592592595 28.88991477272727  C 46.138695987654316 28.539062499999996  45.73070987654321 28.363636363636363  45.25925925925926 28.363636363636363  L 45.25925925925926 19.5  C 45.25925925925926 19.352272727272727  45.26379243827161 19.029119318181817  45.2728587962963 18.53053977272727  C 45.28192515432099 18.03196022727273  45.28192515432099 17.68110795454545  45.2728587962963 17.477982954545453  C 45.26379243827161 17.274857954545453  45.24112654320987 16.95632102272727  45.204861111111114 16.52237215909091  C 45.16859567901234 16.088423295454543  45.10966435185185 15.746803977272728  45.02806712962963 15.497514204545453  C 44.946469907407405 15.248224431818182  44.81954089506173 14.966619318181815  44.647280092592595 14.652698863636365  C 44.475019290123456 14.33877840909091  44.2710262345679 14.061789772727273  44.035300925925924 13.821732954545453  L 38.64988425925926 8.337357954545453  C 38.30536265432099 7.986505681818179  37.847511574074076 7.691051136363634  37.27633101851852 7.4509943181818175  C 36.70515046296296 7.210937499999997  36.17476851851852 7.090909090909089  35.68518518518519 7.090909090909089  L 31.333333333333336 7.090909090909089  L 31.333333333333336 1.7727272727272712  C 31.333333333333336 1.292613636363634  31.1610725308642 0.8771306818181764  30.816550925925924 0.5262784090909111  C 30.47202932098765 0.1754261363636327  30.064043209876537 0  29.592592592592595 0  L 1.7407407407407431 0  C 1.269290123456788 0  0.8613040123456757 0.1754261363636327  0.5167824074074064 0.5262784090909111  Z " fill-rule="nonzero" fill="#ffffff" stroke="none" transform="matrix(1 0 0 1 4 783 )" />
  </g>
</svg>