<?xml version="1.0" encoding="utf-8"?>
<svg version="1.1" xmlns:xlink="http://www.w3.org/1999/xlink" width="45px" height="35px" xmlns="http://www.w3.org/2000/svg">
  <g transform="matrix(1 0 0 1 -170 -785 )">
    <path d="M 24.86049107142857 4.471256210078069  C 22.63392857142857 3.610125384433402  20.239955357142858 3.1795599716110723  17.678571428571427 3.1795599716110723  C 15.1171875 3.1795599716110723  12.723214285714285 3.610125384433402  10.496651785714286 4.471256210078069  C 8.270089285714286 5.332387035722732  6.499720982142858 6.49988171279867  5.185546875 7.973740241305889  C 3.8713727678571432 9.447598769813105  3.214285714285714 11.029098651525903  3.214285714285714 12.718239886444286  C 3.214285714285714 14.07617695765318  3.657924107142858 15.384433404305652  4.545200892857143 16.643009226401706  C 5.432477678571429 17.901585048497754  6.6796875 18.994558788739056  8.286830357142858 19.92193044712562  L 10.72265625 21.312987934705465  L 9.84375 23.39957416607523  C 10.41294642857143 23.06837000236574  10.931919642857144 22.745445942748994  11.400669642857144 22.43080198722498  L 12.505580357142856 21.660752306600425  L 13.836495535714285 21.90915542938254  C 15.142299107142856 22.140998343979184  16.422991071428573 22.2569198012775  17.678571428571427 22.2569198012775  C 20.239955357142858 22.2569198012775  22.63392857142857 21.826354388455172  24.86049107142857 20.965223562810504  C 27.087053571428573 20.10409273716584  28.857421875000004 18.936598060089896  30.171595982142858 17.46273953158268  C 31.48577008928572 15.988881003075464  32.142857142857146 14.407381121362668  32.142857142857146 12.718239886444286  C 32.142857142857146 11.029098651525903  31.48577008928572 9.447598769813105  30.171595982142858 7.973740241305889  C 28.857421875000004 6.49988171279867  27.087053571428573 5.332387035722732  24.86049107142857 4.471256210078069  Z M 8.801618303571429 1.701561391057489  C 11.522042410714286 0.567187130352495  14.481026785714288 0  17.678571428571427 0  C 20.876116071428573 0  23.835100446428573 0.567187130352495  26.55552455357143 1.701561391057489  C 29.27594866071429 2.835935651762475  31.422991071428577 4.380175065057958  32.996651785714285 6.334279630943932  C 34.5703125 8.288384196829899  35.357142857142854 10.416370948663353  35.357142857142854 12.718239886444286  C 35.357142857142854 15.020108824225217  34.5703125 17.14809557605867  32.996651785714285 19.102200141944643  C 31.422991071428577 21.05630470783061  29.27594866071429 22.60054412112609  26.55552455357143 23.734918381831086  C 23.835100446428573 24.86929264253607  20.876116071428573 25.436479772888575  17.678571428571427 25.436479772888575  C 16.23883928571429 25.436479772888575  14.765625 25.303998107404773  13.258928571428571 25.03903477643719  C 11.183035714285715 26.49633309675893  8.856026785714286 27.556186420629288  6.277901785714286 28.21859474804826  C 5.675223214285714 28.367636621717534  4.955357142857143 28.50011828720132  4.118303571428571 28.61603974449964  L 4.04296875 28.61603974449964  C 3.858816964285715 28.61603974449964  3.6872209821428577 28.549798911757748  3.528180803571429 28.417317246273953  C 3.369140625 28.28483558079016  3.2728794642857144 28.110953394842678  3.239397321428571 27.89567068843151  C 3.2226562500000004 27.84599006387509  3.214285714285714 27.792169387272295  3.214285714285714 27.73420865862314  C 3.214285714285714 27.67624792997398  3.218470982142858 27.622427253371185  3.226841517857143 27.57274662881476  C 3.235212053571429 27.52306600425834  3.251953125 27.473385379701917  3.277064732142857 27.423704755145494  L 3.33984375 27.299503193754436  C 3.33984375 27.299503193754436  3.369140625 27.253962621244384  3.427734375 27.16288147622427  C 3.4863281250000004 27.07180033120416  3.5198102678571432 27.030399810740484  3.528180803571429 27.038679914833217  C 3.5365513392857144 27.04696001892595  3.5742187500000004 27.00555949846227  3.641183035714286 26.914478353442156  C 3.708147321428572 26.823397208422048  3.741629464285714 26.786136740004732  3.741629464285714 26.802696948190206  C 3.8253348214285716 26.703335699077357  4.017857142857143 26.496333096758928  4.319196428571429 26.181689141234916  C 4.620535714285714 25.867045185710904  4.838169642857143 25.622782114975163  4.972098214285714 25.448899929027682  C 5.106026785714286 25.275017743080202  5.294363839285714 25.034894724390817  5.537109375 24.728530872959546  C 5.7798549107142865 24.422167021528267  5.989118303571428 24.103383013957888  6.164899553571428 23.772178850248405  C 6.340680803571428 23.440974686538915  6.5122767857142865 23.076650106458484  6.6796875 22.679205110007096  C 4.603794642857142 21.486870120652945  2.971540178571429 20.021291696238464  1.782924107142857 18.28246983676366  C 0.5943080357142856 16.543647977288856  0 14.68890466051573  0 12.718239886444286  C 0 10.416370948663353  0.7868303571428572 8.288384196829899  2.3604910714285716 6.334279630943932  C 3.934151785714286 4.380175065057958  6.081194196428571 2.835935651762475  8.801618303571429 1.701561391057489  Z M 43.217075892857146 24.654009936124908  C 42.02845982142858 26.38455169150698  40.39620535714286 27.84599006387509  38.3203125 29.03832505322924  C 38.48772321428571 29.435770049680624  38.65931919642857 29.800094629761062  38.83510044642857 30.131298793470545  C 39.01088169642858 30.462502957180032  39.22014508928572 30.781286964750418  39.462890625 31.087650816181693  C 39.705636160714285 31.39401466761296  39.893973214285715 31.634137686302342  40.027901785714285 31.808019872249822  C 40.16183035714286 31.981902058197303  40.37946428571429 32.22616512893305  40.68080357142857 32.54080908445706  C 40.98214285714286 32.85545303998107  41.17466517857143 33.062455642299504  41.258370535714285 33.16181689141235  C 41.27511160714286 33.178377099597824  41.30859375000001 33.21563756801514  41.358816964285715 33.273598296664304  C 41.40904017857144 33.33155902531346  41.446707589285715 33.37295954577715  41.47181919642857 33.39779985805536  C 41.49693080357144 33.42264017033357  41.53041294642858 33.464040690797255  41.572265625 33.52200141944642  C 41.61411830357143 33.579962148095575  41.64341517857143 33.62550272060563  41.66015625 33.65862313697658  L 41.722935267857146 33.782824698367634  C 41.722935267857146 33.782824698367634  41.739676339285715 33.83250532292406  41.773158482142854 33.9318665720369  C 41.806640625 34.03122782114975  41.810825892857146 34.085048497752545  41.785714285714285 34.09332860184528  C 41.76060267857143 34.10160870593801  41.752232142857146 34.15542938254081  41.76060267857143 34.254790631653655  C 41.710379464285715 34.486633546250296  41.6015625 34.66879583629051  41.434151785714285 34.80127750177431  C 41.26674107142858 34.9337591672581  41.082589285714285 34.991719895907266  40.88169642857143 34.975159687721785  C 40.04464285714286 34.859238230423465  39.32477678571429 34.72675656493967  38.722098214285715 34.57771469127041  C 36.14397321428572 33.91530636385143  33.816964285714285 32.85545303998107  31.74107142857143 31.398154719659335  C 30.234375 31.663118050626924  28.76116071428572 31.795599716110715  27.32142857142857 31.795599716110715  C 22.784598214285715 31.795599716110715  18.833705357142858 30.702625975869413  15.46875 28.5166784953868  C 16.439732142857146 28.5829193281287  17.176339285714285 28.61603974449964  17.678571428571427 28.61603974449964  C 20.37388392857143 28.61603974449964  22.960379464285715 28.243435060326473  25.43805803571429 27.498225691980128  C 27.91573660714286 26.753016323633783  30.125558035714285 25.68488289567069  32.06752232142857 24.293825408090846  C 34.16015625 22.770286255027205  35.76729910714286 21.014904187366927  36.888950892857146 19.027679205110008  C 38.01060267857142 17.040454222853086  38.57142857142857 14.937307783297843  38.57142857142857 12.718239886444286  C 38.57142857142857 11.443103856162763  38.37890625 10.184528034066712  37.993861607142854 8.942512420156138  C 40.15345982142857 10.118287201324815  41.861049107142854 11.59214572983203  43.116629464285715 13.364088005677786  C 44.37220982142857 15.136030281523537  45 17.040454222853086  45 19.07735982966643  C 45 21.064584811923346  44.40569196428572 22.92346818074284  43.217075892857146 24.654009936124908  Z " fill-rule="nonzero" fill="#ffffff" stroke="none" transform="matrix(1 0 0 1 170 785 )" />
  </g>
</svg>