<?xml version="1.0" encoding="utf-8"?>
<svg version="1.1" xmlns:xlink="http://www.w3.org/1999/xlink" width="42px" height="42px" xmlns="http://www.w3.org/2000/svg">
  <g transform="matrix(1 0 0 1 -290 -782 )">
    <path d="M 10.458984375 2.8164062499999982  C 13.676432291666668 0.9388020833333297  17.190104166666668 0  21 0  C 24.809895833333336 0  28.323567708333336 0.9388020833333297  31.541015625 2.8164062499999982  C 34.758463541666664 4.6940104166666625  37.305989583333336 7.241536458333333  39.18359375 10.458984375  C 41.061197916666664 13.676432291666663  42 17.19010416666666  42 21  C 42 24.809895833333336  41.061197916666664 28.32356770833333  39.18359375 31.541015625  C 37.305989583333336 34.758463541666664  34.758463541666664 37.305989583333336  31.541015625 39.18359375  C 28.323567708333336 41.06119791666667  24.809895833333336 42  21 42  C 17.190104166666668 42  13.676432291666668 41.06119791666667  10.458984375 39.18359375  C 7.241536458333334 37.305989583333336  4.694010416666667 34.758463541666664  2.81640625 31.541015625  C 0.9388020833333333 28.32356770833333  0 24.809895833333336  0 21  C 0 17.19010416666666  0.9388020833333333 13.676432291666663  2.81640625 10.458984375  C 4.694010416666667 7.241536458333333  7.241536458333334 4.6940104166666625  10.458984375 2.8164062499999982  Z M 24.25390625 34.740234375  C 24.41796875 34.56705729166667  24.5 34.352864583333336  24.5 34.09765625  L 24.5 28.902343750000004  C 24.5 28.647135416666664  24.41796875 28.432942708333332  24.25390625 28.259765625  C 24.08984375 28.086588541666668  23.889322916666668 28.000000000000004  23.65234375 28.000000000000004  L 18.40234375 28.000000000000004  C 18.165364583333336 28.000000000000004  17.955729166666668 28.091145833333336  17.7734375 28.273437499999996  C 17.591145833333336 28.45572916666666  17.5 28.665364583333336  17.5 28.902343750000004  L 17.5 34.09765625  C 17.5 34.33463541666667  17.591145833333336 34.54427083333333  17.7734375 34.7265625  C 17.955729166666668 34.90885416666667  18.165364583333336 35  18.40234375 35  L 23.65234375 35  C 23.889322916666668 35  24.08984375 34.91341145833333  24.25390625 34.740234375  Z M 24.158203125 25.169921875000004  C 24.331380208333336 25.033203124999996  24.427083333333332 24.873697916666664  24.4453125 24.69140625  L 24.9375 7.7109375  C 24.937500000000004 7.492187499999998  24.846354166666668 7.328124999999998  24.6640625 7.21875  C 24.481770833333336 7.0729166666666625  24.263020833333332 6.999999999999998  24.0078125 6.999999999999998  L 17.9921875 6.999999999999998  C 17.736979166666668 6.999999999999998  17.518229166666668 7.0729166666666625  17.3359375 7.21875  C 17.153645833333332 7.328124999999998  17.0625 7.492187499999998  17.0625 7.7109375  L 17.52734375 24.69140625  C 17.52734375 24.873697916666664  17.618489583333336 25.033203124999996  17.80078125 25.169921875000004  C 17.983072916666668 25.306640625  18.201822916666668 25.375000000000004  18.45703125 25.375000000000004  L 23.515625 25.375000000000004  C 23.770833333333332 25.375000000000004  23.985026041666668 25.306640625  24.158203125 25.169921875000004  Z " fill-rule="nonzero" fill="#ffffff" stroke="none" transform="matrix(1 0 0 1 290 782 )" />
  </g>
</svg>