<?xml version="1.0" encoding="utf-8"?>
<svg version="1.1" xmlns:xlink="http://www.w3.org/1999/xlink" width="42px" height="40px" xmlns="http://www.w3.org/2000/svg">
  <g transform="matrix(1 0 0 1 -62 -783 )">
    <path d="M 40.58653846153846 14.34152488972905  C 41.52884615384615 14.492753623188408  42 14.879227053140095  42 15.500945179584122  C 42 15.870615416929216  41.78125 16.2738920394875  41.34375 16.710775047258977  L 32.18149038461539 25.63327032136106  L 34.35216346153846 38.235664776307495  C 34.36899038461539 38.35328712455367  34.37740384615385 38.52131905061961  34.37740384615385 38.73976055450535  C 34.37740384615385 39.092627599243855  34.2890625 39.39088426801092  34.11237980769231 39.63453056080655  C 33.93569711538461 39.878176853602184  33.67908653846154 40  33.34254807692307 40  C 33.02283653846154 40  32.68629807692307 39.89918084436043  32.33293269230769 39.69754253308129  L 21 33.74921235034657  L 9.667067307692307 39.69754253308129  C 9.296875 39.89918084436043  8.960336538461538 40  8.657451923076923 40  C 8.304086538461538 40  8.0390625 39.878176853602184  7.8623798076923075 39.63453056080655  C 7.685697115384616 39.39088426801092  7.597355769230769 39.092627599243855  7.597355769230769 38.73976055450535  C 7.597355769230769 38.63894139886578  7.614182692307693 38.47090947279983  7.647836538461538 38.235664776307495  L 9.818509615384615 25.63327032136106  L 0.6310096153846154 16.710775047258977  C 0.21033653846153844 16.257088846880908  0 15.853812224322624  0 15.500945179584122  C 0 14.879227053140095  0.4711538461538461 14.492753623188408  1.4134615384615383 14.34152488972905  L 14.084134615384615 12.501575299306866  L 19.763221153846153 1.033396345305606  C 20.082932692307693 0.34446544843520055  20.495192307692307 0  21 0  C 21.50480769230769 0  21.917067307692307 0.34446544843520055  22.236778846153847 1.033396345305606  L 27.915865384615387 12.501575299306866  L 40.58653846153846 14.34152488972905  Z " fill-rule="nonzero" fill="#ffffff" stroke="none" transform="matrix(1 0 0 1 62 783 )" />
  </g>
</svg>