<?xml version="1.0" encoding="UTF-8"?><svg id="Camada_1" xmlns="http://www.w3.org/2000/svg" viewBox="0 0 1366 768"><defs><style>.cls-1{letter-spacing:-.05em;}.cls-2,.cls-3{fill:#fff;}.cls-4{letter-spacing:-.03em;}.cls-5{fill:#fafafa;}.cls-6{fill:#455a64;}.cls-7{letter-spacing:0em;}.cls-8{letter-spacing:0em;}.cls-9{letter-spacing:0em;}.cls-10{opacity:.4;}.cls-11,.cls-12{opacity:.3;}.cls-11,.cls-13{isolation:isolate;}.cls-14{letter-spacing:-.02em;}.cls-15{fill:#eb996e;}.cls-16{letter-spacing:0em;}.cls-3{font-family:Raleway-BoldItalic, Raleway;font-size:76px;font-style:italic;font-weight:700;}.cls-17{fill:#ffbe9d;}.cls-18{fill:#f74e00;}.cls-19{fill:none;}.cls-13{opacity:.1;}.cls-20{letter-spacing:0em;}.cls-21{fill:#263238;}</style></defs><rect class="cls-19" width="1366" height="768"/><text class="cls-3" transform="translate(351.42 107.48)"><tspan x="0" y="0">E</tspan><tspan class="cls-7" x="43.93" y="0">s</tspan><tspan class="cls-20" x="80.1" y="0">t</tspan><tspan x="107.99" y="0">á com dúvida</tspan><tspan class="cls-9" x="591.5" y="0">s</tspan><tspan x="627.37" y="0" xml:space="preserve">?   </tspan><tspan class="cls-14" x="9.19" y="91.2">A</tspan><tspan x="56.85" y="91.2">ces</tspan><tspan class="cls-8" x="176.39" y="91.2">s</tspan><tspan x="212.72" y="91.2">e nos</tspan><tspan class="cls-16" x="397.78" y="91.2">s</tspan><tspan x="434.11" y="91.2">o </tspan><tspan class="cls-1" x="496.58" y="91.2">F</tspan><tspan class="cls-4" x="534.88" y="91.2">A</tspan><tspan x="581.62" y="91.2">Q.</tspan></text><g><g id="freepik--question-mark--inject-6"><path class="cls-18" d="M546.95,412.85h62.17s0-52.2,54.25-53.13c28.17-.5,42.78,17.97,48.73,32.1,6.89,16.42,4.8,35.13-4.44,50.36-10.54,17.39-33.26,34.86-75.16,27.47l-.4,138.53h61.48v-82.12s86.22-22.29,86.22-117.35-73.52-110.56-113.04-111.83c-21.98-.7-29.95-1.65-57.14,2.22-34.65,4.95-63.41,45.2-62.68,113.74Z"/><rect class="cls-18" x="631.84" y="637.05" width="62.43" height="58.4"/><rect class="cls-13" x="631.84" y="637.05" width="62.43" height="58.4"/><path class="cls-13" d="M546.95,412.85h62.17s0-52.2,54.25-53.13c28.17-.5,42.78,17.97,48.73,32.1,6.89,16.42,4.8,35.13-4.44,50.36-10.54,17.39-33.26,34.86-75.16,27.47l-.4,138.53h61.48v-82.12s86.22-22.29,86.22-117.35-73.52-110.56-113.04-111.83c-21.98-.7-29.95-1.65-57.14,2.22-34.65,4.95-63.41,45.2-62.68,113.74Z"/><path class="cls-18" d="M520.78,412.85h62.46s0-52.2,54.49-53.13c28.3-.5,42.97,17.97,48.93,32.1,6.93,16.42,4.83,35.13-4.44,50.36-10.59,17.39-33.8,33.19-75.89,25.84v140.16h61.76v-82.12s86.61-22.29,86.61-117.35-81.9-112.03-116.95-112.03c-26.81,.03-118.14,6.48-116.96,116.16Z"/><path class="cls-11" d="M520.78,412.85h62.46s0-52.2,54.49-53.13c28.3-.5,42.97,17.97,48.93,32.1,6.93,16.42,4.83,35.13-4.44,50.36-10.59,17.39-33.8,33.19-75.89,25.84v140.16h61.76v-82.12s86.61-22.29,86.61-117.35-81.9-112.03-116.95-112.03c-26.81,.03-118.14,6.48-116.96,116.16Z"/><rect class="cls-18" x="606.33" y="637.05" width="62.43" height="58.4"/><rect class="cls-11" x="606.33" y="637.05" width="62.43" height="58.4"/><path class="cls-21" d="M644.7,360.22c-.31,.03-.62,.03-.93,0-.61,0-1.5-.2-2.65-.22-3.26-.16-6.52-.02-9.76,.41-4.79,.61-9.51,1.72-14.08,3.31-2.69,.94-5.31,2.07-7.84,3.38-2.73,1.37-5.31,3.03-7.68,4.96-2.35,1.95-4.46,4.18-6.28,6.63-1.72,2.27-3.3,4.65-4.71,7.13-2.36,4.22-4.22,8.69-5.57,13.33-.91,3.13-1.54,6.34-1.87,9.58-.13,1.14-.16,2.05-.19,2.65,0,.31-.03,.62-.09,.93-.03-.31-.03-.62,0-.93,0-.61,0-1.52,.1-2.67,.25-3.28,.82-6.53,1.71-9.69,1.3-4.69,3.14-9.22,5.49-13.48,1.41-2.5,2.99-4.91,4.73-7.2,1.83-2.5,3.97-4.76,6.35-6.73,2.4-1.96,5.01-3.65,7.78-5.03,2.55-1.34,5.18-2.49,7.89-3.45,4.6-1.59,9.37-2.67,14.2-3.23,3.25-.4,6.54-.48,9.81-.23,.89,.06,1.77,.16,2.65,.32,.31,.05,.62,.12,.92,.22Z"/><path class="cls-21" d="M738.42,349.45s-.08-.08-.2-.24-.32-.44-.54-.75l-2.06-2.91c-.44-.62-.92-1.35-1.48-2.09l-1.94-2.36-2.22-2.72c-.81-.95-1.76-1.86-2.7-2.86s-1.92-2.07-3.02-3.09-2.27-2.07-3.48-3.14c-.6-.54-1.2-1.08-1.84-1.65l-2-1.58c-1.37-1.08-2.72-2.15-4.2-3.23-6.43-4.6-13.25-8.63-20.39-12.04l-5.68-2.56-5.63-2.15c-1.84-.76-3.72-1.3-5.52-1.91s-3.58-1.22-5.38-1.64l-5.15-1.35c-1.67-.44-3.33-.71-4.91-1.08s-3.11-.69-4.61-.87l-4.31-.62c-2.72-.46-5.22-.56-7.4-.78-1.08-.09-2.15-.2-3.05-.25l-2.56-.06-3.55-.12h-1.24c.1-.02,.21-.02,.31,0h7.05c.94,0,1.96,.13,3.06,.2,2.15,.18,4.7,.26,7.42,.7l4.31,.58c1.5,.17,3.03,.56,4.62,.85s3.23,.59,4.94,1.08l5.17,1.34c1.79,.41,3.55,1.08,5.38,1.63s3.69,1.08,5.54,1.9l5.66,2.15,5.71,2.57c7.17,3.42,14.02,7.48,20.46,12.13,1.49,1.08,2.84,2.23,4.21,3.3l2,1.45c.65,.54,1.24,1.08,1.84,1.66l3.47,3.23c1.08,1.08,2.05,2.15,3,3.13s1.87,1.94,2.68,2.9l2.15,2.75,1.92,2.39c.55,.75,1.01,1.49,1.44,2.15,.84,1.26,1.5,2.25,1.96,2.96l.51,.79c.08,.07,.16,.14,.23,.23Z"/><path class="cls-21" d="M731.93,482.68c-.13,.23-.28,.45-.46,.65l-1.49,1.76c-.61,.79-1.39,1.72-2.35,2.77s-1.98,2.27-3.23,3.54-2.58,2.69-4.1,4.12-3.17,2.94-4.92,4.51c-7.7,6.72-16.14,12.54-25.16,17.35-2.09,1.08-4.06,2.15-5.97,2.98s-3.68,1.68-5.32,2.37-3.14,1.26-4.46,1.77-2.47,.92-3.41,1.22l-2.15,.7c-.25,.1-.51,.17-.78,.22,.23-.13,.48-.24,.73-.32l2.15-.8c.94-.33,2.07-.76,3.37-1.3s2.81-1.08,4.43-1.84,3.4-1.49,5.27-2.42,3.86-1.93,5.93-3.02c4.1-2.26,8.53-4.91,13-7.97,4.47-3.06,8.49-6.28,12.06-9.32,1.76-1.55,3.44-3,4.93-4.47s2.9-2.79,4.14-4.06,2.33-2.44,3.3-3.48,1.77-1.94,2.41-2.69l1.51-1.71c.18-.2,.37-.38,.57-.55Z"/><path class="cls-21" d="M666.82,603.6c-.16,0-.29-17.3-.29-38.63s.13-38.64,.29-38.64,.28,17.3,.28,38.64-.13,38.63-.28,38.63Z"/><path class="cls-21" d="M669.19,691.71c-.16,0-.28-12.14-.28-27.11s.12-27.12,.28-27.12,.28,12.14,.28,27.12-.13,27.11-.28,27.11Z"/></g><g id="freepik--Character--inject-6"><path class="cls-18" d="M730.41,404.82c-1.08,2.15,2.94,3.92,5.26,4.62,2.36,.58,4.81,.75,7.23,.5,3.23-.17,6.54-.47,9.33-2.07,2.44-1.51,4.4-3.7,5.62-6.3,1.21-2.59,2.16-5.29,2.85-8.07,0,0-25.45,1.66-30.28,11.32Z"/><g class="cls-10"><path d="M730.41,404.82c-1.08,2.15,2.94,3.92,5.26,4.62,2.36,.58,4.81,.75,7.23,.5,3.23-.17,6.54-.47,9.33-2.07,2.44-1.51,4.4-3.7,5.62-6.3,1.21-2.59,2.16-5.29,2.85-8.07,0,0-25.45,1.66-30.28,11.32Z"/></g><path class="cls-18" d="M802.29,397.93c4.2,2.98,9.22,4.55,14.37,4.5,2.47,.14,4.9-.63,6.84-2.15,.83-.76,1.45-1.73,2.3-2.47,.58-.5,1.26-.87,1.81-1.4,.59-.51,.88-1.28,.79-2.05-.21-.94-.74-1.77-1.49-2.37-2.92-1.66-6.41-1.59-9.77-1.52-3.36,.15-6.68,.8-9.85,1.93-2.61,.88-5.33,2.15-6.66,4.52"/><g class="cls-10"><path d="M828.4,394.37c-.38-.91-1.05-1.67-1.91-2.15-2.92-1.66-5.99-1.81-9.35-1.73-3.36,.15-6.68,.8-9.85,1.93-2.61,.88-5.33,2.15-6.66,4.52l1.66,1c4.2,2.98,9.22,4.55,14.37,4.5,2.47,.14,4.9-.63,6.84-2.15,.83-.76,1.45-1.73,2.3-2.47,.58-.5,1.26-.87,1.81-1.4,.59-.51,.88-1.28,.79-2.05Z"/></g><path class="cls-18" d="M752.66,436.34l53.62,.71c.39,0,.7-.32,.7-.7,0-.07-.01-.14-.03-.2l-6.3-19.64s.93-9.82,2.21-21.62c1.95-17.93,4.54-40.47,4.58-40.41-3.67-10.3-25.34-12.04-25.34-12.04l-24.69,1.46-.86-1.45-7.11,3.31c-1.55,.72-3.04,1.56-4.46,2.52-4.7,3.13-16,10.34-18.07,18.36-4.77,18.58,3.31,39.31,3.31,39.31l5.19-4.06c1.31-1.01,2.68-1.93,4.11-2.75l10.4,27.88c-1.25,.79-2.08,2.1-2.26,3.58-.09,2.26,1.08,4.98,4.94,5.75"/><g class="cls-12"><path d="M775.64,403.72c1.7-9.15,.81-18.57-.11-27.83-2.97,7.54-2.86,16.15-6.02,23.63-.39,.79-.67,1.63-.84,2.49-.17,.88,.1,1.78,.71,2.43,.86,.79,2.15,.36,3.3,.23,1.02-.19,2.02-.51,2.96-.95"/></g><g class="cls-10"><path d="M755.83,424.91c4.31,1.5,8.9-1.29,13.45-1.79,3.02-.32,6.03,.37,9.02,.85,6.05,.98,12.21,1.13,18.31,.45,.94-.05,1.85-.29,2.69-.7,.88-.6,1.41-1.6,1.41-2.67-10.14-1.08-20.28-1.66-30.42-2.7-2.53-.43-5.11-.35-7.6,.25-3.06,.95-5.38,3.35-7.54,5.73"/></g><path class="cls-18" d="M826.84,390.84c-4.38-9.88-19.84-37.19-19.84-37.19l-11.96,15,2.79,29.45s6.32-7.05,23.99-7.19c2.6,.1,5.02,1.38,6.57,3.47l-1.55-3.54Z"/><path class="cls-21" d="M755,385.61c-.85-2.09-1.53-4.26-2.02-6.46-.67-2.15-1.16-4.35-1.46-6.58,.84,2.1,1.51,4.26,2.01,6.46,.67,2.15,1.16,4.35,1.48,6.58Z"/><path class="cls-21" d="M794.14,366.66c.39,.28,.75,.59,1.08,.94,.95,.92,1.84,1.9,2.67,2.93,2.78,3.4,4.74,7.41,5.72,11.7,.51,2.37,.62,4.81,.33,7.22-.27,2.21-.69,4.15-.97,5.78s-.45,2.97-.54,3.9c0,.48-.05,.96-.15,1.43-.08-.48-.1-.97-.06-1.45,.05-1.32,.17-2.64,.37-3.94,.23-1.65,.6-3.61,.85-5.77,.25-2.35,.12-4.73-.38-7.04-.96-4.21-2.84-8.16-5.48-11.57-1.97-2.65-3.52-4.03-3.44-4.11Z"/><path class="cls-21" d="M783.17,434.21c-.37,.17-.77,.28-1.17,.34-.46,.12-.93,.21-1.4,.27-.55,.08-1.17,.19-1.87,.23-1.64,.15-3.29,.15-4.93,0-2.01-.21-3.99-.6-5.92-1.18-1.92-.62-3.78-1.41-5.56-2.38-1.44-.8-2.8-1.73-4.08-2.77-.56-.43-1.01-.88-1.42-1.26-.35-.32-.69-.66-1-1.01-.3-.28-.56-.6-.76-.95,.08-.08,1.23,1.22,3.44,2.91,1.29,.98,2.65,1.86,4.08,2.63,1.75,.92,3.58,1.69,5.47,2.29,1.9,.57,3.85,.98,5.82,1.21,1.61,.17,3.23,.22,4.85,.15,2.77-.15,4.46-.56,4.48-.47Z"/><path class="cls-21" d="M799.75,428.1c.25,.49,.4,1.02,.42,1.57,.17,1.31,.07,2.65-.29,3.92-.37,1.3-1.12,2.46-2.15,3.34-.79,.66-1.39,.86-1.42,.81s.47-.41,1.15-1.08c.87-.91,1.5-2.02,1.84-3.23,.86-2.84,.25-5.32,.45-5.33Z"/><path class="cls-21" d="M796.83,431.89c.48,2.26-.43,4.59-2.3,5.94-.12-.12,.88-1.18,1.51-2.83s.64-3.1,.8-3.11Z"/><path class="cls-21" d="M787.22,396.46c-.57,.96-1.21,1.89-1.92,2.76-.56,.97-1.19,1.9-1.88,2.78,.21-1.14,.7-2.2,1.42-3.1,.57-1,1.39-1.84,2.38-2.43Z"/><path class="cls-21" d="M750.37,370.37c-.82-.48-1.61-1.01-2.38-1.57-3.83-2.52-8.18-4.14-12.72-4.75-.95-.07-1.9-.2-2.83-.38,.95-.13,1.92-.13,2.88,0,4.67,.4,9.13,2.06,12.92,4.81,.79,.53,1.51,1.16,2.13,1.88Z"/><path class="cls-21" d="M807.01,353.29c-1.93,1.55-3.73,3.26-5.38,5.09-1.53,1.96-2.89,4.04-4.08,6.22,.13-.73,.38-1.44,.74-2.09,.78-1.61,1.76-3.13,2.91-4.5,1.15-1.37,2.48-2.59,3.94-3.63,.56-.47,1.19-.84,1.87-1.1Z"/><path class="cls-21" d="M784.84,344.42c.1,.16,.18,.32,.24,.5,.21,.49,.38,.99,.51,1.51,.45,1.92,.45,3.92,0,5.84-.67,2.86-2.2,5.46-4.39,7.42-2.76,2.34-6.29,3.6-9.91,3.53-3.63,.01-7.16-1.15-10.07-3.31-2.32-1.77-4.2-4.05-5.5-6.67-.88-1.75-1.49-3.62-1.83-5.55-.1-.52-.16-1.04-.19-1.57-.03-.19-.03-.37,0-.56,0,0,.12,.75,.42,2.09,.42,1.87,1.08,3.68,1.97,5.38,1.31,2.54,3.18,4.74,5.46,6.46,2.81,2.08,6.2,3.21,9.69,3.23,3.49,.06,6.89-1.13,9.57-3.36,2.12-1.89,3.62-4.38,4.31-7.13,.48-1.86,.55-3.8,.19-5.69-.2-1.42-.53-2.11-.46-2.13Z"/><g class="cls-12"><path d="M788.61,398.36c0-.54-.09-1.17-.56-1.44-.3-.15-.66-.15-.97,0-.3,.16-.57,.38-.79,.65-1.27,1.32-2.25,2.88-2.88,4.6l5.28-.46c-.03-1.09-.05-2.23-.09-3.34Z"/></g><g class="cls-12"><path d="M806.13,387.26c-.53-3.02-1.85-5.84-3.83-8.18,2.28,7.45,1.52,11.66,.24,16.77l.28-.71c1.48-2.98,3.72-4.86,3.32-7.87Z"/></g><polygon class="cls-17" points="795.59 637.75 792.37 686.05 771.37 685.8 768.06 635.58 795.59 637.75"/><path class="cls-18" d="M792.94,679.38v1.4s23.69,9.52,23.92,14l-47.05-.26,.73-15.65c7.01,3.28,14.34,3.69,22.4,.51Z"/><path class="cls-2" d="M775.33,684.06c-.92,.28-1.5,1.2-1.34,2.15,.24,.95,1.19,1.55,2.15,1.35,.99-.3,1.6-1.3,1.4-2.32-.35-.97-1.41-1.48-2.39-1.15"/><path class="cls-21" d="M769.83,694.51l.17-3.76,45.06,1.64s2.09,.93,1.84,2.39l-47.07-.27Z"/><path class="cls-21" d="M793.14,681.08c0,.23-1.16,.32-2.29,1.08s-1.74,1.69-1.95,1.6,.14-1.42,1.53-2.28,2.77-.65,2.71-.4Z"/><path class="cls-21" d="M798.06,683.15c.05,.23-.95,.6-1.73,1.57s-1.01,1.99-1.25,1.98-.37-1.31,.64-2.49,2.34-1.23,2.35-1.07Z"/><path class="cls-21" d="M800.83,689.07c-.22,0-.53-1.08,.08-2.36s1.67-1.74,1.77-1.56-.57,.86-1.08,1.91-.53,1.99-.76,2.01Z"/><path class="cls-21" d="M791.76,284.36c1.22-3.02-.26-6.67-2.88-8.62-2.76-1.82-6.12-2.47-9.36-1.82-3.19,.67-6.29,1.76-9.2,3.23-4.03-4.07-10.6-4.1-14.67-.06-1.58,1.57-2.62,3.61-2.95,5.81-3.54-.89-7.14,1.26-8.03,4.8-.32,1.28-.25,2.63,.2,3.87l14.56,5.12,15.9,28c5.34,4.56,13.37,3.92,17.93-1.42,3.74-4.39,4.07-10.74,.79-15.49,.89-.79,1.65-1.72,2.24-2.76,2.57-1.52,4.42-4,5.14-6.89,1.41-6.24-3.41-13.04-9.67-13.77Z"/><path class="cls-17" d="M782.38,342.67c-.9-4.56-1.53-7.68-1.52-7.65s8.62-3.34,7.99-15.32c-.3-5.97-2.57-15.37-4.68-22.99-1.9-6.87-8.3-14.44-15.08-12.26l-20.54,10.02c-2.06,.67-2.41,2.61-1.93,4.71v1.08l7.98,33.02,3.37,14.75c1.49,6.28,7.53,10.38,13.91,9.46h0c6.82-.96,11.57-7.27,10.61-14.09-.03-.24-.08-.48-.12-.72Z"/><path class="cls-21" d="M783.83,304.68c.18,.79-.29,1.59-1.08,1.81-.78,.22-1.59-.24-1.8-1.02,0-.02-.01-.04-.02-.06-.18-.79,.3-1.58,1.08-1.8,.77-.22,1.58,.22,1.8,.99,0,.02,.01,.05,.02,.07Z"/><path class="cls-21" d="M782.89,302.39c-.15,.24-1.45-.36-3.05,0s-2.61,1.39-2.82,1.23,0-.46,.44-.94c.59-.63,1.36-1.05,2.21-1.23,.83-.18,1.7-.09,2.48,.27,.6,.25,.81,.57,.74,.67Z"/><path class="cls-21" d="M768.19,308.21c.18,.79-.3,1.58-1.08,1.8-.78,.23-1.59-.22-1.82-1,0,0,0-.01,0-.02-.18-.79,.29-1.59,1.08-1.81,.78-.22,1.59,.22,1.81,1,0,0,0,.02,0,.02Z"/><path class="cls-21" d="M767.41,306.19c-.14,.24-1.45-.37-3.05,0s-2.61,1.38-2.82,1.23,0-.46,.44-.95c.6-.62,1.37-1.04,2.21-1.22,.83-.18,1.7-.09,2.48,.26,.57,.26,.82,.55,.74,.68Z"/><path class="cls-21" d="M775.52,316.31c.79-.44,1.63-.78,2.5-1.01,.4-.13,.78-.29,.79-.58-.06-.43-.24-.83-.53-1.15l-1.86-2.86c-2.61-4.08-4.59-7.46-4.43-7.54s2.41,3.12,5.02,7.2l1.82,2.89c.36,.44,.55,.99,.55,1.56-.07,.31-.27,.58-.55,.73-.21,.11-.44,.19-.67,.25-.85,.29-1.74,.47-2.64,.52Z"/><path class="cls-15" d="M780.6,335.03c-5.45,1.23-11.13,.93-16.41-.88,0,0,5.64,7.37,17.03,3.84l-.61-2.96Z"/><path class="cls-21" d="M767.68,303.9c-.11,.46-1.76,.45-3.63,.92s-3.36,1.16-3.66,.8c-.13-.17,.09-.62,.66-1.08,.76-.64,1.66-1.09,2.63-1.3,.96-.23,1.96-.23,2.92,0,.76,.14,1.16,.45,1.09,.67Z"/><path class="cls-21" d="M782.28,297.3c-.26,.43-1.64,.32-3.23,.64s-2.85,.85-3.23,.54c-.17-.16,0-.57,.46-1.08,.71-.6,1.57-.99,2.49-1.14,.9-.18,1.84-.11,2.7,.19,.66,.3,.92,.64,.81,.85Z"/><path class="cls-21" d="M753.36,286.76c.9,4.39,5.18,7.22,9.57,6.32,.49-.1,.97-.24,1.43-.43,1.7-.69,3.47-1.98,5.19-1.36s2.43,3.08,4.08,4c2.42,1.36,5.38-.99,8.09-.75,2.15,.18,3.78,1.83,5.45,3.23s3.97,2.46,5.86,1.44c-.43-1.8-1.07-3.54-1.91-5.19-.84-1.66-2.24-2.98-3.94-3.73-.95-.38-1.97-.51-2.88-.97-1.95-.99-2.82-3.23-4.23-4.92-1.88-2.16-4.69-3.28-7.54-3.02-2.33,.24-4.53,1.41-6.88,1.31-1.73-.08-3.39-.85-5.13-.82-3.37,0-5.9,3.02-7.78,5.83"/><path class="cls-21" d="M764.72,289.23c-1.55-.12-4.72-.44-5.76-1.54-2.16-2.42-5.44-3.5-8.62-2.84-3.18,.95-5.36,3.86-5.38,7.17-3.84,.94-6.86,3.9-7.86,7.72-1.02,3.99-.01,8.22,2.69,11.32,.65,.81,1.24,1.66,1.77,2.55-.73,.91-1.37,1.88-1.92,2.91-2.47,5.45,4.22,7.54,4.22,7.54,0,3.66,3.39,3.64,5.56,3.63s3.36,5.77,5.05,5.55l-1.71-17.84c.25,.1,.52,.15,.79,.15,4.08,.08,3.02-7.66,1.7-9.69,1.22-1.51,2.24-3.17,3.06-4.93,.74-2.69,.79-5.53,.15-8.25,1.37-.17,6.94-3.39,6.27-3.44Z"/><path class="cls-17" d="M753.29,316.33c-.45-1.85-2.33-2.99-4.18-2.53-.5,.12-.97,.36-1.37,.68-1.08,.93-1.65,2.48-1,5.07,1.74,6.94,8.35,3.76,8.3,3.56s-1-3.92-1.76-6.78Z"/><path class="cls-15" d="M752.27,321.02s-.1,.12-.28,.26c-.25,.2-.58,.28-.89,.25-.8-.09-1.71-1.08-2.06-2.34-.16-.59-.2-1.21-.1-1.81,.02-.48,.28-.91,.68-1.16,.27-.15,.61-.08,.8,.16,.14,.16,.13,.31,.17,.32s.12-.16,0-.43c-.08-.16-.21-.29-.38-.37-.23-.09-.48-.09-.71,0-.55,.26-.93,.79-1,1.39-.14,.68-.11,1.38,.08,2.05,.25,1.28,1.23,2.28,2.51,2.55,.41,.02,.81-.15,1.08-.46,.14-.24,.14-.4,.11-.41Z"/><path class="cls-6" d="M790.79,306.65s.64-.48,1.52-1.56c1.22-1.55,1.97-3.42,2.15-5.38,.14-1.34,.01-2.7-.39-3.98-.46-1.48-1.31-2.8-2.47-3.83-2.71-2.37-6.47-3.12-9.89-1.98-.32,.11-.62,.27-.93,.4s-.57,.32-.85,.48l-.43,.24v-.47c0-.83-.32-1.64-.87-2.26-.57-.61-1.26-1.08-2.04-1.38-1.46-.61-3.08-.73-4.62-.34-2.97,.68-5.49,2.04-7.87,2.32-1.87,.32-3.79-.06-5.38-1.08-.42-.29-.79-.66-1.08-1.08-.17-.29-.26-.45-.24-.46,.39,.53,.87,.99,1.41,1.37,1.57,.91,3.42,1.22,5.2,.87,1.24-.23,2.45-.59,3.62-1.08,1.37-.55,2.77-1,4.2-1.37,.8-.19,1.62-.28,2.43-.25,.86,.05,1.71,.24,2.51,.58,.82,.35,1.56,.88,2.15,1.55,.64,.73,1,1.66,1.01,2.63l-.43-.24,.89-.52c.33-.13,.65-.3,.99-.42,3.6-1.23,7.58-.44,10.44,2.08,1.21,1.1,2.1,2.5,2.56,4.07,.98,3.37,.21,7.01-2.06,9.69-.35,.4-.76,.77-1.2,1.08-.11,.13-.23,.24-.37,.33Z"/><path class="cls-6" d="M789.08,282.05c-.71-.36-1.46-.62-2.24-.76-.89-.12-1.8-.04-2.65,.25-1.1,.34-2.06,1.04-2.72,1.98l-.27,.38-.16-.43c-1.14-2.7-3.66-4.56-6.57-4.88-2.25-.08-4.46,.56-6.31,1.83-1.58,1.03-3.26,1.89-5.01,2.58-1.21,.46-2.51,.61-3.79,.45-.34-.06-.68-.16-1-.28-.22-.1-.33-.15-.32-.17s.48,.14,1.36,.23c1.24,.08,2.48-.13,3.63-.59,1.7-.74,3.34-1.64,4.88-2.67,.95-.59,1.96-1.09,3.02-1.48,1.16-.42,2.39-.58,3.62-.46,3.11,.34,5.79,2.36,6.96,5.27h-.42c.74-1.01,1.8-1.75,3-2.09,.92-.27,1.88-.31,2.82-.14,.59,.11,1.16,.33,1.68,.65,.18,.09,.35,.21,.51,.34Z"/><path class="cls-18" d="M774.89,319.5c-.51-.43-1.17-.61-1.83-.52-.77,.16-1.43,.65-1.82,1.32h0s-.05,.05-.06,.09h0c-.15,.25-.22,.53-.19,.82,.1,.63,.5,1.18,1.08,1.45,.93,.47,2.06,.31,2.82-.41,.73-.77,.74-1.98,.01-2.76Z"/><path class="cls-21" d="M775.43,322.85c-.09,0-.18-.32-.47-.76-.72-1.21-2.11-1.85-3.5-1.59-.53,.08-.85,.23-.88,.15s.22-.33,.8-.54c.76-.24,1.59-.2,2.32,.13,.74,.33,1.32,.93,1.63,1.67,.23,.56,.19,.94,.12,.95Z"/><path class="cls-18" d="M753.45,324.18s.31,.54-.1,1.36c-.23,.49-.64,.87-1.14,1.08-.64,.23-1.34,.14-1.91-.23-.57-.35-.95-.95-1.02-1.62-.03-.53,.12-1.06,.44-1.49,.56-.71,1.18-.73,1.18-.67s-.47,.25-.85,.89c-.22,.36-.31,.79-.26,1.21,.08,.5,.38,.93,.81,1.2,.43,.27,.95,.35,1.43,.22,.4-.14,.74-.41,.98-.75,.42-.67,.34-1.2,.43-1.2Z"/><path class="cls-18" d="M749.82,323.76c.05,0,0,.37-.51,.6-.72,.3-1.55-.04-1.84-.76-.13-.31-.14-.65-.04-.97,.11-.29,.31-.54,.57-.7,.44-.27,.78-.16,.76-.1s-.26,.14-.53,.41c-.37,.46-.3,1.14,.17,1.51,.22,.18,.5,.26,.78,.23,.37-.08,.56-.27,.64-.23Z"/><path class="cls-17" d="M761.47,419.41s26.67,1.55,42.43,1.69c12.2,.12,17.65-3.12,20.08-10.97,2.05-6.58-2.35-19.21-2.35-19.21-8.26,0-13.35,1.18-18.66,3.67l1.41,5.77-42.99,3.7,.08,15.35Z"/><path class="cls-15" d="M813.53,406.52c-1.16-1.5-2.51-2.85-4.02-4-1.62-.99-3.37-1.76-5.19-2.28,.57-.08,1.16-.03,1.71,.15,1.35,.32,2.64,.89,3.79,1.67,1.15,.79,2.15,1.78,2.94,2.93,.6,.88,.83,1.5,.76,1.53Z"/><path class="cls-17" d="M751.9,394.54h0s-8.25,1.98-14.31,6.03l6.46,17.51c2.15,5.75,8.73,8.62,14,5.6,8.11-4.64,10.97-18.17,10.97-18.17l8.91-38.64-14.76-9.25-11.21,36.92"/><path class="cls-17" d="M763.11,357.62l.6-12.71-3.31-12.92c-.18-.71-.27-1.6,.31-2.04,.59-.46,1.43-.43,1.99,.06,.89,.93,5.2,12.22,5.2,12.22,0,0,6.54-3.92,7.7-4.11s2.62,3.33,2.71,3.6c.04,.79,.04,1.58,0,2.37,0,0,4.04,.12,4.4,.67,.29,1.12,.45,2.28,.46,3.44,0,0,1.71,.55,1.98,1.84s.83,3.42,0,3.9-2.51,1.4-2.51,1.4c0,0-.68,6.59-.86,7.19s-3.96,4.31-3.96,4.31l-14.73-9.22Z"/><path class="cls-15" d="M749.37,423.94s.4,.24,1.24,.51c1.23,.39,2.53,.49,3.8,.3,2.05-.29,3.96-1.18,5.51-2.54,2.05-1.86,3.78-4.04,5.13-6.46,.79-1.42,1.46-2.91,1.99-4.45,.56-1.69,1.02-3.41,1.39-5.16,.84-3.63,1.76-7.54,2.72-11.7,1.94-8.3,4.11-17.59,6.35-27.59v-.32h.17s1.49-1.23,2.23-2c.37-.39,.73-.78,1.08-1.17,.17-.2,.36-.41,.5-.61,.11-.2,.17-.43,.18-.66,.29-2.15,.52-4.38,.54-6.63v-.14l.34-.06,2.06-1.15c.15-.1,.39-.2,.48-.29,.1-.09,.17-.22,.19-.36,.05-.36,.05-.72,0-1.08-.1-.79-.27-1.57-.48-2.34-.37-.67-.98-1.17-1.71-1.39l-.21-.06v-.18c.02-.62-.04-1.27-.12-1.91-.03-.32-.08-.63-.14-.95-.03-.14-.07-.27-.13-.4,0-.08,0,0-.06-.06-.06-.03-.12-.06-.18-.08-1.3-.28-3.94-.62-3.94-.62h-.12v-2.43c-.04-.25-.13-.5-.26-.72-.11-.26-.24-.51-.37-.76-.25-.5-.55-.97-.88-1.42-.15-.21-.34-.39-.55-.54-.16-.13-.38-.16-.57-.06-.52,.2-1.03,.43-1.51,.7-2,1.08-3.95,2.15-5.87,3.32l-.28,.17-.12-.3c-1.01-2.55-2.02-5.07-3.01-7.54-.49-1.24-.98-2.48-1.47-3.69-.16-.56-.61-.97-1.18-1.08-.53-.18-1.11,.04-1.4,.52-.13,.23-.19,.5-.16,.76,0,.24,.15,.6,.21,.89,.17,.62,.33,1.24,.49,1.85,.32,1.24,.63,2.46,.96,3.66,.63,2.43,1.25,4.8,1.86,7.11v-.34c-.24,4.84-.46,9.47-.67,13.9v-.62l-9.94,31.92-2.77,8.88c-.32,1-.57,1.79-.74,2.34s-.28,.79-.28,.79c0,0,.05-.28,.2-.81l.68-2.36c.62-2.08,1.52-5.08,2.65-8.92,2.33-7.71,9.53-31.99,9.53-31.99v.05l.67-12.71v-.13c-.6-2.25-1.22-4.56-1.83-6.91l-.94-3.56c-.16-.6-.31-1.21-.48-1.8-.09-.31-.16-.63-.22-.95-.04-.36,.04-.73,.22-1.05,.19-.33,.49-.58,.85-.71,.72-.21,1.49-.03,2.04,.46,.26,.25,.46,.56,.57,.9l1.44,3.59c.97,2.41,1.95,4.86,2.95,7.34l-.39-.14c1.88-1.11,3.76-2.22,5.75-3.26,.5-.26,1.02-.5,1.55-.7,.17-.07,.35-.09,.52-.07,.18,.03,.35,.09,.5,.19,.25,.18,.48,.4,.66,.65,.35,.46,.66,.95,.91,1.47,.14,.26,.26,.51,.38,.78,.15,.28,.25,.58,.29,.89v2.28l.13-.29c1.38,0,2.76,.17,4.11,.47,.09,.03,.18,.07,.27,.12,.12,.06,.22,.16,.28,.28,.08,.17,.15,.36,.18,.55,.06,.34,.11,.67,.15,1,.06,.66,.11,1.3,.14,1.95l-.19-.26c.89,.26,1.63,.88,2.06,1.7,.24,.82,.41,1.65,.52,2.5,.07,.43,.07,.87,0,1.3-.05,.26-.18,.5-.39,.67-.18,.12-.36,.23-.55,.32l-2.05,1.07,.14-.2c-.25,2.25-.47,4.46-.78,6.64l-.06,.42c-.02,.17-.1,.33-.2,.46-.16,.24-.33,.46-.53,.67-.37,.41-.73,.81-1.08,1.2-.74,.78-1.49,1.52-2.24,2.25l.08-.13c-2.37,9.99-4.57,19.28-6.54,27.58-.98,4.15-1.92,8.06-2.78,11.67-.37,1.76-.84,3.49-1.42,5.19-.55,1.55-1.24,3.05-2.05,4.49-1.38,2.45-3.15,4.66-5.24,6.53-1.6,1.38-3.56,2.25-5.65,2.52-1.3,.17-2.63,.04-3.87-.39-.32-.12-.62-.26-.92-.42l-.33-.14Z"/><path class="cls-15" d="M778.34,344.13c0,.08-.37,.12-.94,.14-.72,.01-1.45,.1-2.15,.26-.68,.17-1.31,.5-1.83,.98-.39,.37-.56,.68-.65,.65s0-.42,.36-.92c.5-.63,1.2-1.07,1.98-1.25,.75-.19,1.54-.22,2.3-.11,.58,.08,.93,.17,.93,.25Z"/><path class="cls-15" d="M775.22,344.25c-.14-.05-.15-.39,0-.74s.37-.6,.51-.55,.16,.39,0,.74-.4,.6-.51,.55Z"/><path class="cls-15" d="M783.38,348.16c-1.05,.32-2.14,.47-3.23,.44-.7-.02-1.37,.29-1.79,.85-.28,.44-.18,.81-.27,.83s-.34-.36-.08-1c.15-.36,.42-.66,.76-.85,.4-.22,.84-.35,1.29-.39,1.1-.17,2.22-.13,3.31,.12Z"/><path class="cls-15" d="M782.67,352.03c.15,0,.24,.8,.19,1.78s-.2,1.76-.36,1.76-.25-.81-.2-1.79,.2-1.76,.37-1.74Z"/><path class="cls-2" d="M787.14,381.04l.96-3.3c.14-.48,.64-.76,1.12-.62,.15,.04,.28,.12,.39,.23l1.26,1.28,.78-3.11c.12-.48,.62-.78,1.1-.65,.26,.07,.48,.24,.59,.48l1.76,3.68-7.95,2Z"/><path class="cls-2" d="M795.11,380.44c-1.2,.58-2.48,1-3.8,1.23-1.27,.42-2.6,.65-3.94,.69,2.48-1,5.09-1.64,7.74-1.92Z"/><path class="cls-2" d="M731.06,362.06s-.4,.41-.96,1.28c-.75,1.24-1.25,2.62-1.45,4.06-.31,2.14-.37,4.31-.19,6.46,.12,2.44,.31,5.12,.61,7.92,.51,4.78,1.27,9.53,2.27,14.24,.38,1.81,.72,3.23,.96,4.31,.11,.45,.2,.83,.28,1.15s.09,.41,.09,.41c0,0-.05-.13-.13-.39s-.19-.71-.31-1.15c-.27-1-.64-2.44-1.08-4.25-1.05-4.7-1.83-9.46-2.34-14.25-.3-2.8-.48-5.48-.59-7.93-.16-2.16-.08-4.32,.24-6.46,.23-1.46,.76-2.85,1.55-4.09,.29-.48,.65-.92,1.06-1.3Z"/><path class="cls-2" d="M753.73,347.39l-.25,.13-.71,.34c-.61,.29-1.51,.72-2.57,1.31-2.78,1.55-5.48,3.24-8.09,5.06-3.08,2.15-5.8,4.11-7.8,5.54l-2.36,1.67-.66,.44c-.07,.06-.15,.11-.24,.15,.06-.07,.13-.13,.22-.18l.62-.47,2.32-1.73c1.97-1.45,4.68-3.48,7.76-5.59,2.61-1.83,5.33-3.51,8.14-5.02,1.08-.57,1.98-.98,2.62-1.25l.72-.3c.22-.08,.22-.11,.27-.1Z"/><path class="cls-2" d="M805.09,354.47c-.07-.04-.13-.08-.18-.14l-.48-.42c-.6-.51-1.23-.98-1.88-1.41-2.19-1.39-4.51-2.57-6.92-3.5-2.41-.96-4.87-1.77-7.38-2.46-.97-.27-1.74-.46-2.29-.59l-.61-.16c-.07-.02-.15-.04-.22-.08h.23l.62,.12c.55,.11,1.34,.28,2.3,.53,2.53,.64,5.01,1.44,7.43,2.4,2.43,.93,4.76,2.13,6.92,3.58,.9,.61,1.73,1.33,2.47,2.13Z"/><path class="cls-2" d="M754.03,436.61c-.15-.03-.29-.07-.42-.14-.37-.16-.73-.36-1.08-.58-1.17-.7-2.02-1.84-2.35-3.17-.3-1.32-.15-2.71,.42-3.94,.16-.38,.37-.74,.62-1.08,.17-.23,.29-.33,.3-.32-.29,.46-.56,.94-.79,1.43-.5,1.21-.62,2.54-.33,3.82,.31,1.26,1.08,2.36,2.15,3.09,.89,.65,1.49,.84,1.46,.88Z"/><path class="cls-2" d="M750.61,424.94c.23,.43,.4,.88,.51,1.36,.17,.45,.27,.93,.3,1.41-.24-.42-.42-.87-.52-1.35-.18-.45-.27-.93-.29-1.42Z"/><path class="cls-21" d="M765.17,666.58h33.14l-.67-113.9v-115.67h-45.04l-8,14.65c-3.27,6.06-5.36,12.69-6.15,19.54-.54,5.23,3.38,22.25,4.74,26.56l12.24,38.83,9.74,129.99Z"/><path class="cls-21" d="M806.75,437.01l36.1,98.68c4.33,12.84,2.7,26.94-4.45,38.45l-41.91,81.85-23.56-29.49,35.07-73.23-30.91-50.13,5.2-66.13h24.47Z"/><path class="cls-6" d="M794.28,470.26s0-.53,0-.2,.05,.86,.1,1.5c.08,1.34,.17,3.26,.3,5.74,.25,5.03,.6,12.25,1.09,21.16,.49,8.91,.9,19.54,1.44,31.37,.26,5.91,.54,12.1,.83,18.53,.21,3.26,.12,6.51,.15,9.77,.03,3.26,0,6.69,0,10.1,0,27.28,.09,51.98,.12,69.88v26.09c-.2-1.34-.2-3.23-.26-5.72,0-4.99-.09-12.15-.15-21-.08-17.76-.26-69.32-.26-69.32v-10.02s.04-6.55-.16-9.69c-.27-6.36-.54-12.51-.79-18.37-.5-11.72-.95-22.26-1.31-31.13-.37-8.87-.64-16-.84-20.99-.09-2.46-.92-5.71-.92-5.71v-1.49l.67-.51Z"/><path class="cls-6" d="M793.29,439.23c.13,.35,.2,.71,.23,1.08,.12,.69,.25,1.69,.4,2.94,.28,2.49,.58,5.94,.75,9.77s.18,7.29,.13,9.8c0,1.25-.08,2.27-.13,2.97,.01,.36-.03,.73-.13,1.08-.14-1.35-.18-2.7-.14-4.05,0-2.51-.12-5.96-.29-9.78s-.41-7.26-.59-9.69c-.15-1.37-.23-2.74-.23-4.11Z"/><path class="cls-6" d="M786.05,441.45c.05,.08-.56,.36-.73,1.23-.1,.48,.06,.98,.42,1.31,.44,.4,1.07,.52,1.62,.29,.53-.27,.85-.82,.84-1.41-.02-.49-.29-.93-.72-1.17-.44-.21-.93-.3-1.41-.25,0,0,.11-.14,.39-.23,.4-.1,.83-.06,1.21,.12,.61,.26,1.03,.83,1.08,1.5,.11,1.06-.65,2.01-1.71,2.12-.6,.06-1.19-.16-1.6-.59-.47-.46-.64-1.15-.44-1.78,.11-.4,.35-.76,.69-1,.22-.15,.38-.17,.39-.14Z"/><path class="cls-6" d="M768.82,439.5c.16,.34,.26,.7,.29,1.08,.17,.97,.21,1.95,.1,2.93-.15,1.45-.57,2.87-1.24,4.17-1.63,3.29-4.78,5.55-8.42,6.04-1.43,.21-2.89,.16-4.31-.16-.96-.21-1.88-.55-2.74-1.02-.32-.15-.62-.36-.88-.6,1.19,.54,2.43,.95,3.7,1.24,6.12,1.27,12.11-2.66,13.39-8.78,.06-.3,.11-.61,.15-.91,.13-1.32,.11-2.65-.04-3.97Z"/><path class="cls-6" d="M811.08,448.94c-.7,.08-1.41,0-2.08-.25-1.63-.51-3.09-1.45-4.23-2.71-1.15-1.26-1.95-2.81-2.29-4.48-.17-.68-.17-1.4,0-2.08,.1,0,.11,.79,.43,1.99,.88,3.16,3.21,5.72,6.27,6.9,1.12,.44,1.92,.52,1.91,.62Z"/><path class="cls-6" d="M823.9,555.02c-.54,.62-1.19,1.13-1.91,1.52-.76,.48-1.58,.84-2.44,1.08-1.09,.29-2.24,.26-3.31-.09-1.88-.71-3.49-1.99-4.61-3.66-.51-.63-.94-1.32-1.26-2.07,.58,.55,1.11,1.16,1.57,1.82,1.14,1.52,2.69,2.68,4.46,3.37,1.83,.49,3.77,.2,5.38-.79,.68-.43,1.39-.83,2.11-1.18Z"/><path class="cls-6" d="M815.68,561.29c-1.27-1.32-2.41-2.76-3.39-4.31-1.13-1.44-2.12-2.99-2.95-4.62,1.28,1.31,2.42,2.76,3.4,4.31,1.14,1.43,2.13,2.98,2.94,4.62Z"/><path class="cls-5" d="M760.49,474.06c-.15,.05-.53-.56-.86-1.39s-.47-1.53-.33-1.59,.53,.56,.85,1.39,.48,1.59,.34,1.59Z"/><path class="cls-5" d="M781.34,477.06c-.16,0-.28-.53-.28-1.18s.12-1.2,.28-1.2,.28,.54,.28,1.2-.13,1.18-.28,1.18Z"/><path class="cls-5" d="M772.77,488.38c-.15,0-.32-.65-.38-1.48s0-1.5,.17-1.51,.33,.65,.39,1.48-.03,1.5-.18,1.51Z"/><path class="cls-5" d="M757.11,496.68c-.13,.1-.57-.3-1.15-.71s-1.08-.72-1.08-.87,.71-.06,1.37,.41,.99,1.17,.86,1.17Z"/><path class="cls-5" d="M784.71,507.24c-.13-.09,0-.55,.37-1.08s.7-.83,.83-.74,0,.56-.37,1.08-.7,.83-.83,.74Z"/><path class="cls-5" d="M767.68,510.22c-.15,0-.28-.89-.28-1.98s.13-1.99,.28-1.99,.28,.89,.28,1.99-.16,1.98-.28,1.98Z"/><path class="cls-5" d="M762.1,522.31c-.09,.12-.65-.13-1.25-.57s-1.08-.89-.94-1.02,.66,.13,1.26,.57,1.02,.89,.93,1.02Z"/><path class="cls-5" d="M779.35,526.51c.06,.14-.28,.43-.78,.66s-.95,.28-1.01,.14,.29-.43,.79-.66,.95-.28,1-.14Z"/><path class="cls-5" d="M767.68,546.22c-.13,.06-.69-.76-1.24-1.86s-.88-2.05-.74-2.15,.7,.76,1.24,1.86,.84,2.04,.74,2.15Z"/><path class="cls-5" d="M786.71,544.39c-.14-.08,.11-.8,.54-1.63s.92-1.43,1.08-1.36-.11,.8-.55,1.63-.94,1.43-1.07,1.36Z"/><path class="cls-5" d="M778.36,561.07c-.16,0-.14-.87-.31-1.88s-.43-1.82-.28-1.9,.67,.69,.84,1.81-.1,2-.25,1.97Z"/><path class="cls-5" d="M769.42,570.6c-.11,.11-.65-.3-1.2-.9s-.9-1.17-.79-1.28,.65,.3,1.2,.9,.9,1.17,.79,1.28Z"/><path class="cls-5" d="M791.11,574.22c-.11-.11,.29-.69,.89-1.3s1.16-1.01,1.28-.9-.29,.7-.88,1.3-1.17,1.01-1.29,.9Z"/><path class="cls-5" d="M778.64,588.49c-.15,0-.15-.85,0-1.84s.39-1.77,.55-1.74,.15,.84,0,1.83-.4,1.78-.55,1.76Z"/><path class="cls-5" d="M770.25,595.41c-.14,.08-.61-.48-1.08-1.25s-.7-1.44-.57-1.52,.6,.47,1.08,1.24,.7,1.44,.57,1.53Z"/><path class="cls-5" d="M790.47,604.15c.1,.13-.45,.68-1.23,1.23s-1.45,.89-1.55,.76,.46-.68,1.23-1.23,1.46-.88,1.55-.76Z"/><path class="cls-5" d="M773.62,615.49c-.15-.05,0-.92,.14-1.99s.05-1.96,.22-1.98,.44,.88,.33,2.04-.55,2-.69,1.94Z"/><path class="cls-5" d="M780.35,631.77c-.13,.1-.58-.27-1.02-.82s-.69-1.08-.57-1.17,.57,.27,1.01,.82,.7,1.08,.58,1.17Z"/><path class="cls-5" d="M773,642.69c-.13,.09-.72-.55-1.32-1.43s-.98-1.66-.86-1.74,.72,.55,1.32,1.43,.99,1.66,.86,1.74Z"/><path class="cls-5" d="M793.25,628.98c-.14-.05-.13-.45,0-.88s.42-.75,.57-.7,.13,.45,0,.89-.42,.75-.57,.69Z"/><path class="cls-5" d="M784.32,654.99c-.14-.08,.13-.84,.34-1.8s.29-1.77,.45-1.78,.32,.86,.1,1.9-.76,1.77-.89,1.68Z"/><path class="cls-5" d="M790.13,488.56c-.14,.06-.48-.37-.76-.97s-.4-1.14-.26-1.21,.48,.37,.76,.97,.42,1.14,.26,1.21Z"/><path class="cls-5" d="M775.22,455.02c.09,.13-.67,.73-1.48,1.59s-1.36,1.66-1.5,1.58,.23-1.08,1.08-1.96,1.79-1.36,1.9-1.22Z"/><path class="cls-5" d="M788.49,454.68c-.16,0-.41-.61-.79-1.35s-.72-1.34-.6-1.44,.7,.37,1.08,1.18,.45,1.52,.31,1.6Z"/><path class="cls-5" d="M747.03,465.56c-.14-.06,0-.78,.33-1.59s.7-1.45,.85-1.39,0,.76-.33,1.59-.67,1.44-.85,1.39Z"/><path class="cls-5" d="M748.38,481.83c-.11,.12-.72-.23-1.38-.78s-1.08-1.08-1.01-1.21,.72,.23,1.38,.78,1.11,1.09,1.01,1.21Z"/><path class="cls-5" d="M775.58,442.11c-.14,0-.44-.34-.66-.89s-.28-1.08-.14-1.08,.44,.34,.66,.89,.28,1.02,.14,1.08Z"/><path class="cls-5" d="M801.63,450.06c-.15,0-.14-.68,0-1.44s.42-1.37,.57-1.34,.14,.69,0,1.45-.42,1.36-.57,1.32Z"/><path class="cls-5" d="M807.75,462.37c-.14-.06,.05-.86,.44-1.8s.81-1.64,.95-1.58,0,.86-.43,1.8-.81,1.64-.96,1.58Z"/><path class="cls-5" d="M803.39,472.3c-.14,.06-.66-.68-1.15-1.66s-.78-1.85-.64-1.92,.65,.68,1.14,1.66,.79,1.84,.65,1.92Z"/><path class="cls-5" d="M812.71,482.22c-.14-.05,0-.68,.24-1.39s.61-1.25,.76-1.2,0,.68-.24,1.39-.57,1.25-.76,1.2Z"/><path class="cls-5" d="M804.38,491.95c-.13,.09-.46-.2-.73-.64s-.4-.86-.26-.95,.45,.2,.73,.65,.39,.86,.26,.94Z"/><path class="cls-5" d="M806.16,512.02c-.11,.1-.79-.43-1.5-1.21s-1.2-1.48-1.08-1.58,.79,.43,1.5,1.21,1.2,1.48,1.08,1.58Z"/><path class="cls-5" d="M817.09,500.49c-.12,.1-.71-.44-1.31-1.22s-.99-1.46-.87-1.56,.71,.45,1.31,1.22,1,1.48,.87,1.56Z"/><path class="cls-5" d="M823.09,516.4c-.14-.06,.11-.87,.55-1.8s.9-1.64,1.08-1.57-.1,.88-.54,1.81-.95,1.64-1.09,1.56Z"/><path class="cls-5" d="M810.33,529.49c-.14,.08-.64-.52-1.32-1.15s-1.32-1.08-1.26-1.24,.88,.13,1.64,.83,1.08,1.49,.95,1.56Z"/><path class="cls-5" d="M811.13,542.99c0,.15-.54,.28-1.2,.28s-1.18-.13-1.18-.28,.53-.28,1.18-.28,1.2,.13,1.2,.28Z"/><path class="cls-5" d="M824.24,539.22c-.14-.08,.14-.75,.34-1.59s.29-1.57,.45-1.58,.33,.78,.1,1.71-.78,1.55-.89,1.46Z"/><path class="cls-5" d="M837.26,543.75c-.14,.05-.54-.71-.88-1.69s-.51-1.82-.37-1.86,.55,.7,.89,1.68,.51,1.82,.36,1.87Z"/><path class="cls-5" d="M835.18,562.27c-.13-.08,.2-.98,.74-2.02s1.08-1.83,1.24-1.76-.19,.98-.74,2.01-1.1,1.86-1.24,1.77Z"/><path class="cls-5" d="M823.3,573.14c-.14,.05-.58-.69-.99-1.67s-.61-1.82-.46-1.88,.58,.69,.98,1.67,.61,1.88,.47,1.88Z"/><path class="cls-5" d="M810.14,577.35c0,.15-.45,.28-1,.28s-.99-.13-.99-.28,.45-.28,.99-.28,1,.13,1,.28Z"/><path class="cls-5" d="M817.68,594.68c-.14,0-.44-.59-.67-1.41s-.27-1.53-.12-1.56,.44,.59,.67,1.41,.27,1.48,.12,1.56Z"/><path class="cls-5" d="M808.15,588.86c-.13-.08,0-.58,.36-1.13s.71-.93,.84-.85,0,.59-.36,1.14-.7,.93-.84,.84Z"/><path class="cls-5" d="M807.95,607.94c-.15,0-.37-.72-.47-1.66s-.08-1.7,.08-1.72,.37,.72,.47,1.66,.08,1.7-.08,1.72Z"/></g></g></svg>