<?xml version="1.0" encoding="UTF-8"?><svg id="Camada_1" xmlns="http://www.w3.org/2000/svg" viewBox="0 0 1366 768"><defs><style>.cls-1,.cls-2,.cls-3{fill:#fff;}.cls-4{fill:#37474f;}.cls-5{letter-spacing:0em;}.cls-6{fill:#ff9cbd;}.cls-7{fill:#455a64;}.cls-8{letter-spacing:-.02em;}.cls-9{fill:#a6a6a6;}.cls-10{letter-spacing:0em;}.cls-11{fill:#e0300b;}.cls-12{letter-spacing:-.06em;}.cls-13{opacity:.3;}.cls-13,.cls-14,.cls-15,.cls-3,.cls-16,.cls-17{isolation:isolate;}.cls-14,.cls-17{opacity:.2;}.cls-2{font-family:Raleway-BoldItalic, Raleway;font-size:76px;font-style:italic;font-weight:700;}.cls-15,.cls-16{opacity:.1;}.cls-15,.cls-17,.cls-18{fill:#263238;}.cls-3{opacity:.7;}.cls-19{fill:#ebebeb;}.cls-20{fill:none;}.cls-21{fill:#774442;}.cls-22{letter-spacing:0em;}.cls-23{letter-spacing:0em;}.cls-24{fill:#dd6a57;}</style></defs><rect class="cls-20" x=".29" y="2.29" width="1366" height="768"/><text class="cls-2" transform="translate(346.1 109.77)"><tspan class="cls-12" x="0" y="0">V</tspan><tspan x="44.54" y="0">enha </tspan><tspan class="cls-10" x="240.23" y="0">s</tspan><tspan x="276.56" y="0">olici</tspan><tspan class="cls-23" x="424.23" y="0">t</tspan><tspan x="452.12" y="0">a</tspan><tspan class="cls-8" x="499.54" y="0">r</tspan><tspan x="526.75" y="0" xml:space="preserve"> sua </tspan><tspan x="-41.35" y="91.2">e</tspan><tspan class="cls-5" x=".53" y="91.2">n</tspan><tspan x="44.23" y="91.2">t</tspan><tspan class="cls-22" x="72.58" y="91.2">r</tspan><tspan x="100.92" y="91.2">ega com a ge</tspan><tspan class="cls-5" x="579.72" y="91.2">nt</tspan><tspan x="651.24" y="91.2">e!</tspan></text><g><g id="freepik--character-2--inject-5"><path class="cls-18" d="M771.8,328.9l-.47,.12c.01-.05,.04-.1,.08-.14h0l.39,.02Z"/><path class="cls-24" d="M784.92,674.68h-.21v-.15l.21,.15Z"/><path class="cls-24" d="M754.75,707.46c2.71,.88,80.18-.13,83.1-2.03,1.17-.7,1.63-11.94,1.86-25.54v-.69l1-8.61v-1.17l-4.33-39.74-52.14,.53,5.11,39.61,.06,1.56,.3,8.17v.84s-29.47,13.57-32.43,16.01-5.25,10.19-2.53,11.05Z"/><path class="cls-19" d="M754.71,707.47c2.71,.88,80.22-.13,83.14-2.03,1.17-.7,1.63-11.94,1.87-25.54v-.69l1-8.61v-.91l-51.36,.14,.06,1.56,.31,8.17v.84s-29.51,13.57-32.47,16.01-5.26,10.19-2.53,11.05Z"/><path class="cls-11" d="M754.72,707.68c1.4,.44,22.46,.4,43.04,0,4.13-.08,8.21-.19,12.17-.29,14.68-.4,26.8-.99,27.93-1.73s1.63-11.67,1.85-24.98v-1h-.06l-49.94,.09v.85s-29.49,13.56-32.45,15.99-5.26,10.2-2.55,11.06Z"/><path class="cls-18" d="M756.27,704.22c12.99-.49,65.43-1.23,78.3-.72,.11,0,.11,.08,0,.08-12.84,.77-65.3,1.09-78.3,.85-.23-.01-.23-.21,0-.21Z"/><path class="cls-18" d="M784.74,679.51c5.1-1.02,11.37-.32,15.32,3.28,.15,.14,0,.35-.21,.3-4.91-1.52-9.96-2.5-15.08-2.94-.18-.02-.31-.19-.28-.37,.02-.13,.12-.24,.25-.28Z"/><path class="cls-18" d="M781.09,681.78c5.1-1.03,11.36-.32,15.31,3.27,.15,.14,0,.36-.21,.3-4.91-1.51-9.96-2.49-15.08-2.93-.18-.03-.3-.19-.27-.37,.02-.13,.12-.24,.25-.27Z"/><path class="cls-18" d="M777.43,684.05c5.1-1.02,11.37-.32,15.31,3.28,.16,.14,0,.35-.21,.3-4.91-1.52-9.96-2.5-15.08-2.93-.18,0-.33-.13-.34-.32,0-.18,.13-.33,.32-.34h0Z"/><path class="cls-18" d="M797.99,707.68c4.11-.08,8.17-.19,12.1-.29,14.6-.4,26.66-.99,27.78-1.73s1.62-11.67,1.84-24.98v-1h-.06c-6.79,4.77-30.78,20.74-41.67,28Z"/><path class="cls-7" d="M786.92,679.68h55.49s-11.18-129.61-10.73-131.84c.55-2.91,21.26-84,25.24-99.32,5.96-22.97,10.62-40.84,10.62-40.84h-47.07s-5.48,17.38-12.39,39.98c-11.26,36.75-26.3,87.32-27.78,99.62-2.37,19.82,6.63,132.4,6.63,132.4Z"/><path class="cls-18" d="M789.35,670c8.49-.18,6.05-.25,14.53-.33,4.14,0,31.42-.28,35.29,.36,.08,0,.08,.16,0,.18-3.89,.64-31.15,.41-35.29,.36-8.49-.08-6.05-.15-14.53-.33-.07-.02-.11-.09-.08-.16,.01-.04,.04-.07,.08-.08Z"/><path class="cls-18" d="M821.23,539.65c1.82-8.03,4.54-15.88,6.91-23.76,4.81-16.06,9.64-32.07,14.5-48.03,2.43-8,4.87-15.99,7.32-23.97,1.25-4.04,2.49-8.08,3.75-12.09s2.64-7.85,3.76-11.82c.46-1.62,.7-.74,.12,1.32-1.17,4.14-2.33,8.29-3.5,12.42-2.38,8.19-4.79,16.36-7.21,24.51-4.81,16.27-9.66,32.52-14.57,48.76-2.44,8.15-4.89,16.32-7.35,24.5-1.25,3.87-2.25,7.82-3.01,11.81-.65,4.18-.81,8.43-.49,12.65,.54,8.49,1.52,16.97,2.33,25.44s1.56,16.98,2.33,25.48c1.56,16.9,3.11,33.8,4.67,50.7,.2,2.14,.39,4.28,.55,6.43,0,.71-1.04,.67-1.17,0-1.83-16.7-3.23-33.47-4.8-50.19-1.56-16.71-3.13-33.3-4.67-49.95-.4-4.19-.84-8.37-.84-12.58,.02-3.91,.48-7.81,1.38-11.62Z"/><path class="cls-18" d="M825.84,407.65c2.87,22.3,6.87,97.26,7.76,132.34,5.31-21.25,20.03-78.84,23.34-91.52,5.52-21.18,9.9-38.01,10.5-40.5h0c.01-.08,.03-.15,.06-.22,0-.02,0-.05,0-.07l-41.67-.03Z"/><path class="cls-18" d="M811.64,438.17c1.33,0,6.16-1.62,7-3.8,.89-2.43,1.54-4.95,1.95-7.5,.44-2.8,.76-5.65,1.03-8.56,0-.14,.11-.09,.11,0,.04,3.25-.14,6.49-.54,9.71-.17,2.59-.74,5.14-1.69,7.55-.98,1.97-6.45,3.34-7.88,2.89-.07,.01-.07-.29,.02-.29Z"/><path class="cls-24" d="M812.75,707.46c2.72,.88,80.18-.13,83.1-2.03,1.17-.7,1.64-11.94,1.86-25.54v-.69s.39-5.68,1-8.61v-1.17l-4.36-39.74-52.13,.53,5.11,39.61,.06,1.56,.32,8.17v.84s-29.45,13.57-32.44,16.01-5.27,10.19-2.52,11.05Z"/><path class="cls-19" d="M812.69,707.47c2.72,.88,80.23-.13,83.16-2.03,1.17-.7,1.64-11.94,1.87-25.54v-.69s.39-5.68,1-8.61v-.91l-51.38,.14,.06,1.56,.32,8.17v.84s-29.51,13.57-32.5,16.01-5.27,10.19-2.52,11.05Z"/><path class="cls-11" d="M812.72,707.68c1.41,.44,22.46,.4,43.04,0,4.13-.08,8.21-.19,12.17-.29,14.68-.4,26.81-.99,27.94-1.73s1.62-11.67,1.84-24.98v-1h-.06l-49.94,.09v.85s-29.49,13.56-32.47,15.99-5.27,10.2-2.52,11.06Z"/><path class="cls-18" d="M814.26,704.22c12.99-.49,65.43-1.23,78.32-.72,.11,0,.11,.08,0,.08-12.84,.77-65.36,1.09-78.3,.85-.28-.01-.28-.21-.01-.21Z"/><path class="cls-18" d="M842.72,679.51c5.1-1.02,11.36-.32,15.31,3.28,.15,.14,0,.35-.21,.3-4.91-1.52-9.96-2.5-15.08-2.94-.18-.03-.3-.19-.27-.37,.02-.13,.12-.24,.25-.27Z"/><path class="cls-18" d="M839.05,681.78c5.1-1.03,11.37-.32,15.31,3.27,.16,.14,0,.36-.21,.3-4.89-1.5-9.92-2.48-15.02-2.93-.18,0-.32-.15-.32-.33,0-.15,.1-.27,.24-.31Z"/><path class="cls-18" d="M835.39,684.05c5.1-1.02,11.37-.32,15.32,3.28,.15,.14,0,.35-.22,.3-4.9-1.52-9.95-2.5-15.07-2.93-.18,0-.33-.13-.34-.31,0-.18,.13-.33,.31-.34Z"/><path class="cls-7" d="M822,407.68s1.09,22.52,6.25,40.36c.41,1.47,.86,2.92,1.34,4.31,0,0-.71-.57,7.48,4.46,0,0-3.16,89.53-3.3,94.88-.47,19.99,14.01,129,14.01,129l55.51,.22s-19.8-123.61-19.69-130.93c.11-11.77,7.1-62.95,4.95-100.89-.93-14.42-4.77-28.51-11.28-41.41h-55.27Z"/><path class="cls-18" d="M849.74,670.37c8.47-.14,6.05-.22,14.52-.27,4.16,0,31.42-.14,35.29,.53,.09,0,.08,.15,0,.16-3.87,.63-31.15,.28-35.29,.22-8.49-.12-6.05-.18-14.52-.4-.07,0-.12-.05-.12-.12s.05-.12,.12-.12Z"/><path class="cls-18" d="M873.95,410.7c7,13.49,9.63,28.85,10.2,43.91,.62,16.34-1.33,32.68-3.06,48.89-1.81,17.08-3.38,34.17-2.08,51.35,1.33,17.34,4.4,34.55,6.89,51.75,2.49,17.2,5.09,34.4,7.24,51.63,.27,2.19,.54,4.37,.79,6.55,0,.12-.15,.16-.18,0-3.05-16.99-5.54-34.09-8.17-51.16-2.63-17.06-5.51-34-7.27-51.11-1.76-17.11-1.02-34.06,.7-51.12,1.65-16.42,3.83-32.83,3.87-49.37,.06-15.37-1.49-31.1-6.93-45.59-.72-1.94-1.52-3.85-2.33-5.75-.07-.26,.18-.27,.33,.01Z"/><path class="cls-18" d="M874.23,438.17c-3.05,0-14.06-1.67-16.73-4.27-1.81-2.01-3.15-4.41-3.91-7-.96-2.8-1.74-5.66-2.33-8.56,0-.14-.25-.09-.25,0-.07,3.28,.34,6.55,1.23,9.71,.74,2.68,1.73,5.67,3.9,7.55s5.37,2.67,8.29,3.03c3.28,.37,6.59,.33,9.85-.14,.09-.01,.15-.1,.14-.19-.01-.09-.1-.15-.19-.14Z"/><path class="cls-18" d="M837.71,442.33v-3.41c0-2.24-.1-4.48-.14-6.72-.1-5.08-.23-10.18-.55-15.25,0-.13-.21-.13-.21,0-.11,2.01-.18,4.03-.21,6.03s-.12,4.03-.15,6.05c0,3.99-.1,7.98,0,11.97,0,1.54,.52,4.38-1.58,4.51-1.67,.11-2.6-1.77-2.86-3.26-.24-1.84-.34-3.71-.3-5.57v-6.08c.05-4.42,.05-8.82,0-13.25,0-.13-.2-.12-.21,0-.52,4.46-.93,8.89-1.03,13.39,0,2.15-.05,4.3,0,6.44-.09,2.04,.08,4.09,.5,6.08,.35,1.57,1.42,2.85,2.84,3.42h-.42s-.08-.11-.08-.06c-.08,.71-.21,1.41-.25,2.12s0,1.41,0,2.11c.01,.72,.09,1.43,.22,2.14,.05,.34,.13,.68,.23,1,.12,.33,.26,.65,.42,.96,.06,.14,.21,.08,.76,0h0v-.34h0c-.48-.2,0-.62,0-.62v-1.03s-.57-1.38-.66-2.07-.12-1.38-.18-2.07-.17-2.11-.17-2.11c0,0,0,.14,0,.06,1.36,.27,2.74-.32,3.47-1.5,.43-.93,.61-1.95,.53-2.97Z"/><path class="cls-18" d="M844.97,461.3c-1.35-1.21-2.79-2.33-4.3-3.34-1.58-1.13-3.23-2.16-4.95-3.08-3.36-1.79-6.86-3.1-10.36-4.58-.11,0-.2,.13-.09,.19,3.37,1.66,6.56,3.76,9.79,5.66,1.59,.95,3.21,1.84,4.83,2.72s3.24,1.89,4.93,2.66c.08,.06,.15-.08,.15-.23Z"/><path class="cls-24" d="M832.28,350.22c-11.96,21.36-37.35,48.39-46.97,47.85-4.59-.27-12.84,.25-18.5-5.46-12.31-12.44-19.63-30.7-24.16-39.68-2.05-4.06,23.12-21.01,26.07-17.1,6.92,9.08,14.48,26.46,15.83,26.46,4.96,0,25.16-15.04,39.68-25.06,16.27-11.24,12.82,4.48,8.04,12.99Z"/><path class="cls-24" d="M746.21,357.42c-2.58-2.82-13.27-16.84-15.37-21.42s-7.19-18.15-3.85-20.11,5.15,1.89,5.15,1.89c0,0-1.25-6.07,2.33-7.74s6.15,4.42,6.15,4.42c0,0-.82-6.34,2.82-7.75s5.25,5.15,5.25,5.15c0,0-1.02-5.75,2.47-5.65,4.2,.12,4.89,10.94,7.59,15.8,.61,1.11,14.01,21.52,14.01,21.52l-26.55,13.88Z"/><path class="cls-18" d="M748.5,311.31c.51,7.96,2.12,11.36,6.73,17.71,.03,.06,0,.14-.06,.17-.04,.02-.09,.02-.13,0-5.08-5.84-7.7-9.77-6.94-17.86,.05-.43,.36-.43,.4-.01Z"/><path class="cls-18" d="M740.54,313.83c1.26,8.17,2.96,11.92,7.31,18.92,.07,.11-.09,.21-.16,.12-4.84-6.51-7.36-10.5-7.55-18.91-.01-.37,.35-.5,.41-.13Z"/><path class="cls-18" d="M732.35,318.14c1.8,7.87,3.5,12,8.59,18.27,.04,.07,.02,.17-.05,.21-.05,.03-.12,.03-.17,0-5.84-5.84-7.96-11.02-8.6-18.38-.04-.5,.13-.57,.23-.08Z"/><path class="cls-4" d="M745.31,302.98l22.86,33.99c.49,.54,.45,1.39-.09,1.88-.17,.16-.38,.26-.61,.31l-18.21,4.86c-1.13,.22-2.29-.23-2.98-1.17l-22.88-34c-.49-.54-.46-1.37,.08-1.86,.17-.16,.39-.27,.62-.32l18.18-4.86c1.15-.24,2.32,.22,3.01,1.17Z"/><path class="cls-18" d="M743.43,301.47l-18.18,4.84c-.71,.15-1.17,.85-1.02,1.56,.05,.24,.16,.46,.33,.63l22.86,33.99c.68,.94,1.85,1.4,2.99,1.17l18.18-4.76c.72-.16,1.17-.87,1.02-1.58-.05-.23-.16-.44-.31-.61l-22.86-33.99c-.66-.98-1.84-1.47-3-1.25Zm24,34.45c.61,.9,.35,1.82-.56,2.05l-16.27,4.34c-1.06,.18-2.13-.27-2.73-1.17l-21.29-31.66c-1.23-1.82-.55-2.11,.36-2.33l3.27-.86c.26-.01,.5,.12,.63,.35l.07,.11c.39,.56,.72,.47,1.17,.36l7.54-2.01c.42-.12,.76-.21,.39-.77l-.07-.11c-.16-.25-.15-.48,0-.54l3.26-.86c.91-.25,1.81-.2,2.93,1.47l21.31,31.63Z"/><line class="cls-20" x1="746.52" y1="339.13" x2="746.46" y2="339.15"/><path class="cls-1" d="M746.14,304.27l21.3,31.65c.61,.9,.35,1.82-.56,2.05l-16.27,4.34c-1.06,.18-2.13-.27-2.73-1.17l-21.3-31.66c-1.23-1.82-.55-2.11,.36-2.33l3.27-.86c.26-.01,.5,.12,.63,.35l.07,.11c.39,.56,.72,.47,1.17,.36l7.54-2.01c.42-.12,.76-.21,.39-.77l-.07-.11c-.16-.25-.15-.48,0-.54l3.26-.86c.93-.27,1.83-.22,2.95,1.45Z"/><path class="cls-11" d="M746.14,304.27l1.9,2.81-19.56,5.22-1.9-2.81c-1.23-1.82-.55-2.11,.36-2.33l3.27-.86c.26-.01,.5,.12,.63,.35l.07,.11c.39,.56,.72,.47,1.17,.36l7.54-2.01c.42-.12,.76-.21,.39-.77l-.07-.11c-.16-.25-.15-.48,0-.54l3.26-.86c.93-.27,1.83-.22,2.95,1.45Z"/><g id="freepik--u5zjqx--inject-5"><path class="cls-1" d="M730.11,306.64h0c-.12-.05-.26-.05-.39,0-.11,.02-.19,.1-.22,.2h0s0-.05,0-.08l.11-.07h.43l.07-.05Z"/><path class="cls-1" d="M729.28,307.68h-.07c.02-.07,.07-.12,.14-.14,.11-.05,.25-.05,.36,0v.06c-.08-.03-.17-.03-.26,0-.07,0-.13,.03-.18,.08Z"/><path class="cls-1" d="M730.04,307.68h0s-.09-.02-.13,0c-.03,0-.06,0-.08,0h-.08s.15-.08,.29,0Z"/><path class="cls-1" d="M729.71,307.63v.06c0,.06-.06,0-.07,0s0,0,0,0c0,0,.06-.07,.07-.06Z"/></g><path class="cls-1" d="M727.09,308.03c-.03-.05-.01-.11,.04-.14,0,0,.01,0,.02,0,.08,0,.16,.02,.21,.08,0,.07,0,.14-.06,.15-.08,.02-.16-.01-.21-.08Z"/><path class="cls-1" d="M727.51,307.92c0-.07,0-.14,.06-.15,.08-.02,.16,.01,.21,.08,.04,.03,.05,.09,.02,.13,0,0-.01,.02-.02,.02-.1,.04-.21,0-.27-.08Z"/><path class="cls-1" d="M727.92,307.82c0-.07,0-.14,.06-.15,.08-.02,.16,.01,.21,.08,.03,.05,.01,.11-.04,.14,0,0-.01,0-.02,0-.08,0-.16-.02-.21-.08Z"/><path class="cls-1" d="M728.32,307.7s-.03-.1,.01-.13c.01-.01,.03-.02,.05-.02,.08,0,.16,.02,.21,.08,0,.07,0,.14-.06,.15-.08,.02-.16-.01-.21-.08Z"/><path class="cls-1" d="M728.71,307.6v-.15c.08-.02,.16,.01,.21,.08,.03,.04,.03,.1-.01,.13-.01,.01-.03,.02-.05,.02-.06,0-.11-.04-.15-.08Z"/><path class="cls-1" d="M744.09,303.8l-1.05,.28-.3-.44,1.06-.28,.29,.44Zm-1.03,.22l.95-.26-.23-.35-.95,.26,.23,.35Z"/><polygon class="cls-1" points="743.57 303.51 742.88 303.69 743.08 303.99 743.75 303.8 743.57 303.51"/><polygon class="cls-1" points="744.13 303.68 744.02 303.7 743.87 303.47 743.96 303.44 744.13 303.68"/><polygon class="cls-1" points="729.62 310.77 728.71 310.43 728.97 309.78 729.11 309.85 728.91 310.38 729.65 310.66 729.62 310.77"/><path class="cls-1" d="M745.27,306.33l-.98,.27-.84-.91h.26v1h-.2l.16-.84,1.35-.36,.25,.84Zm-.97,.18l.85-.23-.23-.69-1.17,.33,.55,.6Z"/><polygon class="cls-1" points="745.2 306.51 745.04 306.38 744.49 306.54 744.54 306.7 744.44 306.69 744.38 306.48 745.05 306.3 745.26 306.47 745.2 306.51"/><polygon class="cls-1" points="745.03 305.75 743.81 306.08 743.77 306 744.98 305.68 745.03 305.75"/><polygon class="cls-1" points="745.11 305.96 744 306.24 743.95 306.17 745.05 305.88 745.11 305.96"/><polygon class="cls-1" points="745.18 306.16 744.17 306.43 744.13 306.35 745.12 306.09 745.18 306.16"/><polygon class="cls-1" points="744.79 306.42 744.71 306.44 744.23 305.72 744.31 305.7 744.79 306.42"/><polygon class="cls-1" points="744.94 306.37 744.86 306.4 744.44 305.66 744.52 305.65 744.94 306.37"/><polygon class="cls-1" points="745.11 306.43 745.01 306.44 744.68 305.68 744.77 305.68 745.11 306.43"/><polygon class="cls-1" points="744.56 306.48 744.02 305.78 744.09 305.75 744.64 306.45 744.56 306.48"/><polygon class="cls-1" points="744.41 306.52 743.79 305.85 743.86 305.81 744.48 306.49 744.41 306.52"/><path class="cls-1" d="M745.32,306.62c-.08,.01-.16-.02-.21-.09-.04-.03-.05-.09-.02-.13,0,0,.01-.02,.02-.02,.08-.02,.16,.02,.21,.08,.05,.04,.05,.1,.02,.15,0,0,0,.01-.02,.02Zm-.12-.18h0s.06,.02,.08,0h0s-.06-.01-.08,0Z"/><path class="cls-1" d="M744.59,306.82c-.09,.01-.17-.02-.22-.09-.04-.04-.04-.11,0-.15,0,0,0,0,0,0,.08-.01,.16,.02,.21,.08,.05,.03,.06,.1,.03,.15,0,0,0,.01-.01,.02Zm-.12-.16h0m.07,.03h0s-.07-.02-.09,0h.09Z"/><path class="cls-7" d="M745.14,305.19c.12,.19,0,.37-.14,.42-.22,.05-.44-.04-.57-.22-.12-.19-.06-.37,.14-.42,.22-.05,.44,.04,.57,.22Z"/><path class="cls-1" d="M744.71,305.68h0v0h0Z"/><path class="cls-1" d="M736.1,308.06c-.08-.1-.06-.25,.04-.33,.03-.02,.06-.04,.09-.05,.08-.02,.16-.02,.23,0h.06s-.05,.01-.07,0c-.05-.02-.11-.02-.16,0-.05,.01-.09,.05-.12,.09-.02,.05-.02,.11,0,.16,.04,.05,.1,.09,.16,.12,.06,.02,.13,.02,.19,0,.05,0,.09-.04,.12-.08,.02-.01,.05-.01,.07,0v.07c-.04,.06-.1,.1-.16,.12-.16,.04-.32,0-.44-.11Z"/><path class="cls-1" d="M737.22,308.68h-.51v-.25h0c.27,.01,.25,.01,.23,0l-.12-.51h0s.05-.01,.07,0l-.18,.41v.07h0l.51,.28Zm-.33-.43l-.18-.15v.19l.18-.04Z"/><path class="cls-1" d="M736.71,308.22v.06h0l1.11-.59h-.34l.12,.67h0s-.06,0-.08,0l.19-.46v-.22h-.34c.11,.13,.23,.18,.29,.27,.02,.04,.02,.1,0,.14h0s.06,.05,.08,.08h0l-1.03,.04Zm.87-.53c-.04,.23-.1,.23-.14,0h-.11l.11,1h.11c0-.59,.05-.7,.05-1h-.01Z"/><path class="cls-1" d="M737.71,307.68h.29l.28,.42h0s-.05,.01-.07,0l-.28-.42h-.22m0,0h0l.37-.09m.07,0s0,.08-.02,.09l.02-.09Z"/><path class="cls-1" d="M735.96,305.05l-2.05,.55c-.08,0-.15-.02-.2-.08h0v-.15l2.05-.55c.08-.02,.16,.01,.21,.08h0s.04,.11,0,.15c0,0,0,0,0,0Z"/><polygon class="cls-19" points="749.68 309.53 730.12 314.75 728.48 312.3 748.04 307.08 749.68 309.53"/><polygon class="cls-19" points="756.92 320.3 737.36 325.51 735.71 323.06 755.27 317.86 756.92 320.3"/><polygon class="cls-19" points="760.02 324.91 740.45 330.12 740.03 329.48 759.59 324.26 760.02 324.91"/><polygon class="cls-19" points="741.97 319.12 736.31 320.62 732.85 315.49 738.51 313.98 741.97 319.12"/><path class="cls-4" d="M737.1,315.4l-.23,.07-.21-.32c-.13-.02-.27-.02-.4,0-.08,.05-.16,.13-.21,.21l.21,.32h-.25l-.23-.36c-.11-.15,.26-.42,.33-.44s.65,0,.76,.15l.23,.37Z"/><path class="cls-11" d="M740.35,318.99l-3.06,.81s-.72-1.06-1.11-1.73-.89-1.87,.28-2.18,2.18,.75,2.68,1.39,1.2,1.72,1.2,1.72Z"/><polygon class="cls-16" points="739.8 318.85 737.51 319.46 736.69 318.24 738.99 317.63 739.8 318.85"/><polygon class="cls-11" points="739.23 317.99 736.93 318.59 736.9 318.55 739.19 317.94 739.23 317.99"/><polygon class="cls-9" points="737.45 316.75 737.31 317.16 736.76 316.93 736.89 316.53 737.45 316.75"/><path d="M731.08,312.69h0l.34,.5h0l-.34-.5Z"/><path d="M731.58,312.68h-.06l.19,.28h0s-.08,.02-.12,0l-.19-.28h0l-.09-.14h0l.09,.14h0s.18-.01,.18,0Z"/><path d="M731.84,312.87c-.06-.05-.07-.14-.02-.2,.02-.03,.05-.04,.09-.05,.12-.01,.25,.03,.33,.13h0l-.34,.09c.06,.08,.16,.12,.26,.11,.05,0,.09-.05,.09-.11h0c0,.06-.05,.11-.12,.13-.11,.02-.22-.02-.29-.11Zm0,0l.32-.08c-.06-.07-.15-.1-.25-.08-.06-.02-.08,.05-.05,.13l-.02,.04Z"/><path d="M732.92,312.53c-.05-.07-.13-.1-.21-.08-.07,0-.09,.08-.06,.15l.14,.21h0l-.14-.21c-.05-.07-.13-.1-.21-.08-.07,0-.09,.08-.06,.15l.14,.21h0l-.14-.21h0l-.09-.13h0s0-.07,.09-.08c.06-.03,.14-.03,.2,0,0-.06,.05-.11,.11-.12,.1-.03,.21,.02,.27,.11l.14,.21h0l-.18-.13Z"/><path d="M733.25,312.63h0c.05,.01,.11,.01,.16,0,.02,.01,.05,.01,.07,0h0s-.05,0-.07-.94h-.22l-.09,.88s-.02-.07,0,.12h.23c-.04-.22-.09-.22-.13,0h.04c.04-.21,.09-.21,.13-.21,.04,.01,.07,.04,.09,.07m0,.14s-.06,.01-.08,0c-.06,.02-.13,.02-.19,0h.27Z"/><path d="M733.68,312.06h0Zm.09,.13h0l.23,.34h0l-.23-.34Z"/><path d="M734.41,312.15c-.05-.07-.13-.1-.21-.08-.04,.03-.05,.09-.02,.13,0,0,.01,.02,.02,.02l.14,.21h0l-.14-.21h0l-.09-.13h0s.05-.07,.09-.08c.11-.02,.21,.02,.28,.11l.14,.21h0l-.21-.18Z"/><path d="M734.88,311.94c-.05-.07-.04-.17,.03-.23,.02-.01,.04-.02,.06-.03,.05-.02,.1-.02,.15,0h-.13c-.07,.02-.12,.1-.1,.17,0,.01,0,.03,.02,.04,.07,.08,.17,.12,.28,.11,.03,0,.06,0,.09,0h0s-.06,.06-.11,.07c-.12,.01-.23-.04-.3-.13Z"/><path d="M735.64,311.66l.23,.34h0s0,.09-.11,.12c-.13,.02-.25-.04-.33-.14-.07-.11,0-.22,.07-.25,.07-.03,.14-.03,.21,0h0l-.08-.07Zm.07,.19c-.05-.09-.16-.14-.26-.12-.08,0-.12,.11-.06,.2,.06,.08,.17,.13,.27,.11,.08,.02,.11-.11,.05-.19h0Z"/><path d="M735.82,311.61h0l.06,.08h0c0-.07,.04-.12,.11-.14h0c-.06,0-.07,0-.08,.09,0,.03,0,.06,0,.09h0l.12,.16h0l-.2-.29Z"/><path d="M736.34,311.68h-.06l.19,.28h0s-.09,.02-.13,0l-.19-.28h0l-.09-.14h0l.09,.14h.19Z"/><path d="M740.07,326.47h0l.3-.08h0l-.28,.08,.14,.21h.26l-.26,.07,.15,.21,.28-.08h0l-.32,.08h0l-.28-.49Z"/><path d="M741.09,327.01c-.05-.07-.13-.1-.21-.09-.04,.03-.05,.09-.02,.13,0,0,.01,.02,.02,.02l.14,.21h0l-.14-.21h0l-.09-.13h0s0-.08,.09-.09c.11-.02,.21,.02,.27,.12l.14,.2h0l-.2-.15Z"/><path d="M741.35,326.68h0l.19,.27h0s-.08,.02-.12,0l-.19-.27h-.02l-.09-.14h0l.09,.14h.14Z"/><path d="M741.59,326.9c-.05-.06-.05-.16,.02-.21,.02-.02,.04-.03,.06-.03,.12-.03,.25,.02,.32,.13h0l-.35,.09c.06,.08,.17,.12,.27,.11,.05-.02,.08-.06,.08-.12h0c0,.07-.04,.12-.11,.14-.11,.01-.22-.03-.29-.11Zm0,0l.33-.08c-.06-.07-.15-.1-.25-.08-.04,.02-.06,.07-.06,.12l-.02,.05Z"/><path d="M742.02,326.59h0l.06,.08h0c0-.07,.04-.12,.11-.14h0c-.06,0-.07,0-.08,.09,0,.03,0,.07,0,.11h0l.12,.18h0l-.2-.32Z"/><path d="M742.77,326.6h0l-.11-.16h0c0-.06,.05-.11,.11-.12,.13-.02,.25,.04,.33,.14,.07,.11,0,.21-.07,.25-.07,.02-.14,.02-.21,0l.14,.22h0l-.19-.33Zm0,.09c.06,.09,.16,.13,.27,.12,.07-.02,.1-.1,.08-.16,0-.01-.01-.02-.02-.03-.06-.09-.16-.13-.27-.12-.05,.05-.06,.13-.02,.18,0,0,.01,.01,.02,.02h-.06Z"/><path d="M743.22,326.27h0l.06,.08h0c0-.07,.04-.13,.11-.14h0s-.07,0-.08,.09c0,.03,0,.07,0,.11h0l.12,.16h0l-.2-.3Z"/><path d="M743.74,326.06c.12-.02,.25,.03,.33,.13,.07,.11,0,.22-.07,.25-.12,.02-.25-.03-.33-.13-.07-.06-.04-.18,.07-.25Zm-.03,.34c.08,0,.12-.11,0-.2-.06-.08-.17-.13-.27-.11-.08,0-.11,.11,0,.2,.05,.1,.16,.17,.27,.15v-.05Z"/><path d="M744.82,326.06c-.05-.07-.14-.1-.22-.08-.07,0-.09,.08,0,.15l.14,.21h0l-.14-.21c-.05-.07-.13-.1-.21-.08-.08,0-.09,.08-.06,.15l.14,.21h0l-.14-.21h0l-.09-.13h0s0-.07,.09-.08c.06-.03,.14-.03,.2,0,0-.06,.04-.11,.09-.12,.11-.02,.21,.02,.28,.11l.14,.21h0l-.22-.13Z"/><path d="M745.1,325.75c.13-.02,.26,.03,.34,.13,0,.11,0,.22-.08,.25-.12,.02-.25-.03-.33-.13-.07-.11-.04-.22,.07-.25Zm.62,.34c.09,0,.12-.11,.06-.2-.06-.08-.16-.12-.26-.11-.09,0-.12,.11,0,.2,.05,.05,.12,.08,.2,.08v.02Z"/><path d="M745.82,325.94c-.06-.06-.06-.16,0-.21,.02-.02,.05-.04,.08-.04,.05-.02,.11-.02,.16,0h-.14c-.07,.01-.11,.08-.1,.15,0,.02,.01,.04,.03,.06,.07,.08,.17,.12,.28,.11,.03,0,.06,0,.08,0h0l-.11,.07c-.11,.01-.22-.04-.29-.13Z"/><path d="M746.38,325.41c.12-.03,.25,.02,.33,.13,.07,.11,0,.22-.07,.25-.13,.03-.26-.03-.33-.14-.07-.09-.05-.21,.07-.23Zm.22,.34c.09,0,.12-.11,0-.2-.06-.08-.16-.12-.26-.11-.09,0-.12,.11-.06,.2,.07,.11,.2,.15,.32,.11Z"/><path d="M747.28,325.52c0,.06-.06,.11-.12,.12-.13,.02-.26-.03-.33-.14-.06-.06-.05-.16,.01-.21,.02-.01,.04-.02,.06-.03,.07-.02,.14-.02,.21,0l-.14-.22h0l.22,.33h0l.12,.18h-.04Zm-.07-.12h0c-.06-.08-.17-.13-.27-.11-.08,0-.11,.11,0,.19,.05,.09,.16,.14,.26,.12,.06-.03,.08-.1,.05-.16,0-.02-.02-.03-.04-.04Z"/><path d="M747.38,325.36c-.05-.06-.05-.16,.02-.21,.02-.02,.04-.03,.06-.03,.12-.03,.24,.02,.32,.12h0l-.35,.08c.06,.08,.17,.13,.27,.11,.05-.01,.08-.06,.08-.11h0c0,.06-.04,.12-.11,.13-.1,.02-.21,0-.29-.08Zm0,0l.33-.08c-.06-.07-.15-.1-.25-.08-.04,.02-.06,.07-.06,.12l-.02,.05Z"/><path class="cls-9" d="M746.71,337.14l-.03-.45h.14c.03-.1,.07-.1,.11-.08,.03,.01,.06,.03,.08,.06h0s0,.03,0,.03h.09s.07,.16,.09,.2h0c.03,.07,0,.15-.06,.19,0,0-.02,0-.03,.62h-.39v-.55Zm.28-.45h-.16l.12,1h.16c.07-.63,.11-.7,.09-.76,0,0,0-.01,0-.02h0c-.03-.07-.11-.11-.19-.22h-.01Zm-.18,0h.12c.06,.11,.09,.06,.08,0,0,0,0-.02,0-.03h0c-.03-.06-.09-.08-.15,1.03h-.13l.09-1Z"/><path class="cls-9" d="M747.71,336.57l-1,.22v.14c.96,.08,.93,.18,.85,.22-.01,0-.02,.01-.03,.01h0c.08-.02,.13-.1,.11-.18,0,0,0-.02-.93-.03v-.06c.91,.06,.87,.1,.81,.12-.04,.02-.09,.02-.13,0-.04-.01-.07-.04-.09-.07h0l-.09-.22h0l.09,.22h0c.05,.06,.12,.09,.2,.07,.07-.02,.11-.09,.09-.16,0,0,0-.01,0-.02l.13-.12v-.11h0v-.05Z"/><path class="cls-9" d="M748.1,336.68h-.07l.14,.32m.06-.26h0s-.07,.02-.09,0l-.14-1.06h0l-.08,.6h0l.07,.4h.07l.18,.06Z"/><path class="cls-9" d="M748.43,336.69s-.08-.06-.12-.09h0c-.05-.08-.03-.18,.05-.23,.01,0,.03-.02,.04-.02,.05-.02,.1-.02,.15,.33h.15v-.42h0v.18s1,.19,1,.19h0v-.09c-.91,.07-.95,.13-1.02,.15-.08,.05-.18,.06-.26,.01Zm.28-.11c.05,.08,.14,.12,.23,.09,.09,0,.13-.12,.08-.22s0,0,0,0c-.05-.08-.14-.11-.23-.09h0c-.07,.02-.12,.1-.1,.17,0,.01,0,.03,.02,.04h0Z"/><path class="cls-9" d="M748.71,336.24v.08c.01-.07,.06-.12,.13-.14,.05-.02,.1-.02,.15,0,.05,.02,.09,.05,.12,.09h0c.05,.08,.02,.18-.05,.22-.02,0-.03,.02-.05,.02-.05,.01-.09,.01-.14,0-.03-.01-.06-.03-.08-.06l.13,.28h0l-.16-.36h0l-.08-.18h0l.05,.03Zm.14,.18h0c.05,.07,.14,.11,.23,.09,.08-.02,.13-.1,.11-.19,0-.01,0-.03-.01-.04h0c-.05-.07-.14-.11-.23-.09h0c-.08,.02-.13,.1-.11,.19,0,.01,0,.03,.01,.04Z"/><path class="cls-9" d="M749.71,336.4v.08c0-.07,.06-.13,.13-.14,.04-.02,.1-.02,.14,0,.05,.02,.1,.05,.13,.09h0c.04,.09,0,.19-.08,.23,0,0-.02,0-.03,.01-.05,.02-.1,.02-.15,0h-.07l.12,.28h0l-.15-.36h0l-.09-.18h0s.06-.04,.06-.02Zm-.35,.28h0c.05,.07,.14,.11,.23,.09,.08-.02,.13-.1,.11-.19,0-.01,0-.03-.01-.04h0c-.05-.07-.14-.11-.23-.09h0c-.08,.02-.14,.09-.12,.18,0,.02,0,.03,.02,.04h.01Z"/><path class="cls-9" d="M749.92,336.33l-.16-.36h0l.16,.36h0Zm-.2-.46h0Z"/><path class="cls-9" d="M750.05,335.97h0c-.04-.06-.12-.09-.19-.07-.06,.01-.11,.07-.1,.13,0,.01,0,.03,.02,.04l.09,.22h0l-.09-.22h0l-.07-.15h0v.07c0-.06,.06-.11,.12-.12,.04-.01,.08-.01,.12,0,.04,.01,.08,.04,.11,.08h0l.11,.22h0l-.11-.21Z"/><path class="cls-9" d="M750.87,336.27h0c.09-.03,.13-.12,.11-.2,0,0,0,0-.27,0v-.08c.27,.07,.22,.13,.15,.14-.04,.02-.1,.02-.14,0-.05-.01-.09-.05-.12-.09h0c-.04-.09,0-.19,.08-.23,0,0,.02,0,.03-.01,.05-.01,.09-.01,.14-.1h.86s-.7,.19-.7,.19h0l.08,.16c.05,.07,.04,.17-.03,.23-.06,.04-.13,.04-.19,0Zm0-.59h0c-.04-.08-.14-.12-.22-.09h0c-.08,.02-.13,.1-.11,.19,0,.01,0,.03,.01,.04h0c.05,.07,.14,.11,.23,.09,.08-.02,.13-.1,.11-.19,0-.01,0-.03-.01-.04h-.01Z"/><path class="cls-9" d="M751.36,334.68h-.07l.14,1.16s.04,.01,.06,0h0s-.06,.02-.09,0l-.14-.16h-.07l-.07-.32h0l.07,.32h.07l.11-1Z"/><path class="cls-9" d="M751.6,335.64l-.14-.32h0l.11,.23c0-.06,.05-.11,.11-.12,.04-.02,.09-.02,.13,0,.04,.01,.07,.04,.09,.07h0l.11,.22h0l-.11-.22h0c-.04-.06-.11-.09-.19-.08-.07,.02-.11,.09-.09,.16,0,.01,0,.02,.01,.03l.11,.22h0l-.13-.2Z"/><path class="cls-9" d="M752.05,335.56c-.05-.08-.02-.18,.05-.22,.02,0,.03-.02,.05-.02,.05-.02,.09-.02,.14,0,.05,.02,.09,.05,.13,.09h0l-.36,.11h0c.05,.07,.14,.11,.23,.09,.05-.02,.1-.06,.12-.12h0c-.01,.06-.06,.12-.13,.13-.05,.02-.1,.02-.15,0-.05-.02-.09-.05-.12-.09l.04,.04Zm0,0l.34-.09h0c-.05-.08-.14-.11-.23-.09-.07,.02-.11,.09-.09,.16v.02Z"/><path class="cls-9" d="M752.76,335.68c-.04-.09,0-.19,.09-.23,.01,0,.03-.01,.04-.01,.05-.02,.1-.02,.15,0h0s-.09-.01-.13,0c-.09,.03-.15,.12-.12,.21,0,0,0,.01,0,.02h0c.05,.08,.15,.12,.25,.09,.04,0,.08-.03,.11-.07h0s-.07,.07-.12,.08c-.05,.02-.1,.02-.15,0-.05-.02-.1-.05-.13-.09h.01Z"/><path class="cls-9" d="M753.27,334.88l-.15-.32h0l.11,.23c0-.06,.05-.1,.11-.12h.13s.08,.05,.11,.08h0l.11,.22h0l-.11-.22h0c-.04-.06-.11-.1-.19-.08-.07,.02-.11,.09-.09,.16,0,.01,0,.02,.01,.03l.09,.22h0l-.12-.21Z"/><path class="cls-9" d="M753.71,335.12c-.04-.09,0-.19,.08-.23,0,0,.02,0,.03-.01,.05-.02,.1-.02,.15,0,.05,.02,.09,.05,.12,.09h0l-.36,.11h0c.05,.08,.14,.11,.23,.09,.06-.02,.1-.07,.11-.13h0c0,.06-.05,.11-.12,.13-.05,.02-.1,.02-.15,0-.05-.01-.09-.05-.12-.09l.04,.05Zm0,0l.35-.09h0c-.05-.08-.15-.12-.25-.09-.07,.03-.1,.09-.09,.16v.02Z"/><path class="cls-9" d="M754.2,334.68c-.04-.09,0-.19,.09-.23,.01,0,.03-.01,.04-.01,.05-.02,.1-.02,.15,0h0s-.09-.01-.13,0c-.09,.03-.15,.12-.12,.21,0,0,0,.01,0,.02h0c.05,.08,.15,.12,.25,.09,.04,0,.08-.03,.11-.07h0s-.07,.07-.12,.08c-.05,.02-.1,.02-.15,0-.05-.02-.09-.05-.13-.09h.01Z"/><path class="cls-9" d="M754.86,334.59l-.09,.21,.26,.15h0l-.26-.14-.06,.12h0v.09h0l-.25-.54h0l.19,.41,.15-.33h0l.06,.02Z"/><path class="cls-9" d="M755.47,334.68h0c.04,.09,0,.19-.08,.23,0,0-.02,0-.03,.01-.05,.02-.1,.02-.15,0-.04-.02-.08-.06-.12-.09h0c-.05-.08-.03-.18,.05-.23,.01,0,.03-.02,.04-.02,.05-.02,.1-.02,.15,0,.05,.02,.09,.05,.12,.09h.01Zm0,0c-.05-.08-.13-.12-.22-.11h0c-.08,.02-.13,.1-.12,.18,0,.02,.01,.04,.02,.05h0c.05,.08,.14,.12,.23,.11,.09-.03,.13-.12,.11-.21,0,0,0-.02-.01-.03h-.01Z"/><path class="cls-9" d="M755.82,334.26l.11,.22c.03,.07,0,.15-.06,.19,0,0-.02,0-.03,.01h-.13s-.07-.05-.09-.08h0l-.11-.22h0l.11,.22h0c.04,.06,.12,.08,.19,.07,.07-.02,.11-.09,.09-.16,0,0,0-.01,0-.02l-.11-.22h.05Z"/><path class="cls-9" d="M756.11,334.68h-.07l.14,.32m.07-.45h0s-.07,.02-.09,0l-.14-.86h-.01l-.07,.41h0l.08,.59h.06l.18-.14Z"/><path class="cls-9" d="M756.79,334.68l-.08-.36-.16-.36h0l.12,.27c0-.07,.06-.14,.13-.15,.05-.02,.1-.02,.15,0,.05,.01,.09,.05,.12,.09h0c.04,.09,0,.19-.08,.23-.01,0-.02,0-.03,.01-.05,.02-.09,.02-.14-.73h-.09v1h.08Zm-.06-.36h0c.05,.08,.14,.11,.23,.09,.08-.02,.14-.09,.12-.18,0-.02,0-.03-.02-.04h0c-.05-.07-.14-.11-.23-.09h0c-.09,.02-.14,.12-.11,.2,0,0,0,.01,0,.02h0Z"/><path class="cls-9" d="M757.43,333.92l.11,.22c.03,.08,0,.17-.09,.2,0,0,0,0,0,0-.04,.02-.09,.02-.13,0-.04-.02-.07-.05-.09-.08h0l-.09-.22h0l.09,.22h0c.04,.06,.12,.09,.19,.07,.07-.02,.11-.09,.09-.16,0,0,0-.01,0-.02l-.11-.22h.05Z"/><path class="cls-9" d="M757.75,333.68h-.07l.14,.45s.04,.01,.06,0h0s-.07,.02-.09,0l-.14,.55h0l-.07-1.03h0l.07,.03h.11Z"/><path class="cls-9" d="M758.03,333.68h-.07l.14,.32m.06,.08h0s-.07,.02-.09,0l-.14-.4h0l-.07-.06h0l.07,1.06h.07l.16-.6Z"/><path class="cls-9" d="M758.6,333.81h0c.04,.09,0,.19-.08,.23,0,0-.02,0-.03,.01-.05,.01-.1,.01-.15,0-.05-.03-.09-.06-.12-.11h0c0-.12,0-.22,.09-.25,.05-.02,.1-.02,.15,0,.05,.01,.09,.05,.12,.09h.01Zm0-.11c-.05-.07-.14-.11-.22-.09h0c-.08,.03-.12,.11-.1,.19,0,.01,0,.02,.01,.03h0c.05,.08,.14,.11,.23,.09,.08-.02,.13-.1,.11-.19,0-.01,0-.03-.01-.04h-.02Z"/><path class="cls-9" d="M759.05,333.65h0c-.04-.06-.12-.09-.19-.07-.07,.01-.11,.08-.1,.15,0,0,0,.02,0,.02l.11,.22h0l-.09-.22h0l-.07-.14h0v.07c.01-.06,.06-.1,.12-.12,.04-.01,.08-.01,.12,0,.04,.01,.08,.04,.11,.08h0l.11,.22h0l-.11-.22Z"/><path class="cls-9" d="M759.77,333.31l.09,.22,.07,.14c.04,.08,0,.18-.07,.22-.01,0-.03,.01-.04-.21h-.09c.03,.23,.06,.23,.08,.22,.08-.02,.13-.1,.11-.18,0,0,0-.02-.21-.03v-.06c.19,.06,.15,.1,.09,.12-.04,.02-.09,.02-.13,0-.04-.01-.08-.04-.11-.07h0l-.09-.22h0l.11,.22h0c.04,.06,.11,.09,.19,.08,.07-.02,.11-.09,.09-.16,0-.01,0-.02,.85-.03v-.22h0l-.94-.05Z"/><path class="cls-9" d="M760.34,333.68h0c.04,.09,0,.19-.08,.23,0,0-.02,0-.03,.01-.05,.02-.1,.02-.15,0-.04-.02-.08-.06-.12-.09h0c-.05-.08-.03-.18,.05-.23,.01,0,.03-.02,.04-.02,.05-.02,.1-.02,.15,0,.05,.01,.09,.05,.12,.09h.01Zm0-.33c-.04-.08-.13-.13-.22-.11h0c-.08,.03-.12,.11-.1,.19,0,.01,0,.02,.01,.03h0c.05,.08,.14,.11,.23,.09,.08-.02,.13-.1,.11-.19,0-.01,0-.03-.01-.04h-.02Z"/><path class="cls-9" d="M760.69,333.06l.11,.22c.03,.07,0,.15-.06,.19,0,0-.02,0-.03,.01-.04,.01-.09,.01-.13,0-.04-.02-.07-.05-.09-.08h0l-.11-.22h0l.11,.22h0c.04,.06,.11,.1,.19,.08,.07-.02,.11-.09,.09-.16,0,0,0-.01,0-.02l-.11-.22h0l.05-.02Z"/><path class="cls-9" d="M761.3,333.26s-.08-.06-.12-.09h0c-.05-.08-.03-.18,.05-.23,.01,0,.03-.02,.04-.02,.05-.02,.1-.02,.15-.24h-.71v.15h0l.87,.18,.13,.19h0v-.09c-.04,.07-.09,.13-.16,.15-.08,.05-.18,.06-.26,.01Zm-.09-.11c.05,.08,.14,.12,.23,.09,.08-.02,.13-.11,.1-.19,0,0,0-.01,0-.02h0c-.05-.08-.14-.12-.23-.09h0c-.09,0-.13,.12-.08,.22h-.01Z"/><path class="cls-9" d="M762.03,333.3h0c.08-.02,.12-.09,.11-.17,0-.02-.02-.05-.43-.07v-.08c.39,.07,.34,.13,.27,.15-.05,.01-.1,.01-.15,0-.05-.03-.09-.06-.12-.11h0c-.05-.08-.03-.18,.05-.23,.01,0,.03-.02,.04-.02,.05-.02,.1-.02,.15-.1h.75s-.59,.18-.59,.18h0l.07,.18c.07,.05,.09,.14,.05,.21-.05,.07-.14,.09-.21,.05Zm0-.61h0c-.05-.07-.14-.11-.23-.09h0c-.08,.03-.12,.11-.1,.19,0,.01,0,.02,.01,.03h0c.05,.07,.14,.11,.23,.09,.09,0,.16-.07,.16-.16,0-.02,0-.04-.01-.06h-.07Z"/><path class="cls-9" d="M762.65,332.67l.06,.13v-.06c.01-.06,.06-.12,.12-.14h0c-.11,0-.12,.14-.12,.2h0l.08,.18h0l-.16-.37h0l.02,.07Z"/><path class="cls-9" d="M762.52,332.77c-.05-.08-.02-.18,.06-.22,.02-.01,.04-.02,.06-.02,.05-.02,.09-.02,.14,0,.05,.02,.1,.05,.13,.09h0l-.36,.09h0c.05,.08,.14,.12,.23,.09,.06-.01,.1-.06,.11-.12h0c-.02,.06-.07,.11-.13,.13-.05,.02-.1,.02-.15,0-.05-.02-.09-.05-.12-.09l.04,.05Zm0,0l.34-.09h0c-.05-.08-.14-.12-.23-.11-.07,.03-.1,.1-.08,.18l-.02,.02Z"/><path class="cls-9" d="M763.04,332.63c-.04-.09,0-.19,.08-.23,0,0,.02,0,.03-.01,.05-.01,.1-.01,.15,0,.05,.03,.09,.06,.12,.11h0l-.36,.11h0c.05,.07,.14,.11,.23,.09,.06-.01,.1-.06,.12-.12h0c-.01,.06-.06,.11-.12,.13-.05,.02-.1,.02-.15,0-.05-.02-.1-.05-.13-.09l.03,.02Zm0,0l.35-.09h0c-.05-.08-.14-.12-.23-.09-.07,.02-.11,.09-.11,.16v.02Z"/><path class="cls-9" d="M747.44,337.68h-.07l.14,1h.07c-.02-.71-.06-.71-.08-.73l-.14-.27h-.02l-.07-.2h0l.08,.2h.09Z"/><path class="cls-9" d="M747.71,337.73h0c.04,.09,0,.19-.08,.23,0,0-.02,0-.03,.01-.05,.02-.09,.02-.14,0-.05-.01-.09-.05-.12-.09h0c-.04-.09,0-.19,.08-.23,0,0,.02,0,.03-.01,.05-.01,.09-.01,.14,0,.05,.02,.09,.06,.12,.11h0Zm.38-.06c-.05-.07-.14-.11-.23-.09h0c-.08,.02-.13,.1-.11,.19,0,.01,0,.03,.01,.04h0c.05,.07,.14,.11,.23,.09,.08-.02,.13-.1,.11-.19,0-.01,0-.03-.01-.04h0Z"/><path class="cls-9" d="M748.46,336.68h-.07l.14,1s.04,.01,.06,0h0s-.07,.02-.09,0h-.14s-.07,0-.07,0h.06l-.07-.48h0l.07,.48h.08l.04-1Z"/><path class="cls-9" d="M748.69,337.49l-.14-.32h0l.11,.23c0-.06,.05-.11,.11-.12,.04-.02,.09-.02,.13,0,.04,.01,.07,.04,.09,.07h0l.11,.22h0l-.11-.22h0c-.04-.06-.11-.09-.19-.08-.07,.02-.11,.09-.09,.16,0,.01,0,.02,.01,.03l.11,.22h0l-.13-.2Z"/><path class="cls-9" d="M749.15,337.41c-.05-.08-.02-.18,.05-.22,.02,0,.03-.02,.05-.02,.11-.02,.21,.03,.27,.12h0l-.36,.11h0c.05,.07,.14,.11,.23,.09,.05-.02,.1-.06,.12-.12h0c0,.07-.06,.12-.13,.13-.05,.02-.1,.02-.15,0-.05-.02-.09-.05-.12-.09h.03Zm0,.01l.35-.09h0c-.05-.08-.14-.12-.23-.09-.07,.02-.12,.09-.11,.16v.02Z"/><path class="cls-9" d="M750.12,337.36l-.25-.67h-.19l.41,1h-.2l.25-.44h0l-.02,.12Z"/><path class="cls-9" d="M750.33,337.09c-.04-.09,0-.19,.08-.23,0,0,.02,0,.03-.01,.05-.01,.1-.01,.15,0,.05,.02,.09,.06,.12,.11h0l-.36,.11h0c.06,.08,.15,.11,.25,.09,.05-.02,.09-.06,.11-.12h0c0,.06-.05,.12-.12,.13-.05,.02-.1,.02-.15,0-.05-.01-.09-.05-.12-.09,0,0,.02,.04,.02,.02Zm0,0l.35-.09h0c-.05-.08-.14-.12-.23-.09-.07,.02-.11,.09-.11,.16v.02Z"/><path class="cls-9" d="M750.75,336.68l.06,.13h0c0-.07,.05-.13,.12-.14h0c-.11,0-.12,.14-.12,.2h0l.09,.19h0l-.18-.37h.02Z"/><path class="cls-9" d="M751.31,336.71h0c-.03-.06-.1-.11-.18-.11-.07,.02-.11,.09-.09,.16,0,0,0,.01,0,.02h0l.11,.22h0l-.11-.22h0c-.04-.06-.11-.1-.19-.08-.07,.02-.11,.09-.09,.16,0,0,0,.01,0,.02l.11,.22h0l-.11-.22h0l-.07-.14h0v.06c.01-.05,.05-.09,.11-.11h.13l.07,.06c0-.07,.05-.13,.12-.14,0,0,0,0,0,0,.04-.01,.09-.01,.13,0,.04,.02,.07,.05,.09,.08h0l.09,.22h0l-.14-.2Z"/><path class="cls-9" d="M751.98,336.68h0c.05,.02,.11,.02,.16,0h.57m-.5,.03s-.04,0-.06-1.03h-.22c0,1.03-.06,1.03-.07,.97s0-.12,.09-.13c.05-.01,.09-.01,.14,0h0s-.09-.01-.13,.15h-.26m.19,0h.22s.07,.04,.08,.07c0,.06,0,.12-.11,.14-.06,.01-.12,.01-.18,0l-.02-.21Z"/><path class="cls-9" d="M752.96,336.68h0c.04,.09,0,.19-.08,.23,0,0-.02,0-.03,.01-.05,.02-.1,.02-.15,0-.04-.02-.08-.06-.12-.09h0c-.05-.08-.03-.18,.05-.23,.01,0,.03-.02,.04-.02,.05-.02,.1-.02,.15,0,.05,.02,.09,.05,.12,.09h.01Zm0-.29c-.05-.08-.14-.12-.23-.11h0c-.09,0-.13,.12-.08,.22h0c.05,.08,.14,.12,.23,.11,.09-.03,.13-.12,.11-.21,0,0,0-.02-.01-.03h-.01Z"/><path class="cls-9" d="M752.71,335.6h0v.08h.01l.16,.36h0l-.16-.36h-.01v-.06s-.01-.06,0-.09c.02-.01,.05-.01,.07,0l-.07,.07Z"/><path class="cls-9" d="M753.65,336.18h0c.06,.09,.17,.14,.28,.11,.09-.02,.16-.11,.14-.21,0-.02,0-.03-.02-.05l-.14-.33h0l.15,.33c.05,.1,0,.22-.09,.27-.01,0-.03,.01-.04,.01-.06,.02-.12,.02-.18,0-.06-.02-.11-.06-.14-.12h0l-.15-.33h0l.19,.32Z"/><path class="cls-9" d="M754.36,336.16h0s.15-.47,.15-.47h.08v1h-.12c-.03-.59-.07-.59-.11-.6-.02,0-.05,0-.07,0,0-.06,0-.12,.09-.14,.05-.01,.09-.01,.14,0h0s-.09-.01-.13,0c-.02,0-.07-.26-.07-.26h.22c.03,.28,.06,.3,.08,.32,0,0,0,.13-.11,.15-.06,.02-.12,.02-.18,0h0Z"/><path class="cls-9" d="M754.69,335.92c-.04-.09,0-.19,.08-.23,0,0,.02,0,.03-.01,.05-.01,.1-.01,.15,0,.05,.02,.09,.06,.12,.11h0l-.36,.09h0c.05,.08,.14,.11,.23,.09,.06-.01,.1-.06,.11-.12h0c-.01,.07-.06,.12-.13,.14-.05,.01-.1,.01-.15,0-.05-.02-.09-.06-.12-.11l.05,.04Zm0,0l.35-.09h0c-.05-.07-.14-.11-.23-.09-.07,.03-.11,.09-.11,.16v.02Z"/><path class="cls-9" d="M755.57,335.87s-.08-.06-.12-.11h0c-.04-.08-.01-.18,.07-.22,.01,0,.02-.01,.03-.01,.05-.02,.09-.02,.14,.16h.02v-.26h0l.13,.19,.87,.19h0v-.09c-.79,.07-.83,.13-.9,.15-.08,.03-.16,.04-.25,.01Zm-.09-.18c.05,.07,.14,.11,.23,.09,.08-.02,.13-.1,.11-.19,0-.01,0-.03-.01-.04h0c-.05-.07-.14-.11-.22-.09h0c-.08,.02-.13,.1-.11,.19,0,.01,0,.03,.01,.04h-.01Z"/><path class="cls-9" d="M756.05,335.47h0c-.04-.06-.11-.09-.19-.08-.07,.02-.11,.09-.09,.16,0,.01,0,.02,.01,.03l.11,.22h0l-.11-.22h0l-.07-.15h0v.07c0-.06,.05-.11,.11-.12,.04-.02,.08-.02,.12,0,.04,0,.08,.03,.11,.07h0l.11,.22h0l-.09-.2Z"/><path class="cls-9" d="M756.37,336.02s-.09-.05-.12-.09h0c-.04-.09,0-.19,.08-.23,0,0,.02,0,.03-.01,.05-.02,.1-.02,.15,0h.08l-.13-.27h0l.25,.54h0v-.09c-.01,.07-.06,.13-.13,.15-.06,.04-.14,.04-.21,.01Zm.34-.53c.05,.08,.15,.12,.25,.09,.08-.02,.13-.1,.11-.19,0-.01,0-.03-.01-.04h0c-.05-.08-.15-.12-.25-.11-.09,.03-.13,.12-.11,.21,0,0,0,.02,.01,.03,0,0,0-.01,0,0Z"/><path class="cls-9" d="M757.71,335.4l-.51-.71h.18c.04,.16,.08,.16,.12,.18,.04,.01,.07,.04,.09,.07h0c.03,.07,0,.15-.06,.19,0,0-.02,0-.03,.57h-.16l.38-.32h0v.04Zm-.37-.71h.16c.07,.43,.11,.35,.09,.29,0,0,0-.01,0-.02h0c-.04-.06-.11-.09-.19,.73h-.16l.11-1Z"/><path class="cls-9" d="M757.71,334.68l.06,.13h0c0-.06,.05-.12,.12-.14h0s-.11,.15-.11,.2h0l.08,.19h0l-.16-.37h.01Z"/><path class="cls-9" d="M758.71,335.19l-.18-.36h0l.18,.36h0s0,.01,0,0Zm-.68-.46h0Z"/><path class="cls-9" d="M757.71,334.68v.42h0l.55-.33h0l.45,.3v-.4h-1Z"/><path class="cls-9" d="M758.9,334.97s-.09-.05-.12-.09h0c-.05-.08-.03-.18,.05-.23,.01,0,.03-.02,.04-.02,.05-.02,.1-.02,.15,.06h-.32v-.16h0l.47,.19-.47,.18h0v-.09c.57,.07,.52,.13,.45,.14-.05,.08-.16,.1-.24,.05,0,0,0,0-.01-.01Zm-.09-.09c.05,.07,.14,.11,.23,.09,.08-.03,.13-.12,.1-.21,0,0,0,0,0-.01h0c-.05-.07-.14-.11-.22-.09h0c-.08,.03-.12,.11-.1,.19,0,.01,0,.02,.01,.03,0,0-.02-.01-.02,0h0Z"/><path class="cls-9" d="M759.28,334.68c-.05-.08-.02-.18,.06-.22,.02-.01,.04-.02,.06-.02,.05-.02,.1-.02,.15,0h0s-.09-.02-.14,0c-.09,.02-.14,.11-.12,.2,0,.01,0,.02,.01,.03h0c.06,.08,.16,.12,.26,.09,.04-.01,.07-.04,.09-.07h0s-.06,.07-.11,.08c-.05,.02-.11,.02-.16,0l-.13-.09h.02Z"/><path class="cls-9" d="M760,334.31l-.29,.22v.13c.44,.08,.4,.18,.32,.22-.01,0-.02,.01-.03,.01h0c.08-.02,.13-.1,.11-.19,0-.01,0-.03-.01-.04h0c-.01,.05-.05,.1-.11,.12-.04,.01-.09,.01-.13,0-.04-.02-.07-.05-.09-.08h0l-.11-.22h0l.11,.22h0c.04,.06,.12,.09,.19,.07,.07-.02,.11-.09,.09-.16,0,0,0-.01,.67-.02v-.22h0l-.71-.07Z"/><path class="cls-9" d="M760.64,334.55l-.25-.86h.18c.04,.31,.08,.31,.12,.33,.04,.01,.08,.04,.11,.08h0c.03,.07,0,.15-.06,.19,0,0-.02,0-.03-.59h-.16l.12,.85h-.01Zm-.09-.85h.15c.06,.59,.11,.54,.1,.47,0-.01,0-.03-.02-.04h0c-.04-.06-.12-.09-.19-.43h-.05Z"/><path class="cls-9" d="M761.37,334.15h0c.04,.09,0,.19-.08,.23,0,0-.02,0-.03,.01-.05,.02-.09,.02-.14,0-.05-.02-.09-.05-.12-.09h0c-.04-.09,0-.19,.08-.23,0,0,.02,0,.03-.01,.05-.02,.09-.02,.14,0,.05,.02,.09,.05,.13,.09,0,0-.01-.01-.01,0Zm0,0c-.05-.08-.14-.12-.23-.11h0c-.08,.02-.13,.1-.11,.19,0,.01,0,.03,.01,.04h0c.04,.08,.14,.12,.22,.09,.08-.02,.13-.1,.11-.19,0-.01,0-.03-.01-.04h.01Z"/><path class="cls-9" d="M761.38,333.75l.25,.54h0l-.25-.54h0Z"/><path class="cls-9" d="M761.71,334.23l-.16-.37h0l.16,.36h0Zm-.11-.46h0Z"/><path class="cls-9" d="M761.89,334.68c-.05-.75-.02-.85,.06-.9,.02-.01,.04-.02,.06-.1h.15c-.05,.07-.09,.07-.14,.08-.09,.02-.14,.11-.12,.2,0,.01,0,.02,.01,.03h0c.06,.08,.16,.12,.26,.09,.04,0,.08-.03,.09-.07h0s-.06,.07-.11,.08c-.05,.02-.11,.02-.16,0-.05-.02-.09-.05-.12,.58h.01Z"/><path class="cls-9" d="M762.62,333.61l.11,.22,.06,.13c.04,.09,0,.19-.08,.23,0,0-.02,0-.03,.01h0c.08-.01,.13-.09,.11-.16,0-.02,0-.03-1.07-.05v-.06c1.06,.06,1.06,.09,.95,.12-.04,.01-.09,.01-.13,0-.04-.02-.07-.05-.09-.08h0l-.11-.22h0l.11,.22h0c.04,.06,.12,.09,.19,.07,.06-.01,.11-.07,.1-.13,0-.01,0-.03-.02-.04v-.12s0-.11,0-.11h0l-.1-.04Z"/><path class="cls-11" d="M738.46,321.14s-.11-.45-.11-.45h-.23l.14,.6h0l-.35,.4h.18c.1-.93,.21-.89,.27-.81,.05,.07,.05,.13,0,.18h0c.07,0,.16-.37,.16-.37h-.07v.45Zm-.36-.45h-.15l.16,1h.14c.07-.67,.09-.75,0-.82-.04-.04-.09-.07-.15-.08v-.1Z"/><path class="cls-11" d="M738.61,321.02c-.06-.06-.05-.16,.01-.21,.02-.01,.04-.02,.06-.03,.12-.02,.25,.03,.33,.13h0l-.34,.09c.06,.08,.16,.12,.26,.11,.05,0,.09-.05,.09-.11h0c0,.06-.05,.11-.12,.13-.11,.02-.22-.02-.29-.11Zm0,0l.32-.09c-.07-.06-.16-.09-.25-.08-.05,.03-.07,.09-.05,.14l-.02,.04Z"/><path class="cls-11" d="M739.74,320.68c-.05-.07-.13-.1-.21-.08-.07,0-.09,.08,0,.15l.14,.21h0l-.14-.21c-.05-.07-.13-.1-.21-.08-.07,0-.09,.08,0,.15l.14,.21h0l-.14-.2h0l-.09-.13h0s0-.07,.09-.09c.06-.03,.13-.03,.2,0,0-.06,.05-.11,.11-.12,.1-.03,.21,.02,.27,.11l.14,.21h0l-.29-.13Z"/><path class="cls-11" d="M740.03,320.41c.13-.02,.25,.04,.33,.14,.07,.11,0,.22-.07,.25-.13,.03-.26-.03-.33-.14-.04-.11-.04-.21,.07-.25Zm.23,.35c.08,0,.11-.12,0-.2-.06-.08-.16-.12-.26-.11-.06,.02-.1,.08-.08,.14,0,.02,.01,.03,.02,.04,.06,.11,.2,.16,.32,.12Z"/><path class="cls-11" d="M740.75,320.67h0l-.4-.3h0l.34,.27-.06-.34h0l.07,.39h.05Z"/><path class="cls-11" d="M740.93,320.4c-.05-.06-.05-.16,.02-.21,.02-.02,.04-.03,.06-.03,.12-.02,.25,.03,.33,.13h0l-.35,.09c.06,.08,.17,.13,.27,.11,.05-.01,.08-.06,.08-.11h0c0,.07-.05,.12-.12,.14-.11,0-.22-.03-.29-.12Zm0,0l.33-.09s-.1-.08-.16-.08c-.07,0-.13,.04-.14,.12,0,0,0,.02,0,.02l-.02,.04Z"/><path d="M748.15,311.68v-.2c.05-.01,.56,0,.56,0h0v.2h-.44c.15,0,.25,0,.29,.13,.04,.06,.03,.14-.03,.18-.01,0-.04,.69-.04,.69h-.06c-.07-.66-.15-.66-.22-.68h0c.05,.01,.11,.01,.16,0l-.11-.15c-.11,.02-.22-.02-.29-.11-.06-.08,0-.16,.08-.2h0s-.04-.07,.03,.13h.06Zm.08,0l-.09-.14s-.06,0,0,.09-.05,.05,.05,.05h.05Zm.38,0l.09,.14v-.09s-.09-.05-.14-.05h.05Z"/><path d="M748.87,311.31c.06,.02,.11,.06,.15,.12,.02,.05,.02,.1,0,.15-.02,.05-.07,.09-.12,.11-.06,.02-.13,.02-.19,0h0m.07,.27s.07,.01,.11,0c.02,0-.18,0-.18,0v-.08s.17,0,.14,0c-.03-.02-.06-.02-.09-.18h-.14c-.03,.09-.06,.09,.09,.08v-.06l.08,.98h-.08v-.92l.07,.19Z"/><path d="M749.65,312.06h0s-.05,.01-.07,0h0l-.27,.07h0l.08-.44h.09l.22,.32h0s-.03,.05-.06,.06Zm.06-.61v.23h.18l-.18-.23Z"/><path d="M742.79,330.95h0l.34,.51h0l-.34-.51Z"/><path d="M743.3,330.68h.19c-.04,.63-.08,.63-.12,.61l-.19-.61h-.09l-.09,.17h0l.09-.17h.21Z"/><path d="M743.54,331.15c-.06-.06-.05-.16,.01-.21,.02-.01,.04-.02,.06-.03,.12-.02,.25,.03,.33,.13h0l-.34,.09c.06,.08,.16,.12,.26,.11,.06,0,.09,0,.09-.11h0s0,.11-.12,.13c-.11,.02-.22-.02-.29-.11Zm0,0l.32-.09c-.06-.06-.15-.09-.23-.08-.05,.03-.08,.09-.06,.14l-.02,.04Z"/><path d="M744.68,330.81c-.05-.07-.13-.1-.21-.08-.07,0-.09,.08,0,.15l.14,.21h0l-.14-.21c-.05-.07-.13-.1-.21-.09-.05,.04-.05,.1-.02,.15,0,0,0,.01,.02,.02l.14,.2h0l-.14-.2h0l-.09-.13h0s0-.07,.09-.09c.07-.03,.14-.03,.21,0,0,0,0-.11,.09-.13,.11-.02,.21,.02,.27,.12l.15,.21h0l-.3-.12Z"/><path d="M745.12,329.68h-.18l.4,1h-.19l.33,.06h0l-.36-1.06Z"/><path d="M745.67,330.36c.13-.02,.25,.04,.33,.14,.07,.11,0,.22-.07,.25-.13,.03-.26-.03-.33-.14-.07-.11-.05-.21,.07-.25Zm.04,.35c.08,0,.11-.12,0-.2-.06-.08-.16-.12-.26-.11-.06,.02-.1,.08-.08,.14,0,.02,.01,.03,.02,.04,.05,.12,.19,.18,.32,.14v-.02Z"/><path d="M746.17,330.68h0l.19,.28s.04,0,.06,0h0s-.08,.02-.12,0l-.19-.28h0l-.11-.14h0l.09,.14h.06s0-.01,.01,0Z"/><path d="M746.7,330.11l.02,.34h0v-.06c.21,.06,.17,.11,.11,.13-.13,.02-.26-.04-.34-.14-.05-.06-.05-.16,.02-.21,.02-.02,.04-.03,.06-.03,.06-.03,.14-.03,1.14,0v-.06h0c-.95,0-1.03,.02-1.02,.04Zm.07,.19c-.05-.09-.16-.14-.26-.12-.09,0-.12,.11-.06,.2,.06,.08,.16,.12,.26,.11,.09-.02,.12-.11,.06-.19Z"/><path d="M746.78,329.89h0l.34,.51h0l-.34-.51Z"/><path d="M758.31,326.68h.29s.04,.04,.06,0h-.12l.11,.21c.11-.02,.22,.03,.29,.12,.06,.08,0,.16-.08-.32h-.06c-.07,.54-.09,.52-.09,.52h0v-.52h.04l-.11,.31c-.14,0-.23,0-.29-.12s0-.16,.08-.2h-.13Zm.15,.33l-.09-.13q-.06,0,0,.08c.06,.08,.01,.05,.09,.05Zm.14,.09l.09,.14c.06,0,.07,0,0-.08s-.01-.06-.09-.06Z"/><path d="M759.13,326.83c.06,.02,.12,.06,.15,.12,.02,.05,.02,.1,0,.15-.01,.06-.06,.1-.12,.11-.06,.02-.13,.02-.19,0h0m.07,0s.07,.02,.11-.52h.06c.02,.49,.02,.46,0,.43-.03,0-.05,0-.08,0-.03-.01-.07-.01-.11,0h0s-.01-.05-.31-.07v-.36h.17c-.02,.26-.05,.26-.07,.25h0l.26-.07s.06,0,.64,0h0v.13l-.67,.21Z"/><path d="M759.91,326.84h0s-.06,0-.2,0v-.06l-.15-1.1h-.06l.08,1h.11l.21,.04h0s.04,.08,.01,.11c0,0,0,0,0,0Zm-.2-.4v.25h.18l-.18-.25Z"/><path d="M743.71,333.06h.42c.08,.02,.16,.02,.25,0,.04,0,.08-.03,.11-.07,.01-.03,.01-.06,0-.09-.03-.04-.06-.06-.11-.22h-.34c-.05,.14-.1,.11-.13,.06-.03-.03-.03-.08,0-.12,.03-.04,.07-.06,.12-.08,.08-.02,.16-.02,.23,0h0c-.07-.02-.14-.02-.21,0-.04,.01-.07,.04-.09,.07-.02,.03-.02,.07,0,.09,.03,0,.06,0,.09,.97h.15c.06-.99,.13-.99,.19-.97,.06,0,.11,.04,.14,.08,.02,.04,.02,.09,0,.13-.03,.04-.07,.07-.12,.08-.09,.02-.19,.02-.7,0v.06Z"/><path d="M744.94,332.64c-.04-.07-.13-.1-.21-.08-.05,0-.09,.06-.08,.11,0,.02,0,.03,.02,.05l.15,.21h0l-.14-.21h0l-.19-.29h0l.14,.21s.05-.08,.09-.09c.11-.03,.22,.02,.28,.11l.14,.21h0l-.21-.21Z"/><path d="M744.99,332.33h0Zm.08,.12h0l.23,.35h0l-.23-.35Z"/><path d="M745.82,332.56h0l-.11-.16h0v.06c0-.06,.05-.11,.11-.12,.13-.03,.26,.02,.34,.13,.05,.06,.05,.16-.02,.21-.02,.02-.04,.03-.06,.03-.07,.03-.14,.03-.21,0l.15,.22h0l-.2-.37Zm-.38,0c.06,.08,.17,.13,.27,.11,.05-.03,.07-.11,.04-.16,0-.02-.02-.03-.04-.04-.06-.08-.17-.13-.27-.11-.08,0-.11,.11-.06,.19h.06Z"/><path d="M745.82,332.41h0l-.11-.16h0v.06c0-.06,.06-.11,.12-.12,.13-.03,.26,.02,.33,.13,.07,.11,0,.22-.07,.25-.07,.04-.14,.04-.21,0l.14,.22h0l-.2-.37Zm.19,0c.06,.08,.17,.13,.27,.11,.05-.05,.06-.13,.02-.18,0,0-.01-.01-.02-.02-.06-.08-.17-.13-.27-.11-.06,.02-.1,.08-.08,.14,0,.02,.01,.03,.02,.04h.06Z"/><path d="M746.35,331.97h0Zm.08,.12h0l.23,.35h0l-.23-.35Z"/><path d="M747.06,332.08c-.04-.07-.13-.1-.21-.08-.07,0-.09,.08,0,.15l.14,.21h0l-.14-.21h0l-.08-.13h0s.05-.07,.09-.08c.11-.03,.22,.02,.28,.11l.14,.21h0l-.22-.18Z"/><path d="M747.91,332.45c.05,.07,.03,.16-.04,.21-.01,0-.03,.02-.05,.02-.03,.01-.07,.01-.11,0h.08c.06-.02,.1-.08,.08-.14,0-.02-.01-.03-.02-.04h0c0,.06-.05,.11-.11,.12-.13,.02-.26-.03-.33-.14-.06-.06-.05-.16,.01-.21,.02-.01,.04-.02,.06-.03,.07-.02,.14-.02,.21,0v-.06h0l.2,.28Zm-.27-.48c-.06-.08-.17-.13-.27-.11-.08,0-.11,.11,0,.19,.05,.09,.16,.14,.26,.12,.06-.03,.08-.1,.05-.16,0-.02-.02-.03-.04-.04Z"/><path d="M759.46,328.68h0c.05-.01,.11-.01,.16,0h0m0,0h-.14l.11-.08c.15,0,.23,0,.29,.12s0,.16-.08,.96h-.09v-.82s-.12,.02-.19,0h0s.1,.01,.15,0l-.09-.15c-.11,.02-.22-.02-.29-.11-.05-.05-.05-.12,0-.17,.02-.02,.04-.03,.07-.03h0s.02-.01,.05-.01l.22,.29Zm.08-.02l-.09-.14s-.06,0,0,.09,.01,.01,.09,.01v.04Zm0,.09l.09,.14c.06,0,.07,0,0-.09s-.01-.08-.09-.08v.04Z"/><path d="M760.21,328.45c.06,.02,.11,.06,.15,.12,.02,.05,.02,.1,0,.15-.02,.05-.06,.09-.12,.11h0c-.06,.02-.13,.02-.19,0h0m.07,0s.07,.02,.11,0c.02,0,.04,0,.06,0,.01-.03,.01-.06,0-.08-.02-.04-.05-.06-.09-.07-.03-.01-.06-.01-.09-.99h-.14l-.2,.71h0l.26-.07s.05-.01-.31,0v.06l1,.06v.24h-.78c.07-.24,.18-.27,.28-.23l-.08,.37Z"/><path d="M745.71,334.68h-.7c-.02-.5-.3-.51-.3-.51v-.06l.36-.09m.64,0s.02,.14,0,.14v-.14Z"/><path d="M745.76,334.55c-.06-.03-.11-.07-.15-.13-.02-.05-.02-.1,0-.15,.01-.05,.06-.09,.12-.09,.06-.02,.12-.02,.18,0,.06,.03,.12,.07,.15,.13,.02,.05,.02,.1,0,.15-.01,.05-.05,.09-.11,.09-.06,.02-.13,.02-.19,0Zm-.06,.14s.06,.06,.09,.07c.03,.01,.06,.01,.09,0h0s.02-.06,0-.09c-.02-.03-.05-.06-.08-.07-.03-.01-.07-.01-.11,0-.02,0-.04,0-.06,0,0,.04,.02,.07,.05,.09h.01Z"/><path d="M746.49,333.68h0l.14,.22s.06-.01,.08,0v.06c-.06,0-.12-.02-.15-.07l-.14-.21h0m-.63,.38h0l-.08-.11v-.28m.37,.22l.08,.12h0l-.08-.12Z"/><path d="M746.82,334.09l.11,.15m0-.56h-.07c-.02,.65-.05,.68-.08,.69-.06,.02-.13,.02-.19,0-.06-.02-.11-.06-.15-.12-.02-.05-.02-.11,0-.16,.01-.05,.05-.09,.11-.41h.14c.02,.3,.05,.3,.07,.31l.18-.31Zm-.22,.41s-.03-.05-.06-.41h-.16c-.01,.36-.01,.39,0,.42l.08-.42h.11c.02,.51,.04,.51,.06,.5,0-.02,0-.05-.02-.07v-.02Z"/><path d="M746.89,333.68l.32,.47h0m-.07,0l-.32-.47s-.04,0,0,0l.32,.47Z"/><path d="M760.71,329.68h0v1h-.14l.09-.5c.11-.03,.23,.01,.3,.11,.04,.07,.02,.15-.04,.19-.01,0-.02,.01-.04,.02h0m-.06,.19h0c-.07,.02-.15,.02-.22,0h0m0-.25h0c.05,.01,.11,.01,.16,0l-.11-.15c-.15,0-.23,0-.29-.12s0-.15,.08-.2h0s.01,.01,.03,0l.12,.47Zm.02-.19l-.08-.14c-.06,0-.07,.06,0,.09,.02,.02,.05,.04,.08,.05h0Zm.15,.09l.09,.14s.06,0,0-.09-.02-.05-.09-.05h0Z"/><path d="M761.31,330.38c.06,.03,.12,.07,.15,.13,.02,.05,.02,.1,0,.15-.02,.05-.07,.08-.12,.09-.06,.02-.13,.02-.19,0,0,0-.06,0,0-.07,.02-.01,.05-.01,.07,0h.11s.05-.35,.06-.37c.01-.03,.01-.06,0-.08l-.09,.46h-.14s-.06-.53-.44-.58v-.42h.22l.26-.06m.52,.31h0v0Z"/><path d="M761.48,329.99c-.05-.06-.05-.16,.02-.21,.02-.02,.04-.03,.06-.03,.12-.02,.25,.02,.33,.12h0c.04,.05,.06,.11,.08,.18,.02,.05,.02,.11,0,.16-.03,.04-.06,.06-.11,.07m-.16,0v-.59h.16c0,.51,0,.48,0,0h-.07c-.13,.48-.25,.42-.32,.31l.23,.28Zm0-.28c.05,.05,.12,.08,.19,.07,.04-.03,.04-.09,0-.13,0,0,0,0,0,0-.05-.05-.12-.08-.19-.07-.03,.03-.03,.08,0,.12v.02Z"/><path class="cls-19" d="M757.43,323.39l-7,1.88-.9-1.34,7-1.87,.9,1.33Zm-7,1.75l6.8-1.82-.77-1.17-6.8,1.81,.77,1.18Z"/><polygon class="cls-19" points="764.11 330.99 744.55 336.2 744.48 336.11 764.05 330.89 764.11 330.99"/><path class="cls-11" d="M766.53,334.57l.91,1.35c.61,.9,.35,1.82-.56,2.05l-16.27,4.34c-1.06,.18-2.13-.27-2.73-1.17l-.91-1.35,19.56-5.23Z"/><path class="cls-1" d="M755.26,339.2c-.08-.1-.05-.25,.05-.33,.02-.02,.05-.03,.08-.04,.08-.02,.17-.02,.25-.16h-.23c-.05,.17-.1,.2-.12,.25-.02,.05-.02,.1,0,.15,.04,.05,.09,.1,.15,.12,.07,.02,.13,.02,.2,0,.04-.02,.08-.05,.11,.48h-.03m.1-.49c-.03,.06-.09,.1-.15,.11-.14,.03-.28,0-.4-.09h.55Z"/><path class="cls-1" d="M756.11,339.26l-.3-.46h0s.06-.02,.08,0l.13,.19,.25-.09-.13-.19h0m.07,0l.32,.47h0m.42-.31l-.13-.19h-.22l.12,.19v.06s-.07,.03-.11,.02l.34-.08Z"/><path class="cls-1" d="M756.73,339.1l-1.02-.46v-.06h0l.99-.08s.05-.01,.01,0v-.82h-.18l.09,1h.28s0,.08,0,.08l-.2,.06,.09,.14,.23-.06s.06-.02,.08,0h0l-.28,.08h0s.01,.09-.03,.11c-.02,.01-.05,.02-.08,0Z"/><path class="cls-1" d="M757.05,338.74c-.08-.1-.06-.25,.04-.33,.03-.02,.06-.04,.09-.05,.08-.02,.16-.02,.25-.68h-.18c-.05,.69-.1,.72-.12,.77-.02,.05-.02,.1,0,.15,.04,.06,.09,.1,.15,.13,.06,.02,.13,.02,.19,0,.05,0,.09-.04,.12-.05h.07c.07-.03,0-.03,0,.04-.03,.06-.09,.1-.15,.12-.16,.03-.33,0-.46-.11Z"/><path class="cls-1" d="M757.9,338.78l-.3-.46h0s.06-.01,.08,0l.15,.22,.11,.13h.07s0-.46,0-.4l-.07,.22-.22,.18v.06h0v-.06l1,.11v.06c-.72,.03-.77,.02-.79,0-.01-.01-.02-.03-.02-.05Z"/><path class="cls-1" d="M758.66,338.07c.09,.04,.17,.1,.22,.18,.03,.07,.03,.15,0,.22-.02,.07-.07,.12-.14,.14-.09,.03-.18,.03-.27,0-.09-.03-.17-.1-.22-.18-.03-.07-.03-.14,0-.21,.02-.07,.08-.13,.15-.14,.08-.03,.17-.03,.26-.01Zm.12,.2c-.04-.05-.09-.09-.15-.12-.06-.02-.12-.02-.18,0-.05,.01-.08,.05-.09,.09-.03,.05-.03,.1,0,.15,.03,.05,.08,.1,.14,.12,.06,.02,.13,.02,.19,0,.05-.01,.08-.05,.09-.09,.02-.05,.02-.1,0-.15h0Z"/><path class="cls-1" d="M759.29,338.42c-.15,.03-.31-.03-.4-.15l-.19-.28v-.06s.05-.01,.07,0l.19,.28c.06,.07,.15,.11,.25,.09,.06-.01,.1-.06,.08-.12,0-.02-.01-.04-.03-.05l-.19-.28h0s.06-.02,.08,0l.19,.27c.08,.06,.09,.17,.03,.25-.02,.03-.05,.05-.08,.06Z"/><path class="cls-1" d="M759.71,337.68h.08l.28,.42h0s-.06,.02-.08,0l-.28-.42h0m0,0v-.06l.37-.11s.05-.01,.07,0c0,0,.01,.16-.01,.16h-.43Z"/><path class="cls-13" d="M746.15,304.27l21.29,31.65c.61,.9,.35,1.82-.56,2.05l-16.27,4.34c-1.06,.18-2.13-.27-2.73-1.17l-21.3-31.66c-1.23-1.82-.55-2.11,.36-2.33l3.27-.86c.26-.01,.5,.12,.63,.35l.07,.09c.22,.42,.74,.59,1.16,.38,0,0,0,0,0,0l7.53-2.01c.42-.12,.76-.21,.39-.78l-.07-.09c-.16-.25-.14-.48,0-.54l3.26-.86c.95-.27,1.84-.22,2.98,1.45Z"/><polygon class="cls-1" points="758.1 326.06 743.11 330.05 735.71 319.06 750.71 315.07 758.1 326.06"/><path d="M744.75,326.49l-.37-.2h0l.34,.18v-.28h0v.3l.16,.25h0l-.13-.25Z"/><path d="M745.47,326.26c.13-.02,.26,.03,.33,.14,.06,.06,.05,.16-.01,.21-.02,.01-.04,.02-.06,.03-.13,.02-.25-.04-.33-.14-.07-.11-.05-.21,.07-.25Zm.23,.42c.08,0,.11-.12,0-.2-.05-.09-.16-.13-.26-.12-.05,.05-.06,.13-.02,.18,0,0,.01,.01,.02,.02,.07,.1,.2,.15,.32,.12h-.06Z"/><path d="M745.82,326.19h0l.14,.21c.05,.06,.13,.09,.21,.08,.04-.03,.05-.09,.02-.13,0,0-.01-.02-.02-.02l-.14-.21h0l.14,.21s.05,.12,0,.17c-.02,.02-.04,.03-.07,.03-.1,.02-.21-.02-.27-.11v-.23Z"/><path d="M745.71,326.06h0v.08h0c.64-.07,.69-.12,.75-.14h0s-.07,.06,.25,.11v.09h0l-.21,.16h0l-.79-.3Z"/><path d="M747.1,326.06h0l-.12-.16h0c0-.06,.05-.11,.11-.12,.13-.03,.26,.03,.34,.14,.05,.06,.05,.16-.02,.21-.02,.02-.04,.03-.06,.03-.07,.02-.14,.02-.21,0l.15,.22h0l-.19-.33Zm0,0c.06,.08,.16,.12,.26,.11,.09,0,.12-.11,0-.19-.05-.09-.16-.14-.26-.12-.06,.01-.1,.07-.09,.14,0,.02,.01,.04,.02,.05h.07Z"/><path d="M747.55,325.72h0l.14,.21c.04,.07,.12,.1,.2,.08,.08,0,.11-.08,.06-.15l-.14-.21h0l.14,.2c.06,.09,0,.19-.06,.21-.11,.02-.22-.02-.28-.12l-.06-.22Z"/><path d="M747.71,325.58h0v.09h0c0-.07,.04-.13,.11-.14h0s-.08,.05-.08,.09c0,.03,0,.07,0,.11h0l.11,.18h0l-.13-.33Z"/><path d="M748.53,325.66c-.05-.06-.05-.16,.02-.21,.02-.02,.04-.03,.06-.03,.05-.02,.11-.02,.16,0h0s-.09-.01-.14,0c-.07,.02-.11,.09-.09,.16,0,.01,.01,.03,.02,.04,.06,.09,.17,.14,.28,.12,.04,0,.07-.03,.09-.07h0s-.06,.08-.11,.08c-.11,.03-.22,0-.3-.08Z"/><path d="M749.33,325.41c-.05-.06-.13-.09-.21-.08-.08,0-.11,.08-.06,.15l.14,.21h0l-.14-.21h0l-.2-.29h0l.13,.2s.05-.09,.11-.09c.1-.02,.21,.02,.27,.11l.15,.21h0l-.19-.2Z"/><path d="M749.85,325.12l.23,.34h0s0,.09-.11,.12c-.13,.02-.25-.04-.33-.14-.07-.11,0-.22,.07-.25,.07-.03,.14-.03,.21,0h0l-.08-.07Zm.07,.19c-.05-.09-.16-.14-.26-.12-.05,.05-.06,.13-.02,.18,0,0,.01,.01,.02,.02,.06,.08,.17,.13,.27,.11,.02-.02,.05-.11-.01-.19Z"/><path d="M750.19,325.36h0s.1,.01,.15,0c.02,0,.05,0,.07-.68h-.07c-.03,.66-.07,.66-.11,0h-.12c-.03,.69-.06,.69-.4,.68v-.08c.33-.03,.36-.05,.39-.06,.05-.01,.1-.01,.15,0h0s-.09-.01-.13,0h0s.07,.01,.11,.46h.29c.02-.43,.02-.4,0-.37-.02,.03-.06,.05-.09,.06-.06,.02-.13,.02-.19,0h-.06Z"/><path d="M750.54,325.14c-.07-.11,0-.22,.07-.25,.12-.03,.25,.02,.33,.12h0l-.35,.09c.06,.08,.16,.12,.26,.11,.05,0,.09-.05,.09-.11h0c0,.06-.04,.12-.11,.13-.11,.02-.22-.02-.29-.09Zm0,0l.32-.08c-.06-.07-.15-.1-.23-.08-.04,.02-.07,.07-.06,.12l-.02,.05Z"/><path d="M751.6,325.07h0l-.39-.29h0l-.5,.26v-.23h0l1.1,.19-.07-.34h0l.08,.39h0l-.11-.19v.23h-.11Z"/><path d="M752.48,324.46l.23,.34h0v-.06c0,.06-.05,.1-.11,.12-.13,.03-.26-.02-.33-.13-.07-.11,0-.22,.07-.25,.07-.03,.14-.03,.21,0h0s-.09-.04-.08-.02Zm-.1,.18c-.06-.08-.16-.12-.26-.11-.09,0-.12,.11-.06,.2,.06,.08,.17,.13,.27,.11,.08-.02,.11-.11,.05-.2h0Z"/><path d="M752.71,324.71h-.06c.05,.01,.11,.01,.16-1.02h-.05c-.04,1.03-.08,1.03-.12,1.02-.03,0-.06,0-.94,0v-.08c.87,0,.9,0,.92,0,.05-.01,.1-.01,.15,0h0s-.09-.01-.13,.06h.18s.07-.02,.09,.01c.02,.03,.02,.06,0,.09-.02,.03-.06,.05-.09,.06-.06,.01-.13,.01-.12,0v-.14Z"/><path d="M747.54,327.23h0s.1,.01,.15,0c.02,0,.05,0,.07,0h0s-.05,0-.07,0c-.03,0-.07,0-.11-.54h-.12c-.03,.55-.06,.55-.09,.54-.02-.03-.02-.06,0-.54h.08c.05,.43,.1,.43,.15,.45h0s-.09-.01-.13-.45h.18c.04,.46,.07,.49,.09,.52,.02,.02,.02,.06,0,.08-.03,.01-.06,.01-.09,0-.06,.02-.13,.02-.19,0l.07-.06Z"/><path d="M747.79,326.77h0l.14,.2c.05,.07,.13,.1,.21,.09,.06-.02,.08-.08,.07-.13,0,0,0-.01,0-.02l-.14-.21h0l.14,.21s.05,.12,0,.17c-.02,.02-.04,.03-.07,.03-.11,.02-.21-.03-.27-.12l-.07-.22Z"/><path d="M748.41,326.93c-.05-.07-.04-.16,.02-.21,.02-.02,.04-.03,.07-.03,.05-.02,.11-.02,.16,0h-.15c-.06,0-.11,.06-.1,.13,0,.03,.01,.05,.03,.07,.07,.09,.17,.13,.28,.11,.03,0,.05,0,.08,0h0s-.06,.06-.11,.07c-.11,0-.22-.04-.29-.13Z"/><path d="M748.89,326.93c-.05-.07-.04-.16,.02-.21,.02-.02,.04-.03,.07-.03,.05-.02,.11-.02,.16,0h-.15c-.06,0-.11,.06-.1,.13,0,.03,.01,.05,.03,.07,.07,.09,.17,.13,.28,.11,.03,0,.05,0,.08,0h0s-.06,.06-.11,.07c-.11,0-.22-.04-.29-.13Z"/><path d="M749.37,326.55c-.05-.06-.05-.16,.02-.21,.02-.02,.04-.03,.06-.03,.12-.03,.25,.02,.32,.13h0l-.35,.09c.06,.08,.17,.12,.27,.11,.05-.02,.08-.06,.08-.12h0c0,.07-.04,.12-.11,.14-.11,.01-.22-.03-.29-.11Zm0,0l.33-.08c-.06-.07-.15-.1-.25-.08-.04,.02-.06,.07-.06,.12l-.02,.05Z"/><path d="M749.97,326.53h0c.05,.01,.11,.01,.16-.84h-.12c-.04,.86-.08,.86-.12,0h-.08c-.02,.82-.02,.79,0,.76,.02-.03,.05-.05,.08-.06,.05-.01,.11-.01,.16,0h0s-.09-.01-.14,0c-.02,0-.04,0-.06,0h0s.07,0,.11,.3h.13c.04-.28,.08-.26,.11-.23,.01,.03,.01,.06,0,.09-.02,.03-.05,.05-.08,.06-.07,.01-.13,.01-.2,0,0,0,.04-.08,.05-.08Z"/><path d="M750.43,325.68h0c.05,.01,.11,.01,.16,0,.02,0,.05,0,.07,0h-.07c-.03,.72-.07,.72-.11,0h-.12c-.03,.74-.06,.74-.09,.73-.02-.03,0,.27,0,.27h.08s.1-.38,.15-.37h0s-.09,0-.13,0c-.02,0-.05,0-.07,0,0,.02,0,.04,0,.37h.12s.09-.01,.13,0c.04,.01,.07,.04,.09,.07m0-.07h-.08c-.06,.02-.13,.02-.19,0h.27Z"/><path d="M750.71,325.61h0v.07h0l.23,.34h0l-.22-.34h0s0-.07,0-.11c.02,0,.05,0,.07,0l-.08,.04Z"/><path d="M750.71,325.92h0l.14,.21c.05,.07,.13,.1,.21,.09,.05-.04,.05-.1,.02-.15,0,0,0-.01-.02-.02l-.14-.2h0l.14,.2c.05,.05,.04,.13-.01,.18-.02,.01-.04,.02-.06,.03-.11,.02-.22-.03-.28-.12v-.23Z"/><path d="M751.35,325.63h0l.34,.5h0l-.34-.5Z"/><path d="M744.47,324.68h-.24l.49,.74v.09s-.1,.02-.14,0l-.49-.74-.23,.07s-.1,.02-.14,0v-.09l.64-.18s.09-.02,.13,0c0,0,.03,.09-.01,.11Z"/><path d="M744.71,325.13v.09c.58,.02,.54,.02,.5,0h0l-.54-.81s-.03-.07,0-.1c0,0,0,0,0,0,.05-.01,.11,.01,.14,.06l.16,.23s.08-.06,.13-.08c.2-.04,.41,.04,.54,.21l.07,.32v.09c.1,.02,.05,.02,0,0l-.2-.32c-.06-.08-.17-.13-.27-.11-.07,.02-.1,.1-.08,.16,0,.01,.01,.02,.02,.03l-.48,.21Z"/><path d="M746.6,324.47l-.89,.27v.09c1.03,.02,.98,.02,.95,0-.04,.05-.1,.09-.16,.12-.11,.03-.22,.03-.33,0-.11-.05-.2-.12-.27-.21-.06-.08-.08-.17-.06-.27,.03-.09,.1-.15,.19-.18,.08-.02,.17-.02,.68,0v-.08c-.4-.02-.35-.02-.31,0l.2,.26Zm.11,0c-.04-.06-.09-.1-.15-.13-.06-.02-.12-.02-.18,0-.05,.02-.08,.05-.11,.09-.02,.05-.02,.11,0,.16,.04,.05,.09,.1,.15,.13,.06,.02,.12,.02,.18,0,.05,0,.09-.04,.11-.09,.01-.04,.01-.08,0-.12v-.05Z"/><path d="M747.47,324.16l.24,.35v.1s-.1,.02-.15,0l-.23-.35c-.06-.09-.17-.13-.28-.1-.09,0-.11,.1-.06,.19l.24,.35h0s.02,.06,0,.09c-.04,.02-.09,.02-.14,0l-.24-.35-.15-.23v-.1s.08-.01,.11,0c.04-.04,.08-.07,.14-.09,.18-.05,.38,0,.51,.14Z"/><path d="M747.98,324.42l-.54-.81m0-.09s.1-.02,.14,0l.32,.48,.2-.31h.12c.06,.04,.08,.11,.07,.15l-.09,.27,.41,.2s.07,.06,.06,.39h-.08l-.86-.47v.09l.55,.13m0,.09c-.03,.08-.12,.11-.2,.08-.08-.03-.11-.12-.08-.2l.28,.12Z"/><path d="M749.9,323.83l.21,.33,.14,.19c.12,.19,.06,.37-.14,.42-.06,.02-.13,.02-.19,0-.05,0-.09-.04-.11-.08,0,0,0-.07,.09,0h.09c.07,0,.12-.07,.11-.14,0-.01,0-.02,0-.03-.03,.04-.07,.06-.12,.07-.19,.04-.39-.04-.51-.2l-.21-.33s-.03-.06-.01-.08c0,0,0,0,.01-.01,.04-.03,.09-.03,.13,0l.22,.32c.06,.08,.16,.12,.26,.11,.08,0,.11-.11,.06-.19l-.22-.32v-.09c.06-.04,.14-.03,.18,.03,0,0,0,0,0,.01Z"/><path d="M750.17,323.81c-.11-.04-.2-.12-.27-.21-.06-.08-.08-.17-.06-.27,.02-.09,.1-.16,.19-.18,.11-.03,.22-.03,.33,0,.11,.05,.2,.12,.27,.21,.04,.08,.04,.18,0,.27-.02,.09-.09,.16-.18,.18-.09,.03-.19,.03-.28,0Zm-.11-.26c.04,.06,.09,.1,.15,.13,.06,.02,.12,.02,.18,0,.05,0,.09-.04,.11-.08,.02-.05,.02-.11,0-.16-.04-.06-.09-.1-.15-.13-.06-.02-.12-.02-.18,0-.05,.01-.1,.05-.12,.09,0,.05,0,.1,.01,.15Z"/><path d="M751.39,323.6c-.19,.04-.39-.04-.51-.2l-.22-.33s-.03-.06-.01-.08c0,0,0,0,.01-.01,.04-.02,.09-.02,.13,0l.22,.33c.05,.08,.15,.12,.25,.11,.06-.01,.1-.07,.09-.14,0-.02-.01-.04-.02-.05l-.22-.33s-.03-.06-.01-.08c0,0,0,0,.01-.01,.04-.03,.1-.03,.14,0l.21,.33c.13,.02,.22,.13,.2,.26s-.13,.22-.26,.2h0Z"/><path d="M751.58,323.11l-.37-.56s-.03-.06-.01-.08c0,0,0,0,.01-.01,.04-.03,.09-.03,.13,0l.37,.55v.09s-.09,.03-.13,.01Zm.5,.3s-.09,.02-.13,0h0s-.03-.06-.01-.08c0,0,0,0,.01-.01,.04-.03,.09-.03,.13,0h0s.05,.08,0,.09Z"/><path class="cls-11" d="M747.87,319.92c.61,.68,.56,1.73-.12,2.34-.22,.2-.49,.33-.77,.39-1.43,.29-2.9-.3-3.75-1.49-.61-.68-.56-1.73,.12-2.34,.22-.2,.49-.33,.77-.39,1.43-.28,2.9,.3,3.75,1.49Z"/><path class="cls-1" d="M744.49,321.28c.21,.07,.41,.16,.62,.25l.61,.16h-.21c.02-.39,.08-.88,.16-1.37,.04-.24,.09-.49,.15-.72,.06-.24,.13-.47-.11-.7v1.52c.3,.49,.23,.99,1,1.47v.15l-1.05-.11-.56-.34c-.25-.07-.43-.2-.61-.32Z"/><path class="cls-24" d="M772.45,343.46s1.81-10.9,.26-15.17-9.16-8.43-13.01-10.06c-4.75-2.01-5.32,2.33-4.17,4.82,1.95,4.32,7.25,8.53,7.56,8.66,0,0-8.87,6.23-6.47,15.44l15.83-3.69Z"/><path class="cls-11" d="M774.38,343.03l-28.48,21.83s15.02,27.63,26.14,31.66,14.64,2.84,17.75,2.23,26.49-19.12,42.13-47.63c14.79-26.94-2.43-18.85-15.17-9.49-7.28,5.33-30.57,19.19-31.51,18.87s-10.87-17.47-10.87-17.47Z"/><path class="cls-15" d="M794.94,395.5c8.47-6.55,25-22.53,37-44.35,7.87-14.33,6.65-18.74,1.88-18.34-4.14,6.52-26.66,42.89-38.88,62.69Z"/><path class="cls-18" d="M776.67,351.52c-1.81,1.71-3.71,3.34-5.68,4.86-1.98,1.65-4.03,3.22-6.06,4.81s-10.38,7.66-12.45,9.16c-.03,.04-.09,.06-.13,.03s-.06-.09-.03-.13c.01-.02,.03-.03,.05-.04,1.98-1.65,9.86-8.17,11.87-9.71s3.99-3.1,6.03-4.6c2.03-1.59,4.14-3.08,6.33-4.46,0,0,.12,.04,.07,.08Z"/><path class="cls-11" d="M815.55,422.64c1.63,1.63,68.24,.99,68.24,.99,.32-.42-12.69-78.33-36.08-90.65-3.98-2.1-14.73-1.82-17.51,.9-11.81,11.69-15.69,87.75-14.66,88.76Z"/><path class="cls-7" d="M845.97,332.55s-4.11,24.4-4.26,24.71-17.72-1.34-17.92-1.48,5.84-21.17,5.84-21.17l-1.74,1.46s-7.12,20.79-9,34.85c-1.88,14.06-3.5,53.77-3.5,53.77l68.35-.69c-1.94-13.9-4.72-27.67-8.33-41.24,0,0-18.88-8.29-22.68-10.74s-4.67-38.62-4.67-38.62l-2.09-.85Z"/><path class="cls-18" d="M821.47,373.2c2.5,2.14,5.39,3.78,8.51,4.82,1.74,.34,10.12-.93,11.51-2.05,.56-.44,1.17-12.61,1-13.4s-18.67-2.7-19.27-2.14c-1.28,1.25-2.28,12.21-1.75,12.77Zm2.1-12.02c.65-.47,17.13,.86,18.36,1.93-.11,2.54-.77,11.97-1.07,12.27s-9.16,2.26-10.7,1.89c-2.28-.53-7.21-3.64-8.04-4.39-.56-.54,1-11.37,1.46-11.69h0Z"/><path class="cls-24" d="M832.11,345.46c4.01,.88,10.77-5.37,13.39-10.38,.18-.34-.41-3.91-.92-8.29-.29-2.65-.56-5.61-.62-8.33l-16.99,4.46c1.04,3.39,1.66,6.89,1.84,10.42,0,.39-.02,.78-.09,1.17v.19c-.33,2.08-.49,9.92,3.4,10.76Z"/><path class="cls-18" d="M826.69,322.92c1.04,3.39,1.66,6.89,1.84,10.42,0,.39-.02,.78-.09,1.17,0,.06,0,.12,0,.18,.58,.08,1.17,.11,1.76,.07,9.92-.41,12.5-12.77,13.01-16.12l-16.53,4.28Z"/><path class="cls-24" d="M845.34,298.37c1.8,6.07-1.54,23.53-5.84,27.39-6.29,5.6-16.52,6.06-21.25-1.48-4.6-7.32,.16-30,5-33.5,7.08-5.16,19.39-1.38,22.09,7.59Z"/><path class="cls-18" d="M828.09,309.13s.08,.08,.07,.13c-.29,1.17-.42,2.52,.55,3.13,0,0,0,.08,0,.07-1.26-.4-1.07-2.28-.62-3.33Z"/><path class="cls-18" d="M829.06,308.13c1.9,.26,1.25,4.04-.51,3.8s-1.09-4.01,.51-3.8Z"/><path class="cls-18" d="M820.88,307.92s-.09,0-.11,.09c-.16,1.17-.55,2.5-1.68,2.71h0c1.37,.16,1.82-1.66,1.79-2.8Z"/><path class="cls-18" d="M820.05,306.52c-1.87-.47-2.66,3.29-.93,3.72s2.51-3.33,.93-3.72Z"/><path class="cls-18" d="M830.86,305.46c-.47-.23-.93-.49-1.38-.77-.52-.21-.96-.57-1.26-1.05-.12-.35,0-.73,.3-.95,.65-.33,1.43-.27,2.03,.14,.66,.32,1.18,.87,1.46,1.55,.15,.45-.09,.94-.54,1.1-.2,.07-.42,.06-.62-.02Z"/><path class="cls-18" d="M819.29,303.34c.54,0,1.04-.08,1.56-.13,.56,.03,1.12-.13,1.59-.44,.26-.26,.31-.67,.12-.98-.46-.57-1.19-.84-1.91-.71-.74,0-1.44,.3-1.97,.81-.33,.35-.32,.89,.03,1.22,.16,.15,.37,.24,.59,.24Z"/><path class="cls-18" d="M827.22,319.7c-.28,.28-.55,.67-.98,.71-.44,0-.88-.09-1.28-.27,0,0-.08,0,0,.07,.36,.46,.94,.7,1.52,.61,.49-.14,.85-.57,.91-1.07-.02-.07-.12-.09-.16-.05Z"/><path class="cls-18" d="M826.29,316.07c-.76,.84-1.84,1.31-2.98,1.32-.49,0-.98-.06-1.45-.19-.17-.04-.35-.1-.51-.16-.14,0-.19-.16-.2-.3h0l.5-2.5c-.36,.11-2.17,.57-2.05,.11,.8-4.05,2.02-8,3.63-11.8,.02-.06,.08-.09,.13-.08,.06,.02,.09,.08,.08,.13-.72,3.75-2.11,7.34-2.89,11.1,.65-.18,1.31-.26,1.98-.26,.06,0-.7,3.05-.7,3.07,1.47,.41,3.04,.2,4.35-.57,.11-.05,.22,.05,.11,.13Z"/><path class="cls-18" d="M822.42,316.85c.39,.74,.95,1.37,1.65,1.83,.39,.23,.84,.34,1.3,.32,.99-.08,1.17-.95,1.17-1.72-.03-.4-.11-.79-.22-1.17-1.18,.66-2.55,.92-3.89,.74Z"/><path class="cls-6" d="M824.07,318.69c.39,.23,.84,.34,1.3,.32,.99-.08,1.17-.95,1.17-1.72-1.05-.17-2.07,.41-2.46,1.4Z"/><path class="cls-18" d="M846.51,315.8c-4.91-.21-6.8-6.29-5.15-10.84,0,0-13.13,.27-12.59-10.19-2.43,2.66-5.93,4.08-9.52,3.85l-1.28,3.5c-1.28-.54-2.28-4.47,1.31-7,.58-3.16,2.36-5.97,4.96-7.84,2.31-1.59,5.34-1.67,7.74-.21,2.43-1.38,5.31-1.76,8.02-1.05,2.85,.8,5.14,2.92,6.15,5.7,0,0,6.28,1.94,6.86,6.62,.39,2.68-.38,5.39-2.11,7.47,0,0,1.41,1.97,.15,5.77-.78,2.44-3.06,4.3-4.53,4.24Z"/><path class="cls-18" d="M829.17,293.88c-.2,.83-.3,1.68-.32,2.53-.04,.84,.03,1.68,.2,2.51,.31,1.63,1.24,3.08,2.58,4.06,1.4,.94,3,1.53,4.67,1.73,.84,.07,1.68,.2,2.53,.22s1.72,0,2.57,0c-.84,.12-1.7,.19-2.57,.27s-1.72,0-2.59,0c-1.76-.14-3.46-.73-4.94-1.7-1.44-1.08-2.4-2.69-2.67-4.47-.26-1.73-.08-3.5,.54-5.15Z"/><path class="cls-18" d="M821.81,299.15c1.47-.33,2.88-.9,4.17-1.68,.62-.4,1.19-.87,1.69-1.41,.51-.56,.94-1.18,1.31-1.84-.16,.77-.48,1.5-.95,2.14-.46,.65-1.05,1.21-1.73,1.63-.67,.41-1.41,.73-2.17,.93-.76,.2-1.54,.28-2.32,.23Z"/><path class="cls-24" d="M840.78,313.63s4.11-5.53,6.64-4.05-.68,9.59-3.72,10.62c-1.56,.65-3.36-.08-4.02-1.65-.02-.04-.03-.08-.05-.11l1.14-4.81Z"/><path class="cls-18" d="M846.44,311.88s.06,.06,0,.08c-2.14,.79-3.3,2.72-4.13,4.67,.49-.79,1.54-1.04,2.33-.54,.08,.05,.15,.1,.21,.16,0,0,0,.12-.07,.11-.75-.26-1.59-.02-2.09,.6-.4,.52-.75,1.07-1.04,1.66-.11,.19-.44,.07-.36-.14h0c.05-2.68,2.25-6.41,5.15-6.58Z"/><path class="cls-24" d="M860.35,356.31c1.17,10.14,1.6,52.98-2.42,60.25-7.28,13.18-54.11,6.58-64.67,6.9-4.4,.13-5.72-32.34-1.46-34.35,2.88-1.34,38.69,4.35,41.17,1.84s9-22.47,12.48-39.04c3.31-15.78,12.49-17.12,14.9,4.4Z"/><path class="cls-24" d="M783.43,385.17c-10.1-2.14-13.03-1.17-20.59-7.47-4.97-4.16-9.76-2.77-7.19,3.5,4.19,10.19,16.64,15.69,21.51,16.34l6.27-12.37Z"/><path class="cls-24" d="M809.84,396.9s-11.02-7.18-21.56-10.5c-7.28-2.33-23.7-5.58-40.71,9.65-4.03,3.62-7.21,11.67,1.52,8.17,6.2-2.49,9.34-5.94,13.25-6.73,0,0-2.84,10.67,.93,14.57,3.31,3.41,6.85,6.58,10.6,9.49,.69-.57,1.35-1.18,1.96-1.83,0,0,5.58,5.63,17.44,3.83l16.57-26.63Z"/><path class="cls-24" d="M780.97,385.28c-3.68,1.6-11.4,5.12-16.74,10.2-5.91,5.64-15.78,18.1-11.57,22.43,3.08,3.16,7.27-1.26,7.27-1.26,0,0-3,6.01,.42,8.26,3.12,2.05,6.15-1.56,6.15-1.56,0,0-1.17,3.96,2.18,5.36,4.06,1.68,5.89-6.89,11.48-8.74,1.25-.41,.79-34.69,.79-34.69Z"/><path class="cls-18" d="M771.24,400.68c-5.29,3.98-9.25,9.47-11.34,15.76,0,.16,0,.28,.13,.14,3.1-5.74,6.88-11.08,11.27-15.9h-.06Z"/><path class="cls-18" d="M776.77,406.87c-2.59,2.07-8.56,9.13-10.39,16.34,0,.16,.06,.28,.13,.14,2.8-5.87,6.26-11.4,10.31-16.49,0,0-.02-.01-.05,.01Z"/><path class="cls-11" d="M796.66,386.99l2.66,39.45s48.74,7.52,60.48-9.44c4.84-7,4.44-45.93,1.37-62.07-3.07-16.14-11.08-24.93-17.09-.89-6.01,24.04-10.13,35.22-11.67,35.92s-35.75-2.98-35.75-2.98Z"/><path class="cls-18" d="M828.34,428.06c15.73-2.33,28.41-5.84,30.35-9.96,1.21-2.4,2.13-4.93,2.73-7.55,.33-2.33,.61-4.64,.86-6.92,.94-8.96,1.25-17.98,.91-26.98-.19-5.09-.58-10.17-1.17-15.23,0-.07,.12-.08,.13,0,.74,4.07,1.3,8.17,1.69,12.29,0-.61,.07-1.17,.08-1.8,.06-1.65,.07-3.29,0-4.94,0-.08,.13-.07,.14,0,.17,1.67,.22,3.35,.15,5.03,0,.93-.15,1.84-.27,2.75,.42,4.75,.62,9.51,.6,14.3,0,4.67-.25,9.34-.72,14.01-.23,2.27-.52,4.54-.85,6.82-.67,3.03-1.63,5.99-2.88,8.84-1.81,3.86-10.83,7.64-31.62,9.47-.12,.02-.23-.11-.13-.12Z"/><path class="cls-18" d="M806.45,391.08c.47,2.7,.79,5.43,.97,8.17,.28,2.8,.48,5.61,.69,8.43s.65,14.09,.77,16.9c-.02,.05-.08,.08-.13,.06-.03-.01-.05-.03-.06-.06-.29-2.81-1.42-13.94-1.62-16.69s-.4-5.52-.51-8.29-.37-5.67-.21-8.46c.01-.09,.12-.13,.12-.06Z"/><path class="cls-18" d="M796.72,387.73l-.11-1.04h.06c5.19,.62,10.36,1.05,15.55,1.45s10.35,.89,15.51,1.25c1.3,.08,3.85,.31,3.85,.31h.81c.13,0,.26,0,.19,0,.16-.17,.29-.36,.4-.56,.29-.5,.55-1.02,.77-1.56,.92-2.15,1.74-4.42,2.56-6.67,1.59-4.51,3.1-9.05,4.63-13.58-1.16,4.65-2.45,9.26-3.9,13.83-.72,2.29-1.47,4.57-2.42,6.8-.23,.57-.5,1.13-.8,1.67-.17,.33-.4,.62-.68,.87-.2,.13-.43,.2-.67,.2h-.88c-1.34,0-2.64,0-3.94-.13-5.19-.34-10.36-.97-15.53-1.55s-10.32-1.36-15.46-2.23h0l.06,.96Z"/><path class="cls-18" d="M838.75,373.66c-.16-1.09-.21-2.19-.13-3.28,.04-.55,.1-1.09,.2-1.63,.09-.54,.22-1.08,.4-1.6,.07,1.09,.07,2.18,0,3.27-.06,1.09-.22,2.18-.47,3.24Z"/></g><g id="freepik--character-1--inject-5"><path class="cls-18" d="M712.4,348.7c-.29-2.43-.36-4.88-.21-7.32,.09-2.44,.41-4.87,.96-7.26,.53,4.87,.28,9.79-.75,14.58Z"/><path class="cls-18" d="M701.41,350.86c-1.47-1.96-2.75-4.05-3.85-6.23-1.13-2.16-2.07-4.43-2.8-6.76,1.47,1.96,2.75,4.04,3.84,6.23,1.14,2.16,2.08,4.42,2.81,6.76Z"/><path class="cls-18" d="M692.94,358.24c-2.25-.98-4.4-2.15-6.44-3.5-2.08-1.31-4.03-2.8-5.84-4.46,2.25,.97,4.41,2.14,6.44,3.5,2.08,1.3,4.03,2.8,5.84,4.46Z"/><path class="cls-18" d="M689.31,368.86c-4.87,.53-9.79,.28-14.58-.74,2.43-.29,4.88-.37,7.32-.22,2.44,.1,4.87,.42,7.26,.96Z"/><path class="cls-18" d="M691.47,379.88c-1.96,1.46-4.05,2.75-6.23,3.84-2.16,1.14-4.42,2.08-6.76,2.8,1.96-1.47,4.04-2.75,6.23-3.84,2.16-1.14,4.42-2.08,6.76-2.8Z"/><path class="cls-18" d="M698.84,388.33c-1.98,4.48-4.65,8.61-7.92,12.26,1.98-4.48,4.65-8.61,7.92-12.26Z"/><path class="cls-18" d="M709.46,391.97c.53,4.86,.28,9.78-.74,14.57-.3-2.43-.37-4.88-.22-7.32,.1-2.44,.42-4.86,.96-7.25Z"/><path class="cls-18" d="M720.47,389.81c2.91,3.94,5.15,8.33,6.65,12.99-2.89-3.95-5.13-8.34-6.65-12.99Z"/><path class="cls-18" d="M728.93,382.42c4.48,1.98,8.61,4.65,12.26,7.92-2.25-.96-4.41-2.14-6.44-3.5-2.07-1.3-4.01-2.78-5.81-4.42Z"/><path class="cls-18" d="M732.56,371.81c4.87-.54,9.79-.29,14.58,.74-2.43,.29-4.88,.36-7.32,.21-2.44-.1-4.87-.42-7.26-.95Z"/><path class="cls-18" d="M730.4,360.8c3.95-2.89,8.34-5.13,12.99-6.65-1.95,1.47-4.04,2.76-6.22,3.85-2.17,1.13-4.43,2.07-6.77,2.8Z"/><path class="cls-18" d="M723.03,352.33c1.98-4.48,4.65-8.61,7.92-12.26-.97,2.25-2.14,4.41-3.5,6.45-1.3,2.06-2.78,4-4.42,5.8Z"/><path class="cls-21" d="M643.79,691.98c-2.49,.57-71.58-6.23-74.04-8.17-.95-.72-.54-10.84,.29-23.05,.18-2.64,.39-5.36,.61-8.17,1.4-17.95,3.33-36.95,3.33-36.95l44.89,4.06-3.27,37.17-1,8.09s25.29,14.44,27.78,16.84,3.92,9.57,1.42,10.18Z"/><path class="cls-19" d="M643.79,691.98c-2.49,.57-71.58-6.23-74.04-8.17-1.17-.89-.32-15.64,.9-31.17l44.95,4.28-1,8.09s25.29,14.44,27.78,16.84,3.92,9.52,1.42,10.13Z"/><path class="cls-11" d="M643.79,691.98c-2.49,.57-71.58-6.23-74.04-8.17-.95-.72-.54-10.84,.29-23.05l44.55,4.25s25.29,14.44,27.78,16.84,3.92,9.52,1.42,10.13Z"/><path class="cls-18" d="M643.05,689.12c-11.55-1.42-58.29-6.08-69.82-6.61-.09,0-.11,0,0,.07,11.43,1.66,58.19,5.93,69.81,6.72,.26,.01,.28-.16,.01-.19Z"/><path class="cls-18" d="M638.16,678.94c-2.59-.32-5.2,.46-7.2,2.15-1.79,1.49-2.94,3.61-3.2,5.93,0,.07,.12,.08,.14,0,1.27-4.63,5.45-7.86,10.25-7.94,.04-.02,.06-.07,.04-.11,0-.01-.01-.02-.03-.03Z"/><path class="cls-18" d="M618.97,666.62c-4.67-.53-10.17,.58-13.42,4.1-.13,.13,.07,.3,.21,.26,4.26-1.73,8.7-3,13.24-3.78,.16-.04,.25-.2,.22-.35-.03-.11-.12-.2-.24-.22Z"/><path class="cls-18" d="M622.41,668.37c-4.67-.53-10.15,.58-13.41,4.09-.13,.14,.07,.32,.21,.26,4.26-1.73,8.69-2.99,13.22-3.77,.16-.04,.25-.2,.22-.35-.03-.11-.12-.2-.24-.22Z"/><path class="cls-18" d="M625.85,670.11c-4.67-.51-10.17,.58-13.41,4.1-.13,.14,.07,.32,.21,.26,4.26-1.73,8.69-2.99,13.22-3.77,.16,0,.29-.14,.28-.3,0-.16-.14-.29-.3-.28h0Z"/><path class="cls-18" d="M629.29,671.86c-4.67-.53-10.17,.58-13.42,4.1-.12,.13,.07,.32,.22,.26,4.26-1.73,8.69-2.99,13.22-3.78,.16-.04,.25-.2,.22-.35-.03-.11-.12-.2-.24-.22Z"/><path class="cls-18" d="M577.3,671.8c-5.21-.49-5.99,7.59-.78,8.09s5.99-7.59,.78-8.09Z"/><path class="cls-18" d="M625.2,654.74c-2.16-2.17-5.3-.56-6.94,1.32-2.76,3.28-4.62,7.22-5.38,11.44,0,.09,.06,.14,.14,.14,.03,.31,.3,.53,.61,.5,.06,0,.13-.02,.18-.05,3.5-1.95,7.54-3.61,10.35-6.59,1.65-1.74,3.08-4.69,1.04-6.76Zm-6.48,9.34c-1.72,1.02-3.5,1.93-5.14,2.99,.98-2.26,2.08-4.46,3.29-6.61,.59-1.03,1.26-2.02,2-2.96,1.17-1.42,6.09-4.86,6.06,.23-.02,2.75-4.18,5.11-6.21,6.3v.05Z"/><path class="cls-18" d="M601.19,668.03c3.98,1.02,8.25,.28,12.28,0,.31-.04,.52-.32,.49-.63,0-.06-.03-.12-.05-.18,.05-.05,.05-.14,0-.2,0,0,0,0,0,0-2.9-3.16-6.57-5.51-10.66-6.8-2.33-.71-5.91-.39-6.57,2.6s2.19,4.66,4.52,5.21Zm-2.53-2.92c-2.75-4.28,3.24-4.01,5-3.42,1.12,.4,2.21,.88,3.27,1.44,2.17,1.17,4.28,2.45,6.31,3.84-1.98,0-3.96,.14-5.94,.21-2.36,.12-7.13,.35-8.59-2.02l-.05-.05Z"/><path class="cls-7" d="M580.56,401.18s-1.83,125.83-1.02,135.53c.2,2.21-.76,14.01-2.16,29.18-3.03,33.09-8.31,92.79-8.31,92.79l47.78,4.95s12.24-103.12,11.92-122.36c-.33-19.25-3.19-135.39-3.19-135.39l-45.03-4.69Z"/><path class="cls-18" d="M615.38,654.31c-7.42-.93-5.28-.78-12.7-1.63-3.64-.41-27.52-3.12-30.99-2.85-.07,0-.08,.14,0,.16,3.34,.97,27.26,3.21,30.91,3.5,7.45,.7,5.31,.41,12.77,1,.05-.04,.07-.11,.03-.16,0,0-.01-.02-.02-.03Z"/><path class="cls-18" d="M584.88,591.48l2.15-22.65c.71-7.32,1.47-14.62,1.88-21.97,.83-14.85-.67-29.69-1.28-44.53-.62-14.83-.89-29.69-.97-44.55-.11-16.67,0-33.33,0-50,0-.11-.18-.13-.19,0-.6,29.69-.9,59.42,.14,89.1,.26,7.39,.62,14.78,1.07,22.18,.46,7.47,.9,14.94,.71,22.42s-.85,14.62-1.53,21.92c-.7,7.54-1.4,15.08-2.11,22.63-1.58,16.76-4.09,42.55-5.65,59.31,.03,.14,.17,.23,.31,.2,.1-.02,.18-.1,.2-.2,1.48-14.94,3.84-38.91,5.28-53.86Z"/><path class="cls-18" d="M569.59,400.05s9.14,126.96,9.96,136.66c.2,2.21-.76,14.01-2.16,29.18h0l41.69-160.76-49.49-5.08Z"/><path class="cls-21" d="M520.25,682.04c-2.33-.89-56.5-44.35-57.52-47.35-.39-1.17,5.49-9.34,12.84-19.13,1.59-2.11,3.26-4.28,4.95-6.48,10.99-14.24,23-29.11,23-29.11l35.35,28.01-23.04,29.25-5.26,6.22s13.27,25.92,14.01,29.28-1.93,10.14-4.33,9.3Z"/><path class="cls-19" d="M520.25,682.04c-2.33-.89-56.5-44.35-57.52-47.35-.47-1.37,8.3-13.26,17.82-25.61l35.28,28.15-5.26,6.22s13.27,25.92,14.01,29.28-1.93,10.14-4.33,9.3Z"/><path class="cls-11" d="M520.25,682.04c-2.33-.89-56.5-44.35-57.52-47.35-.39-1.17,5.49-9.34,12.84-19.13l35.01,27.94s13.27,25.92,14.01,29.28c.74,3.36-1.94,10.1-4.34,9.26Z"/><path class="cls-18" d="M521.21,679.2c-8.89-7.52-45.46-36.99-54.86-43.73-.07-.06-.12,0,0,0,8.65,7.63,45.52,36.81,54.75,43.83,.18,.21,.29,.07,.11-.09Z"/><path class="cls-18" d="M522.67,668.03c-1.99-1.69-4.61-2.47-7.2-2.15-2.31,.27-4.43,1.42-5.92,3.21,0,.06,0,.14,.11,.09,3.6-3.19,8.87-3.61,12.93-1.04,.03,.02,.08,.01,.1-.02,.02-.03,.01-.08-.02-.1Z"/><path class="cls-18" d="M513.36,647.18c-3.59-2.96-8.84-5.07-13.48-3.91-.18,0-.11,.3,0,.33,4.51,.89,8.91,2.25,13.13,4.09,.14,.1,.33,.06,.43-.08s.06-.33-.08-.43Z"/><path class="cls-18" d="M515.27,650.53c-3.58-2.96-8.82-5.07-13.47-3.91-.18,0-.11,.29,0,.33,4.51,.89,8.91,2.26,13.13,4.09,.14,.09,.33,.06,.42-.08,.09-.14,.06-.33-.08-.42Z"/><path class="cls-18" d="M517.2,653.88c-3.58-2.98-8.82-5.08-13.47-3.92-.18,0-.12,.3,0,.34,4.51,.89,8.92,2.25,13.14,4.07,.14,.09,.32,.05,.41-.08s.05-.32-.08-.41h0Z"/><path class="cls-18" d="M519.13,657.22c-3.58-2.96-8.82-5.07-13.47-3.91-.18,0-.12,.3,0,.33,4.51,.89,8.92,2.26,13.14,4.09,.14,.09,.32,.05,.41-.09,.09-.14,.05-.32-.09-.41Z"/><path class="cls-18" d="M475.64,628.71c-4.09-3.27-9.16,3.08-5.08,6.35s9.16-3.08,5.08-6.35Z"/><path class="cls-18" d="M525.07,640.65c-.61-3-4.12-3.37-6.52-2.71-4.11,1.22-7.82,3.51-10.76,6.63-.05,.04-.06,.13-.02,.18,0,0,.01,.01,.02,.02-.14,.28-.02,.63,.26,.77,.05,.02,.1,.04,.16,.05,4.01,.29,8.29,1.1,12.28,.15,2.36-.56,5.17-2.22,4.59-5.09Zm-10.66,4.13c-1.98-.09-3.94-.28-5.93-.3,2.06-1.36,4.18-2.6,6.37-3.73,1.06-.54,2.16-1,3.29-1.39,1.75-.56,7.75-.74,4.94,3.5-1.55,2.35-6.31,2.04-8.67,1.93h0Z"/><path class="cls-18" d="M497.67,638.67c2.77,3.03,6.76,4.75,10.25,6.77,.29,.13,.63,0,.76-.28,.02-.05,.04-.11,.05-.16,.07,0,.15,0,.13-.14-.68-4.23-2.47-8.21-5.18-11.53-1.62-1.9-4.74-3.56-6.92-1.42s-.69,5.01,.92,6.77Zm-.53-3.98c0-5.09,4.91-1.58,6.06-.13,.72,.96,1.37,1.96,1.95,3,1.17,2.16,2.23,4.38,3.17,6.65-1.65-1.09-3.38-2.03-5.08-3.07-2.02-1.27-6.09-3.61-6.09-6.45h-.01Z"/><path class="cls-7" d="M514.73,641.65l-38.24-28.47s57.9-72.71,58.88-79.69c1.47-10.38,10.92-52.86,18.67-87.24,0,0-6.01-19.68,11.83-46.6l59.71,6.17s-6.8,26.68-15.44,43.18c-4.77,1.13-9.42,2.69-13.9,4.67,0,0-14.01,77.03-15.17,86.67-2.4,19.07-66.35,101.31-66.35,101.31Z"/><path class="cls-18" d="M520.08,631.43c-5.98-4.67-4.19-3.43-10.21-8.03-2.94-2.25-22.33-17.04-25.47-18.67-.07,0-.15,.08-.11,.14,2.4,2.57,22.06,16.99,25.06,19.18,6.12,4.48,4.41,3.13,10.57,7.53,.12,.13,.26-.06,.15-.14Z"/><path class="cls-18" d="M612.59,448.02c-5.6,1.4-11.07,3.28-16.34,5.63-.09,.03-.14,.13-.11,.23,.03,.09,.13,.14,.23,.11h0c5.46-1.7,11.03-3.3,16.4-5.31,.17-.1,.23-.31,.13-.48-.06-.11-.18-.18-.3-.18Z"/><path class="cls-18" d="M606.17,438.61c.84-3.07,1.58-6.15,2.17-9.34,1.15-5.81,1.7-11.72,1.63-17.65,0-.08-.07-.15-.15-.15-.08,0-.15,.07-.15,.15-.71,8.16-2.04,16.26-3.97,24.23-.98,3.82-3.5,9.45,.46,10.5s7.75-8.46,8.53-11.09c2.07-7.49,3.17-15.21,3.26-22.98,0-.18-.3-.25-.33,0-.61,6.22-1.56,11.67-2.68,17.4-.53,2.67-4.24,17.36-8.8,15.78-.77-.26-1.09-1.07-1.09-2.26,.18-1.54,.55-3.05,1.1-4.51"/><path class="cls-18" d="M606.24,445.8c-.52,.96-.98,1.96-1.38,2.98-.38,.78-.62,1.63-.7,2.5,.02,.1,.11,.17,.21,.16,.04,0,.07-.02,.1-.05,.57-.7,1.02-1.49,1.34-2.33,.46-.92,.93-1.83,1.37-2.77,.13-.26,.03-.58-.23-.71s-.58-.03-.71,.23Z"/><path class="cls-18" d="M572.55,404.11c-2.13,2.93-3.97,6.05-5.5,9.34-1.54,3.28-2.79,6.69-3.73,10.19-.53,1.73-.83,3.5-1.17,5.29s-.6,3.56-.68,5.37c-.29,3.6-.25,7.22,.24,10.81v.12c-3.04,14.92-6.03,29.82-9.07,44.71-3.03,14.89-6.08,29.79-9.13,44.69l-.28,1.4-.14,.69c-.04,.26-.12,.51-.23,.75-.49,.86-1.04,1.69-1.65,2.47-1.17,1.55-2.28,3.06-3.43,4.58-2.33,3.01-4.67,6-7,8.99-4.67,5.96-32.04,40.43-41.74,52.14l40.94-52.75c2.33-2.99,4.67-5.99,7-9,1.17-1.52,2.33-3.03,3.4-4.56,.55-.73,1.05-1.48,1.52-2.26,.1-.19,.16-.4,.18-.61l.14-.7,.28-1.39c3-14.9,6.05-29.79,9.13-44.65,3.08-14.87,6.15-29.73,9.08-44.58v.12c-.22-3.64-.22-7.31,.13-10.95,.11-1.82,.48-3.62,.76-5.42s.76-3.57,1.32-5.3c1.02-3.5,2.34-6.9,3.97-10.17,1.58-3.27,3.47-6.39,5.66-9.29Z"/><path class="cls-18" d="M607.48,288.6c4.9-3.56,12.59-5.12,18.67-2.33,6.08,2.79,11.92,9.89,10.06,20.64-1.51,8.73-6.2,16.46-8.46,26.05-2.26,9.59,2.89,35.55-17.23,42.75-18.07,6.47-47.4-10.56-43.29-31.86,3.27-16.89,26.84-27.54,30.5-33.65s4.38-17.69,9.75-21.59Z"/><path class="cls-18" d="M602.35,297.33c-1.17,4.85-3.28,9.42-6.21,13.46-.78,1.02-1.7,1.92-2.73,2.68-1,.78-2.03,1.49-3.06,2.21-2.08,1.39-4.13,2.78-6.12,4.25-3.97,2.87-7.51,6.29-10.5,10.17-2.93,3.93-5.09,8.38-6.37,13.11,.38-2.45,1.04-4.84,1.96-7.14,.93-2.31,2.11-4.51,3.5-6.57,2.88-4.11,6.43-7.71,10.5-10.64,2.02-1.49,4.12-2.88,6.2-4.25,2.11-1.22,4.03-2.73,5.71-4.49,1.57-1.86,2.91-3.91,4-6.08,1.18-2.16,2.22-4.4,3.12-6.69Z"/><path class="cls-18" d="M633.97,314.03c-1.3,4.84-2.78,9.64-3.82,14.51-.54,2.42-.93,4.88-1.17,7.35-.21,2.43-.07,4.95,0,7.47s0,5.05-.25,7.57c-.22,2.53-.66,5.04-1.31,7.49-.7,2.47-1.76,4.83-3.14,7-1.48,2.09-3.37,3.85-5.56,5.18,1.99-1.52,3.68-3.4,4.97-5.54,1.2-2.15,2.1-4.46,2.66-6.86,.96-4.88,1.36-9.85,1.17-14.82,0-2.5-.12-5.02,.14-7.6,.28-2.52,.75-5.01,1.41-7.46,1.33-4.86,2.96-9.64,4.88-14.3Z"/><path class="cls-21" d="M616.29,350.57c5.14,11.3,25.19,47.62,37.35,49.7,8.01,1.38,52.81-.96,57.31-4.94,3.06-2.71-3.38-32.29-7.62-31.2s-41.43,5.65-44.63,4.87-28.01-26.94-37.17-33.31c-15.71-10.92-7.99,8.85-5.23,14.88Z"/><path class="cls-11" d="M644.57,355.05l-19.61,12.84s-9.19-15.76-12.98-26.16c-3.79-10.4-1.17-15.37,11.47-5.4,7.41,5.8,14.46,12.06,21.11,18.72Z"/><path class="cls-18" d="M623.91,363.76c2.59-2.05,5.22-4.05,7.9-5.98,1.32-.95,2.64-1.91,3.98-2.84s2.82-1.81,4.21-2.77c.09-.07,.21,.08,.12,.15-1.31,.97-2.54,2.03-3.84,3.01s-2.72,1.96-4.07,2.94c-2.68,1.93-5.43,3.79-8.17,5.59-.11,.05-.2-.06-.13-.12Z"/><path class="cls-16" d="M611.98,341.69c3.78,10.41,12.98,26.17,12.98,26.17l16-10.5-28.01-26.49c-3.2,.26-3.26,4.54-.97,10.83Z"/><path class="cls-11" d="M625.55,405.85l3.58-21.24s10.42-6.02,6.92-17.22c-1.48-4.67-13.2-29.88-20.5-35.75-6.84-5.51-12.84-4.33-17.11-.74-13.64,11.52-24.51,38.67-32.53,68.72l59.63,6.22Z"/><path class="cls-18" d="M610.45,376.8c3.27,.11,6.53,.47,9.75,1.09,1.6,.33,3.16,.74,4.74,1.17,.78,.22,1.58,.41,2.33,.6,.82,.23,1.67,.34,2.52,.35,.07,0,.08,.12,0,.12-.77,.1-1.55,.13-2.33,.11-.79-.05-1.57-.15-2.33-.32-1.63-.32-3.23-.71-4.86-1.05-3.27-.68-6.54-1.35-9.84-1.77-.15-.01-.14-.28,.02-.28Z"/><path class="cls-18" d="M602.62,380.38c2.66-.46,5.34-.77,8.03-.92,1.34-.07,2.68-.06,4.04,0l1.93,.11c.71,0,1.41,.21,2.11,.25,.08,0,.08,.13,0,.13-.67,0-1.34,.08-2.01,.11l-2.01,.07-4.04,.16c-2.68,.07-5.36,.18-8.05,.35-.13,0-.13-.22,0-.25Z"/><rect class="cls-11" x="628.68" y="359.64" width="83.06" height="59.09" transform="translate(-.41 .7) rotate(-.06)"/><rect class="cls-15" x="628.68" y="359.64" width="83.06" height="59.09" transform="translate(-.41 .7) rotate(-.06)"/><rect class="cls-17" x="628.68" y="359.67" width="28.06" height="59.03" transform="translate(-.41 .68) rotate(-.06)"/><path class="cls-11" d="M630.21,415.04c2.09-4.2,4.16-8.41,6.21-12.63l6.12-12.69,6.05-12.73c2.01-4.26,3.98-8.52,5.95-12.84-2.09,4.19-4.16,8.4-6.22,12.62l-6.12,12.69-6.03,12.75c-2,4.27-3.98,8.55-5.95,12.84Z"/><path class="cls-11" d="M630.21,364.22c1.97,4.27,3.96,8.55,5.98,12.84l6.07,12.72,6.15,12.68c2.05,4.22,4.13,8.42,6.23,12.61-1.97-4.27-3.96-8.55-5.98-12.84l-6.07-12.72-6.14-12.68c-2.1-4.21-4.18-8.41-6.24-12.61Z"/><polygon class="cls-3" points="646.72 375.68 645.57 375.68 644.63 374.43 643.77 375.68 643.24 375.68 642.68 375.68 641.88 375.68 641.57 375.23 641.18 375.68 640.21 375.68 639.98 375.68 639.65 375.68 639.51 375.37 639.23 375.68 638.81 375.13 638.36 375.68 637.71 375.68 637.69 360.68 646.71 360.68 646.72 375.68"/><rect class="cls-18" x="694.71" y="406.68" width="1" height="8"/><rect class="cls-18" x="696.71" y="406.68" width="1" height="8"/><rect class="cls-18" x="697.71" y="406.68" width="1" height="8"/><rect class="cls-18" x="698.71" y="407.68" width="1" height="8"/><rect class="cls-18" x="700.71" y="406.68" width="1" height="8"/><rect class="cls-18" x="701.71" y="406.68" width="1" height="8"/><rect class="cls-18" x="703.71" y="406.68" width="1" height="8"/><rect class="cls-18" x="704.71" y="406.68" width="1" height="8"/><rect class="cls-18" x="706.71" y="406.68" width="1" height="8"/><path class="cls-18" d="M689.71,414.54l1.73,.14h-5.43l2.7-.15v-3.12c-2.02-.21-2.7-1.84-2.7-4.73h5.44c0,2.91-.65,4.54-1.74,4.73v3.13Z"/><polygon class="cls-18" points="684.72 410.68 683.71 410.68 683.71 414.68 679.71 414.68 679.71 410.68 678.25 410.68 681.49 406.71 684.72 410.68"/><polygon class="cls-15" points="711.71 418.63 711.71 414.56 656.71 407.11 656.72 418.68 711.71 418.63"/><path class="cls-21" d="M592.36,346.73c-2.45,20.14-.3,61.06,5.7,66.46,10.38,9.34,31.82,17.61,44.07,20.21,4.17,.89,10.78-31.09,6.23-31-5.44,.11-29.93-10.24-30.35-11.31-.64-1.45-8.15-25.35-13.28-41.69-6.15-19.6-11.39-10.7-12.37-2.67Z"/><path class="cls-21" d="M639.03,432.87c10.95,3.31,24.38,8.17,36.92,5.07,1.4-.3,2.67-1.07,3.58-2.17,5.65-1.26,6.75-4.31,6.75-4.31,4.89-2.79,5.59-6.06,5.59-6.06,0,0,6.62-1.55,6.34-5.71-.3-4.67-9.52-1.56-15.64-2.96-14.01-3.21-33.04-11.67-36.99-13.01l-6.55,29.16Z"/><path class="cls-18" d="M665.51,423.68c4.09,.99,8.24,1.69,12.43,2.11,4.6,.18,9.22,0,13.8-.5,.06,.02,.09,.09,.07,.15-.01,.04-.04,.06-.07,.07-8.75,1.88-17.86,1.31-26.31-1.65-.2-.07-.13-.22,.08-.19Z"/><path class="cls-18" d="M662.35,431.86c4.07,.62,11.25,1.65,23.9-.55,0,0,.07,.07,0,.08-7.77,2.44-16.07,2.66-23.96,.65-.22-.06-.22-.23,.06-.19Z"/><path class="cls-18" d="M660.94,436.29c7,.78,11.47,.4,18.77-.55v.07c-8.17,1.95-11.37,1.73-18.84,.71-.25-.04-.21-.27,.07-.23Z"/><path class="cls-21" d="M665.92,411.79c-1.66-1.17-1.07-2.02,2.5-2.24s17.9,1.89,18.23-3.17-19.96-7.77-25.88-6.93-15.17,4.27-15.17,4.27c3.82,1.32,12.82,5.39,20.32,8.08Z"/><path class="cls-11" d="M612.59,373.45l-23.41,.91s.22-18.24,2.33-29.12c2.11-10.88,6.91-13.76,12.62,1.26,3.36,8.8,6.19,17.8,8.46,26.95Z"/><path class="cls-18" d="M590.39,370.3c3.28-.43,6.56-.79,9.85-1.06,1.62-.13,3.23-.29,4.86-.4s3.36-.09,5.04-.2c.12,0,.14,.18,0,.19-1.61,.16-3.22,.43-4.83,.61s-3.35,.29-5.02,.43c-3.29,.28-6.59,.47-9.9,.58-.07-.04-.09-.14,0-.15Z"/><path class="cls-18" d="M612.35,373.52c-1.17-3.27-1.81-6.68-2.73-10.01s-1.9-6.69-2.96-9.98c0-.03,.03-.06,.06-.06s.06,.03,.06,.06c.62,1.61,1.27,3.21,1.83,4.84,.28,.82,.54,1.63,.78,2.46,0-.34-.07-.69-.09-1.03-.06-1.03,0-2.07,0-3.09,0-.06,.09-.06,.09,0,.17,1.02,.28,2.05,.33,3.08v2.24l.42,1.45c1.08,3.27,1.87,6.63,2.33,10.04-.03,.03-.08,.03-.12,0Z"/><path class="cls-18" d="M591.48,374.68l-2.33-1h-.43v-4.5c.31-1.72,.4-3.43,.51-5.15s.2-3.43,.39-5.14,.36-3.42,.65-5.11l-.48,10.27-.19,5.18-.3,5.14-.12,.3h2.3Z"/><path class="cls-18" d="M589.18,355.91c.05,1.55,.25,3.08,.61,4.59-.18-.35-.33-.72-.44-1.1-.12-.38-.21-.77-.27-1.17-.13-.77-.09-1.56,.11-2.32Z"/><path class="cls-21" d="M602.03,331.27c.22,1.17,8.7,9.34,14.26,9.42,1.81,0-.81-9.86-.81-9.86l.2-.72,2.86-10.11-11.67-8.33-1.68-1.17s-.6,2.81-1.3,6.33c0,.16-.06,.33-.09,.5s-.09,.39-.13,.57c-.11,.53-.22,1.06-.32,1.6s-.16,.79-.22,1.17-.15,.85-.22,1.28c-.51,3.08-.81,6.2-.89,9.33Z"/><path class="cls-18" d="M603.92,316.88c1.78,5.93,6.09,10.76,11.76,13.22l2.86-10.11-11.67-8.33-1.68-1.17s-.57,2.87-1.27,6.38Z"/><path class="cls-21" d="M633.41,302.78c2.95,18.18-7.61,22-11.53,22.63-3.56,.57-15.76,2.07-20.57-15.72-4.81-17.79,2.72-24.9,10.8-26.63,8.08-1.74,18.36,1.54,21.3,19.72Z"/><path class="cls-18" d="M601.5,308.38c4.38-.28,3.83-7.19,3.83-7.19,0,0,4.94-.82,4.67-8.86,2.2,3.12,5.73,5.02,9.55,5.15,1.45,.11-3.61-3.23-3.61-3.23,0,0,6.1,4.75,16.59,2,.74-.2-1.69-11.27-10.32-14.48-8.63-3.21-15.97-.47-20.73,5.17-2.87,1.79-4.65,4.9-4.76,8.28-.22,5.84,3.08,13.35,4.79,13.18Z"/><path class="cls-21" d="M604.42,309.35s-4.44-5.43-6.92-3.8,1.17,9.71,4.27,10.62c1.62,.59,3.41-.24,4-1.86,.02-.04,.03-.08,.04-.12l-1.39-4.83Z"/><path class="cls-18" d="M598.71,307.91c2.21,.71,3.5,2.61,4.42,4.67-.54-.79-1.62-.98-2.4-.44-.07,.05-.14,.1-.2,.16-.06,0,0,.13,.07,.12,.75-.31,1.62-.1,2.15,.51,.45,.5,.84,1.04,1.17,1.62,.12,.19,.46,0,.36-.16h0c-.21-2.84-2.61-6.5-5.57-6.56v.08Z"/><path class="cls-18" d="M629.98,300.94c-.42-.02-.84-.06-1.26-.14-.46,.01-.9-.13-1.27-.4-.2-.22-.23-.54-.07-.79,.39-.45,.99-.65,1.56-.53,.59,.03,1.15,.28,1.56,.7,.26,.28,.24,.72-.04,.97-.13,.12-.31,.19-.49,.18Z"/><path class="cls-18" d="M617.62,302.38c.4-.12,.79-.26,1.17-.42,.45-.09,.86-.32,1.17-.67,.15-.26,.11-.58-.11-.79-.47-.35-1.1-.41-1.63-.16-.57,.15-1.07,.52-1.38,1.03-.19,.34-.06,.76,.28,.95,.15,.08,.33,.11,.5,.07Z"/><path class="cls-18" d="M620.68,305.43s-.08,.07-.08,.13c.19,1.24,.2,2.68-.89,3.23,0,0,0,.08,0,.07,1.38-.3,1.35-2.29,.97-3.43Z"/><path class="cls-18" d="M619.39,304.26c-2.02,.08-1.7,4.12,.16,4.04s1.53-4.11-.16-4.04Z"/><path class="cls-18" d="M618.61,304.61c-.33,.25-.64,.68-1.06,.76s-.9-.3-1.25-.69h-.07c0,.78,.41,1.55,1.25,1.6s1.26-.68,1.39-1.47c.02-.11-.12-.3-.26-.2Z"/><path class="cls-18" d="M627.14,304.82s.09,0,.09,.11c.06,1.25,.33,2.67,1.48,3.01v.07c-1.4-.09-1.74-2-1.58-3.19Z"/><path class="cls-18" d="M628.48,303.43c2.01-.29,2.45,3.72,.6,4s-2.26-3.76-.6-4Z"/><path class="cls-18" d="M629.35,303.12c.34,.18,.7,.53,1.07,.51s.72-.49,.96-.95h.07c.11,.77-.06,1.6-.78,1.83s-1.17-.4-1.49-1.17c-.05-.08,.04-.32,.18-.23Z"/><path class="cls-18" d="M621.51,315.56c.3,.28,.62,.68,1.07,.7,.47-.03,.92-.16,1.34-.36h0c-.35,.51-.96,.79-1.58,.74-.53-.12-.93-.54-1.03-1.07,0-.05,.04-.09,.09-.09s.09,.04,.09,.09Z"/><path class="cls-18" d="M626.32,310.53s.43,1.84,.51,2.72c0,.08-.21,.14-.5,.19h0c-1.51,.42-3.14-.03-4.21-1.17-.06-.08,0-.18,.13-.13,1.19,.67,2.57,.93,3.92,.75,0-.26-.84-3.13-.7-3.15,.69,0,1.38,.08,2.04,.27-.78-3.86-2.17-7.57-2.89-11.44,0-.13,.18-.2,.22-.07,1.62,3.93,2.84,8,3.64,12.17,.08,.48-1.76-.02-2.16-.14Z"/><path class="cls-18" d="M625.7,313.01c-.39,.67-.94,1.24-1.61,1.63-.37,.21-.8,.29-1.23,.25-.91-.12-1.04-.93-.97-1.65,.03-.4,.11-.79,.25-1.17,1.05,.69,2.3,1.01,3.56,.93Z"/><path class="cls-6" d="M624.09,314.65c-.37,.21-.8,.29-1.23,.25-.91-.12-1.04-.93-.97-1.65,.97-.09,1.87,.49,2.19,1.4Z"/><path class="cls-11" d="M628.9,285.21c-2.18,0-13.55,3.08-18.17,6.52-4.62,3.44-11.97,13.04-12.35,13.54s-7.26-17.81,7.22-24.93c15.78-7.8,23.3,4.87,23.3,4.87Z"/><path class="cls-11" d="M599.06,304.25s6.92-15.78,11.82-20.2,17.08-9.14,25.68-7.57c6.71,1.17-6.23,12.58-6.23,12.58-.6-1.21-1.74-2.08-3.07-2.33-4.16-.6-11.08,2.33-14.85,4.67-4.75,2.95-13.35,12.86-13.35,12.86Z"/><path class="cls-14" d="M599.06,304.25s6.92-15.78,11.82-20.2,17.08-9.14,25.68-7.57c6.71,1.17-6.23,12.58-6.23,12.58-.6-1.21-1.74-2.08-3.07-2.33-4.16-.6-11.08,2.33-14.85,4.67-4.75,2.95-13.35,12.86-13.35,12.86Z"/><path class="cls-11" d="M615.5,330.81l-2.91,8.28-10.57-9.85-2.72,3.43s10.62,15.92,10.64,15.17l3.05-7.17,5.05,4.67-.93-12.23-1.61-2.3Z"/><path class="cls-18" d="M617.92,339.29c-.22-2.02-.39-4.05-.7-6.06,0-.07-.13-.09-.14,0-.33,1.97,.57,9.66,.64,11.52h0c-.21-.2-4.67-4.09-4.67-4.03-.68,1.17-2.92,6.36-3.06,6.84-1.68-2.53-8.1-11.67-10.06-14.09,0-.07-.16,0-.12,.07,1.51,2.68,10,15.06,10.12,15.02,1.19-2.47,2.26-5,3.19-7.57,.76,.85,5.29,5.28,5.29,4.97-.05-2.23-.21-4.46-.49-6.68Z"/><path class="cls-21" d="M714.86,358.46c2.43,4.47,8.17,9.89,8.86,13.62,.38,1.86-.5,3.76-2.17,4.67,0,0,3.84,1.67,3.86,5.15,0,1.79-2.82,3.38-2.82,3.38,1.73,.87,2.83,2.64,2.85,4.58-.13,2.46-2.96,3.69-2.96,3.69,0,0,2.24,2.77,1.3,5.24-1.9,5.01-23.07,6.1-26.75-1.52-1.72-3.5,3.5-3.5,3.5-3.5,0,0-7.45-1.81-7.78-6.17s6.4-3.93,6.4-3.93c0,0-7.21-1.83-7.11-6.38,.11-4.74,6.78-3.16,6.78-3.16,0,0-4.88-2.95-4-6.42,1.45-5.73,10.74,.9,15.34-.46l2.16-7.8,2.57-.98Z"/><path class="cls-21" d="M719.45,364.9c-1.93-4.44,3.4-10.32,2.17-14.83-1.67-6.09-8.3,.32-9.34,9.34l.4,7.17,6.77-1.67Z"/><path class="cls-18" d="M722.05,393.85c.07,0,.11,.08,0,.11-7.12,2.14-14.72,2.07-21.8-.2-.22-.08-.19-.48,.07-.43,7.18,1.23,14.5,1.4,21.73,.53Z"/><path class="cls-18" d="M722.69,385.35c.08,0,.09,.13,0,.15-7.89,2.32-16.36,1.73-23.86-1.66-.26-.13-.36-.49,0-.37,5.16,2.11,17.06,2.82,23.86,1.88Z"/><path class="cls-18" d="M698.29,373.66c7.35,3.23,15.02,3.79,22.96,3.22,.11,0,.11,.14,0,.18-3.82,1.33-8.92,1.17-12.84,.7-3.69-.36-7.21-1.68-10.22-3.84-.13-.08-.06-.33,.11-.26Z"/></g></g></svg>