<?xml version="1.0" encoding="UTF-8"?><svg id="Camada_1" xmlns="http://www.w3.org/2000/svg" viewBox="0 0 1366 768"><defs><style>.cls-1,.cls-2,.cls-3{fill:#fff;}.cls-4{fill:#fafafa;}.cls-5{letter-spacing:0em;}.cls-6{fill:#aa6550;}.cls-7{opacity:.2;}.cls-8{fill:#455a64;}.cls-9{letter-spacing:0em;}.cls-10{letter-spacing:0em;}.cls-2{font-family:Raleway-BoldItalic, Raleway;font-size:35px;font-style:italic;font-weight:700;}.cls-11{fill:#e0e0e0;}.cls-12{letter-spacing:0em;}.cls-13{fill:#b78876;}.cls-14,.cls-3{isolation:isolate;}.cls-14,.cls-3,.cls-15{opacity:.4;}.cls-16{fill:#ebebeb;}.cls-17{letter-spacing:0em;}.cls-18{fill:none;}.cls-19{letter-spacing:0em;}.cls-20{letter-spacing:0em;}.cls-21{fill:#263238;}.cls-22{letter-spacing:-.02em;}.cls-23{fill:#fc9c0d;}</style></defs><rect class="cls-18" x=".13" y="2" width="1366" height="768"/><text class="cls-2" transform="translate(435.1 91.55)"><tspan class="cls-20" x="0" y="0">N</tspan><tspan x="25.34" y="0">ós e</tspan><tspan class="cls-12" x="90.19" y="0">s</tspan><tspan class="cls-10" x="106.85" y="0">t</tspan><tspan x="119.7" y="0">amos p</tspan><tspan class="cls-19" x="239.75" y="0">r</tspan><tspan x="252.8" y="0">epa</tspan><tspan class="cls-12" x="315.35" y="0">r</tspan><tspan x="328.44" y="0">a</tspan><tspan class="cls-17" x="350.28" y="0">d</tspan><tspan x="372.05" y="0">os pa</tspan><tspan class="cls-12" x="460.88" y="0">r</tspan><tspan x="473.97" y="0">a </tspan><tspan x="18.25" y="42">auxilia</tspan><tspan class="cls-22" x="129.17" y="42">r</tspan><tspan x="141.7" y="42" xml:space="preserve"> e </tspan><tspan class="cls-5" x="177.5" y="42">t</tspan><tspan x="190.31" y="42">e ajuda</tspan><tspan class="cls-22" x="313.23" y="42">r</tspan><tspan x="325.76" y="42" xml:space="preserve"> nas suas </tspan><tspan x="170.41" y="84">e</tspan><tspan class="cls-9" x="189.7" y="84">n</tspan><tspan x="209.82" y="84">t</tspan><tspan class="cls-19" x="222.88" y="84">r</tspan><tspan x="235.93" y="84">egas! </tspan></text><g><g id="freepik--background-simple--inject-2"><path class="cls-16" d="M901.97,364.98c-2.14-35.75-19.71-74.03-44.94-99.39-20.62-20.71-50.45-31.68-79.61-29.96-24.66,1.49-48.81,11.95-66.23,29.48-15.13,15.24-24.74,34.93-36.2,53.09-11.46,18.16-26.05,35.84-46.29,43.01-19.73,6.99-41.46,2.88-62.35,4.28-27.46,1.78-54.32,13.64-73.48,33.39s-30.27,47.33-29.21,74.89c1.07,27.74,14.04,54.05,31.98,75.24l.53,.64c36.92,43.97,90.75,70.24,148.13,72.28l65.33,2.29c53.84,9.73,111.01-33.86,145.32-76.49,34.3-42.63,50.35-128.14,47.02-182.75Z"/></g><g id="freepik--Character--inject-2"><path class="cls-13" d="M629.81,306.49l7.04,99.72c1.16,16.28,14.71,28.89,31.03,28.89h0c17.17,0,31.09-13.92,31.1-31.09,0-.69-.02-1.39-.07-2.08-.62-9.49-1.19-17.26-1.19-17.26,0,0,24.15-3.76,24.45-27.89,.17-13.91-2.24-45.58-4.28-69.81-1.4-16.38-15.11-28.97-31.55-28.96h-14.63c-24.63,1.44-43.43,22.57-41.99,47.19,.03,.43,.06,.86,.09,1.29Z"/><path class="cls-6" d="M698.19,384.36s-15.26,1.24-31.47-8.94c0,0,7.44,17.38,31.52,15.2l-.05-6.26Z"/><path class="cls-21" d="M710.34,316.18c.02,1.87-1.46,3.41-3.33,3.48-1.81,.14-3.4-1.21-3.55-3.02,0-.03,0-.05,0-.08-.02-1.87,1.45-3.41,3.32-3.49,1.82-.14,3.41,1.21,3.56,3.03,0,.03,0,.05,0,.08Z"/><path class="cls-21" d="M713.68,311.21c-.43,.45-3.04-1.48-6.74-1.47-3.7,.01-6.42,1.86-6.84,1.41-.19-.2,.25-1.07,1.42-1.88,1.61-1.11,3.52-1.7,5.47-1.68,1.92,0,3.8,.6,5.35,1.73,1.17,.88,1.55,1.69,1.34,1.88Z"/><path class="cls-21" d="M674.15,316.18c.02,1.87-1.46,3.41-3.33,3.48-1.81,.14-3.4-1.21-3.55-3.02,0-.03,0-.05,0-.08-.02-1.87,1.46-3.42,3.33-3.49,1.82-.14,3.41,1.22,3.55,3.05,0,.02,0,.05,0,.07Z"/><path class="cls-21" d="M677.23,311.9c-.43,.45-3.05-1.49-6.75-1.48s-6.42,1.87-6.84,1.41c-.19-.2,.24-1.01,1.42-1.87,1.61-1.1,3.52-1.69,5.47-1.69,1.92,0,3.79,.61,5.35,1.73,1.17,.89,1.55,1.7,1.35,1.89Z"/><path class="cls-21" d="M690.69,339.41c0-.21,2.29-.61,6.02-1.07,.94-.11,1.84-.29,2-.94,.08-.98-.14-1.96-.63-2.8-.88-2.29-1.82-4.69-2.8-7.21-3.88-10.27-6.71-18.71-6.29-18.86s3.91,8.05,7.8,18.31c.93,2.54,1.83,4.96,2.69,7.26,.35,1.07,.97,2.29,.48,3.71-.27,.68-.85,1.19-1.55,1.38-.52,.15-1.06,.22-1.6,.22-3.77,.19-6.1,.21-6.11,0Z"/><path class="cls-21" d="M679.78,341.98c.6,0,.61,3.99,4.05,6.85,3.45,2.86,7.72,2.42,7.76,2.97,.06,.26-.95,.78-2.76,.83-2.36,.03-4.66-.77-6.48-2.26-1.76-1.43-2.88-3.49-3.15-5.75-.15-1.71,.3-2.67,.58-2.65Z"/><path class="cls-21" d="M678.18,297.37c-.36,1.07-4.07,.53-8.42,1.07s-7.87,1.71-8.45,.8c-.26-.43,.35-1.38,1.78-2.35,3.83-2.42,8.57-2.95,12.84-1.42,1.66,.64,2.42,1.46,2.26,1.9Z"/><path class="cls-21" d="M712.32,300.48c-.65,.85-3.21,0-6.28-.07s-5.67,.57-6.27-.31c-.27-.43,.14-1.27,1.28-2.08,3.12-1.96,7.12-1.83,10.11,.32,1.08,.86,1.44,1.79,1.16,2.14Z"/><path class="cls-13" d="M638,324.6c-.42-.18-16.58-4.9-16.05,11.6,.53,16.5,16.98,12.57,17,12.09s-.95-23.69-.95-23.69Z"/><path class="cls-6" d="M633.65,342.2c-.07,0-.28,.21-.76,.45-.67,.31-1.44,.35-2.14,.12-1.77-.59-3.32-3.31-3.5-6.28-.08-1.41,.15-2.83,.67-4.14,.29-1.07,1.09-1.92,2.14-2.28,.68-.2,1.4,.11,1.72,.74,.24,.45,.14,.78,.22,.81s.35-.29,.19-.97c-.11-.4-.35-.76-.68-1.01-.46-.33-1.04-.47-1.6-.37-1.37,.32-2.47,1.32-2.92,2.65-.65,1.45-.94,3.04-.85,4.63,.21,3.33,2.01,6.42,4.42,7,.91,.23,1.87,.04,2.62-.52,.44-.42,.52-.79,.46-.82Z"/><path class="cls-21" d="M628.77,324.04c2.51-.61,6.87,1.71,7.94,4.07,1.07,2.35,1.31,5.03,2.38,7.39s3.49,4.48,6.01,3.88c1.74-.54,3.05-1.98,3.43-3.76,.36-1.76,.38-3.58,.05-5.35-.97-7.7-2.59-15.34-2.9-23.11s.79-15.82,4.87-22.47c4.08-6.64,11.56-11.48,19.26-10.85,5.12,.41,9.83,3.08,14.93,3.8,6.15,.81,12.33-1.25,16.75-5.6,.56-.55,3.12-2.25,3.12-2.25,0-.4-.37-3.84-1.73-5.1-10.11-9.34-28.32-11.95-41.67-8.56-13.35,3.39-25.87,12.84-31.62,25.29s-4.03,29.96-.87,42.58"/><path class="cls-23" d="M718.11,283.29s-63.32-20.33-90.71,34.41c0,0-4.1-13.71-4.1-21.06,0-4.91,2.93-34.14,33.02-43.34,0,0,45.31-17.29,61.79,29.99Z"/><path class="cls-21" d="M663.67,284.66c4.01,6.47,12.51,8.46,18.97,4.45,1.09-.68,2.08-1.5,2.95-2.46,1.67,4.16,6.39,6.19,10.56,4.52,2.34-.94,4.11-2.9,4.8-5.33,1.72,1.91,3.82,3.44,6.16,4.49,2.41,.89,5.46,.55,7.03-1.47,1.57-2.01,1.14-5.19-.44-7.26-1.73-1.96-3.94-3.44-6.42-4.28-7.51-3.3-15.75-4.55-23.9-3.62-8.08,1.07-15.9,5.01-20.95,11.41"/><g class="cls-15"><path d="M718.11,283.29c-5.27-5.55-12.49-8.83-20.14-9.15-18.68-.82-53.63,9.68-70.61,43.56,0,0-4.1-13.71-4.1-21.06,0-4.91,2.93-34.14,33.02-43.34,.04,0,45.35-17.29,61.83,29.99Z"/></g><path class="cls-23" d="M630.05,311.29c9.38-14.37,22.33-26.24,36.89-35.31,14.56-9.06,38.62-18.08,55.21-22.47,4.99-1.33,10.17-2.48,15.26-1.6s10.05,4.28,11.3,9.25c1.58,6.26-9.52,15.91-14.73,19.7-5.21,3.79-15.86,9.36-15.86,9.36,0,0,.15-11.6-18.42-13.98-25.25-3.31-69.64,35.05-69.64,35.05Z"/><path class="cls-11" d="M681.98,263.96s9.12-5.05,18.28-6.23c-1.53-1.19-3.2-2.19-4.98-2.97-4.98,.82-9.79,2.44-14.25,4.79l.94,4.41Z"/><path class="cls-23" d="M733.37,405.1l-20.08-4.43-8.17-2.04-6.8-10.55s-3.21,18.86-15.4,29.02c-3.34,2.73-7.75,3.79-11.97,2.87-2.75-.58-5.98-1.28-8.38-1.93-.51-.14-1.07-.32-1.67-.53-8.81-3.27-16.15-9.6-20.68-17.84-2.7-4.79-4.98-9.71-4.19-11.59l-9.53,19.74-56.17,25.87-31.89,77.91,61.81,18.27,1.93,64.19-11.64,80.93,174.86,.12-6.21-180.05"/><path class="cls-21" d="M688.16,475.18c-.36,.03-.71,.03-1.07,0l-3.11-.07-11.12-.1h.38v-.48c-.77-4.83-1-10.54-1.24-16.65-.29-8.81-.55-16.77-.75-22.62-.06-2.85-.12-5.17,0-6.86v-1.86c-.18-.22-.18-.44-.15-.65,.05,.21,.07,.43,.07,.64,0,.49,.07,1.07,.12,1.86,.09,1.69,.2,4.01,.34,6.85,.24,5.85,.56,13.81,.91,22.61,.21,6.12,.41,11.83,.58,16.66l-.24-.22,11.12,.59,3.1,.2c.36,0,.72,.03,1.07,.11Z"/><path class="cls-21" d="M678.65,449.17c.25-.17,.54-.27,.83-.28,1.42-.09,2.76,.66,3.42,1.92,.31,.6,.41,1.28,.31,1.95-.23,1.54-1.35,2.8-2.86,3.21-1.52,.32-3.09-.24-4.07-1.44-.79-.97-1.07-2.25-.77-3.46,.17-.81,.57-1.56,1.16-2.14,.41-.4,.71-.52,.72-.49s-.21,.22-.56,.64c-.47,.59-.79,1.28-.93,2.02-.22,1.08,.06,2.2,.77,3.05,.87,1.03,2.23,1.5,3.55,1.24,1.29-.36,2.25-1.44,2.47-2.76,.18-1.08-.26-2.17-1.14-2.82-.59-.47-1.31-.73-2.06-.74-.56,.04-.85,.15-.85,.11Z"/><path class="cls-21" d="M676.76,426.56c.25-.22,.55-.36,.88-.41,.89-.19,1.81-.05,2.61,.39,.57,.29,1.05,.72,1.4,1.24,.41,.62,.62,1.35,.59,2.09-.07,1.73-1.19,3.24-2.82,3.8-1.67,.43-3.43-.19-4.47-1.56-.45-.58-.72-1.28-.78-2.01-.03-.63,.07-1.26,.3-1.85,.33-.84,.92-1.55,1.68-2.03,.26-.2,.58-.32,.91-.34,0,0-.31,.16-.78,.52-.66,.51-1.16,1.2-1.43,1.99-.44,1.15-.24,2.44,.51,3.41,.92,1.18,2.45,1.7,3.91,1.34,1.41-.5,2.38-1.79,2.47-3.28,.06-1.22-.59-2.37-1.66-2.96-.72-.42-1.56-.6-2.39-.51-.59,.07-.9,.24-.92,.19Z"/><path class="cls-21" d="M671.07,512.91s.09-.05,.27-.12l.8-.31c.72-.25,1.73-.7,3.03-1.29,3.62-1.82,6.93-4.18,9.84-7,4.28-4.21,8.06-8.9,11.27-13.97,4.01-6.17,7.68-12.55,10.98-19.13,5.93-11.99,11.14-24.32,15.59-36.93,1.74-4.84,3.1-8.76,4.05-11.47l1.07-3.12c.12-.32,.22-.59,.3-.8,.03-.09,.07-.18,.12-.27,0,.1-.03,.2-.06,.29-.06,.21-.15,.48-.25,.82-.25,.76-.58,1.81-1,3.21-.89,2.73-2.19,6.68-3.91,11.52-4.33,12.65-9.49,25-15.43,36.98-3.31,6.6-6.99,12.99-11.04,19.16-3.25,5.1-7.08,9.8-11.43,14.01-2.96,2.81-6.34,5.14-10.01,6.9-1.01,.46-2.04,.87-3.09,1.21l-.82,.26c-.09,.04-.18,.06-.28,.06Z"/><path class="cls-4" d="M707.9,492.03c.46,0,11.11-.73,11.11-.73,0,0-4.4,7.77-8.98,10.7h-9.32l7.19-9.97Z"/><path class="cls-21" d="M669.21,536.44c.18-.17,.38-.33,.6-.46l1.8-1.24c1.55-1.07,3.79-2.67,6.47-4.74,5.35-4.1,12.48-10.22,20.09-17.21,3.81-3.5,7.49-6.79,10.63-9.96,2.82-2.78,5.44-5.75,7.84-8.9,1.61-2.12,3.04-4.38,4.28-6.74,.47-.82,.76-1.5,.98-1.95,.1-.24,.23-.46,.37-.67-.07,.25-.16,.49-.27,.72-.19,.46-.46,1.16-.9,2-1.18,2.41-2.57,4.72-4.16,6.88-2.37,3.2-4.97,6.22-7.8,9.03-3.16,3.21-6.82,6.52-10.62,10-7.62,7-14.75,13.1-20.22,17.12-2.73,2.02-5.01,3.56-6.59,4.6-.8,.51-1.43,.89-1.86,1.16-.2,.15-.42,.27-.65,.37Z"/><path class="cls-21" d="M639.21,655.34s0-.1,.13-.26,.27-.42,.44-.71c.4-.61,1-1.51,1.8-2.64,1.6-2.25,4.09-5.41,7.36-9.14,6.59-7.39,15.82-17.48,25.99-28.65l26.2-28.56,7.97-8.56,2.14-2.32,.58-.59,.21-.19s-.05,.09-.17,.22l-.53,.63-2.14,2.4-7.84,8.72-26,28.59-26.11,28.55c-3.31,3.68-5.83,6.79-7.49,9-.82,1.07-1.46,1.98-1.87,2.58l-.48,.67c-.05,.09-.11,.18-.18,.26Z"/><path class="cls-23" d="M731.98,404.98c.92,1.38,21.59,3.68,26.65,8.73,5.06,5.05,55.64,43.65,55.64,43.65l-36.05,48.51-23.26-5.12-22.98-95.77Z"/><polygon class="cls-14" points="808.13 452.65 767.72 503.56 778.22 505.87 814.22 457.31 808.13 452.65"/><path class="cls-21" d="M742.99,455.48c-.18-.55-.32-1.12-.42-1.69-.12-.55-.26-1.22-.35-2.01s-.26-1.69-.31-2.7c-.05-1.01-.16-2.14-.16-3.28s0-2.44,.1-3.77c.21-2.89,.66-5.75,1.34-8.56,.73-2.8,1.69-5.53,2.88-8.16,.57-1.2,1.07-2.35,1.68-3.38s1.13-1.98,1.68-2.82c.55-.85,1.07-1.57,1.54-2.23,.39-.56,.81-1.1,1.25-1.62,.35-.46,.74-.9,1.17-1.29-.29,.5-.62,.98-1,1.42-.33,.45-.74,1-1.17,1.67s-.97,1.39-1.47,2.26-1.07,1.79-1.6,2.84c-.53,1.05-1.07,2.14-1.62,3.36-1.13,2.62-2.05,5.33-2.76,8.1-.67,2.78-1.12,5.6-1.36,8.44-.07,1.32-.17,2.57-.14,3.73,.03,1.17,0,2.26,.09,3.21s.15,1.89,.22,2.69,.17,1.47,.26,2.01c.11,.59,.16,1.19,.15,1.79Z"/><path class="cls-21" d="M759.16,495.36c-1.66-3.21-3.15-6.51-4.46-9.88-1.49-3.29-2.81-6.65-3.96-10.08,1.66,3.21,3.15,6.5,4.47,9.86,1.49,3.29,2.81,6.66,3.95,10.09Z"/><path class="cls-21" d="M600.23,460.12c-.09,0-.95-1.55-2.59-3.96-2.14-3.14-4.58-6.05-7.3-8.7-2.73-2.63-5.71-4.98-8.9-7.03-2.46-1.56-4.08-2.38-4.03-2.46,.41,.11,.81,.27,1.18,.48,1.05,.5,2.07,1.05,3.06,1.65,3.29,1.96,6.34,4.3,9.09,6.97,2.74,2.67,5.17,5.65,7.23,8.88,.78,1.24,1.37,2.27,1.73,3.01,.22,.37,.4,.76,.52,1.17Z"/><polygon class="cls-14" points="538.42 511.94 540.91 505.87 609.28 524.49 606.57 532.09 538.42 511.94"/><path class="cls-4" d="M720.48,488h26.76v11l-34.24-.22s5.29-6.37,7.48-10.78Z"/><g class="cls-7"><path d="M628.09,410.54c.94,8.35,1.97,16.96,6.1,24.28,4.13,7.32,12.21,13.08,20.52,11.85,5.54-.82,10.24-4.53,14.02-8.68s6.94-8.85,11.06-12.65c2.49,2.68,5.28,5.08,8.3,7.14,3.06,2.07,6.73,3.04,10.41,2.75,3.63-.44,5.63-1.88,6.77-5.35-3.87,1.2-6,1.02-9.86,.28-4.26-.82-8.27-2.65-11.67-5.35-2.27-1.79-3.09-4.47-5.97-4.28-2.66,.15-4.75,2.26-6.51,4.28-2.83,3.24-5.94,6.24-9.29,8.94-3.21,2.54-6.31,4.28-10.4,4.16-6.73-.15-12.24-5.44-15.95-11.05-3.43-5.18-5.96-10.9-7.49-16.92"/></g><path class="cls-21" d="M706.88,400.13c.06,.19,.1,.4,.12,.6,0,.4,.13,.97,.2,1.72,.16,1.5,.32,3.67,.39,6.42,.14,7.03-.53,14.06-2.34,20.94v.19h.18c-3.8,1.05-7.77,.94-11.52-.16-3.07-.82-5.96-2.17-8.56-4-1.76-1.19-3.33-2.64-4.68-4.28-.36-.44-.7-.91-1.01-1.39-.12-.16-.22-.34-.31-.52,1.75,2.28,3.84,4.28,6.21,5.91,2.58,1.74,5.44,3.04,8.45,3.83,3.67,1.04,7.54,1.13,11.26,.27l.98,.2v-.17c.27-6.84,.99-13.82,.96-20.82,0-2.69-.12-4.86-.2-6.37,0-.7-.07-1.26-.11-1.72-.03-.21-.04-.43-.01-.64Z"/><path class="cls-21" d="M674.37,421.24c-.08,.23-.2,.44-.34,.64-.36,.59-.75,1.16-1.18,1.71-1.6,1.99-3.36,3.85-5.26,5.55-1.19,1.07-2.52,2.26-3.97,3.48-.73,.61-1.46,1.25-2.27,1.89-.84,.63-1.72,1.2-2.64,1.7-1.98,1.09-4.17,1.76-6.42,1.96-2.46,.21-4.92-.34-7.06-1.56-2.08-1.24-3.95-2.81-5.53-4.65-1.5-1.67-2.89-3.43-4.17-5.26-2.16-3.12-3.99-6.46-5.45-9.96-.98-2.36-1.78-4.78-2.4-7.25-.22-.88-.36-1.56-.45-2.03-.06-.23-.1-.47-.11-.72,.1,.22,.17,.46,.21,.7,.13,.46,.3,1.13,.55,2,.7,2.44,1.56,4.83,2.56,7.16,1.5,3.45,3.35,6.74,5.51,9.81,1.28,1.81,2.66,3.55,4.15,5.19,1.53,1.79,3.33,3.33,5.35,4.55,2.05,1.17,4.4,1.69,6.75,1.5,2.19-.19,4.31-.82,6.25-1.86,.91-.48,1.78-1.03,2.6-1.65,.78-.6,1.53-1.25,2.26-1.85,1.46-1.21,2.8-2.34,4-3.41,1.91-1.65,3.7-3.44,5.35-5.35,.57-.68,.98-1.25,1.26-1.64,.13-.22,.28-.43,.45-.63Z"/><path class="cls-13" d="M651.33,544.17l8.25-12.03s5.67-19.71,4.9-22.47c-.77-2.76-3.27-13.03-2.69-13.16s6.76-2.42,10.11,5.82c2.09,5.14,2.77,11.9,3,16.26,.09,2.06,1.84,3.65,3.9,3.56,.2,0,.39-.03,.58-.07,5.7-1.18,15.19-2.96,17.45-2.42,3.27,.78,6.21,4.95,6.48,6.36,.28,1.4-1.97,4.56-1.97,4.56,0,0,2.78,1.42,3.64,3.57,.12,.29,.21,.58,.3,.86,.53,1.75,.1,3.66-1.14,5.01l-.88,.96s3.48,.95,3.91,2.94c.23,1.45,.19,2.94-.12,4.38l-3.26,3.37c.91,.85,1.51,1.98,1.69,3.21,.17,1.84-4.72,6.42-4.72,6.42l-20.98,7.49-8.32,2.14-20.12-26.76Z"/><path class="cls-6" d="M701.41,530.61c-2.4,.65-4.83,1.17-7.28,1.57-2.41,.59-4.84,1.05-7.3,1.39,.66-.32,1.35-.56,2.06-.72,1.29-.36,3.1-.81,5.12-1.22s3.85-.71,5.2-.88c.72-.15,1.45-.2,2.18-.15Z"/><path class="cls-6" d="M703.32,540.99c-1.78,.84-3.64,1.5-5.55,1.98-1.85,.67-3.77,1.15-5.71,1.46,1.78-.84,3.64-1.5,5.55-1.98,1.85-.67,3.77-1.15,5.71-1.46Z"/><path class="cls-6" d="M704.58,551.22c-1.88,1.13-3.85,2.09-5.9,2.88-1.97,.96-4.02,1.76-6.12,2.38,1.88-1.13,3.85-2.09,5.9-2.88,1.97-.96,4.02-1.76,6.12-2.38Z"/><path class="cls-13" d="M602.99,618.49l77.16-51.76-19.47-35.31-70.42,36.22,7.99-38.05-47.79-14.14-11.96,65.16h0c-1.84,28.97,21.4,52.36,49.41,44.75h0c5.37-1.45,10.47-3.77,15.09-6.87Z"/><path class="cls-6" d="M580.06,588.12c-.14-.31-.23-.64-.27-.97-.16-.9-.25-1.81-.27-2.73-.04-3.04,.64-6.05,1.99-8.78,1.37-2.72,3.37-5.08,5.83-6.87,.73-.54,1.51-1.02,2.33-1.43,.29-.17,.61-.3,.94-.37,0,.1-1.25,.71-3.04,2.14-4.74,3.7-7.55,9.34-7.66,15.35-.05,2.25,.3,3.66,.14,3.67Z"/><path class="cls-13" d="M778.22,505.87c.48-.66,54.95,32.53,54.95,32.53l17.46,79.55,25.13,9.22s7.84-88.52,1.87-102.3c-5.97-13.78-66.49-63.36-66.49-63.36l-32.92,44.37Z"/><path class="cls-6" d="M845.07,532.3c-1.21,1.82-2.83,3.35-4.72,4.45-1.79,1.26-3.85,2.1-6.01,2.46,1.95-.88,3.86-1.85,5.71-2.93,1.75-1.23,3.42-2.56,5.02-3.98Z"/><polygon class="cls-21" points="712.71 506.04 716.98 582.39 804.02 576.51 801.39 519.67 788.71 502.61 712.71 506.04"/><path class="cls-23" d="M692.93,584.09c.26,1.47,7.65,70.61,7.65,70.61l129.56-9,21.92-2.94-10.11-64.39-15.48-3.71-133.54,9.43Z"/><path class="cls-14" d="M826.46,574.66l-133.54,9.44c.26,1.47,7.65,70.61,7.65,70.61l134.88-9.38-9-70.67Z"/><polygon class="cls-8" points="790.97 577.38 716.98 582.39 712.71 506.04 788.71 502.61 790.97 577.38"/><polygon class="cls-21" points="740.58 504.8 742.15 528.33 746.1 526.06 748.3 528.33 751.03 526.06 755.24 528.33 755.24 504.14 740.58 504.8"/><polygon class="cls-23" points="771.23 578.99 766.17 521.68 815.63 535.32 820.41 574.87 771.23 578.99"/><path class="cls-21" d="M815.6,535.51c-.09,.15-.19,.28-.31,.41l-.95,1.12-3.64,4.15-12.64,14.18-.19,.21-.2-.2-6.68-7.06-17.62-18.62-5.3-5.69-1.42-1.56c-.18-.17-.33-.37-.46-.58,.2,.15,.38,.31,.55,.49l1.5,1.5,5.41,5.56,17.74,18.51,6.72,7.07h-.4l12.84-14.05,3.76-4.04,1.02-1.07c.08-.12,.17-.23,.28-.33Z"/><path class="cls-21" d="M787.9,545.94c.14,.07-3.39,6.84-7.87,15.11-4.48,8.27-8.23,14.91-8.37,14.84s3.39-6.84,7.87-15.11c4.48-8.27,8.25-14.91,8.37-14.84Z"/><path class="cls-21" d="M819.25,574.87c-.13,.07-3.55-5.4-7.65-12.23-4.1-6.83-7.32-12.44-7.18-12.53s3.55,5.4,7.65,12.24c4.1,6.84,7.32,12.44,7.18,12.52Z"/><polygon class="cls-23" points="797.8 576.75 794.57 540.26 826.06 548.95 829.1 574.13 797.8 576.75"/><polygon class="cls-3" points="797.8 576.75 794.57 540.26 826.06 548.95 829.1 574.13 797.8 576.75"/><path class="cls-21" d="M826.06,548.65c-.22,.36-.49,.69-.78,1-.59,.7-1.36,1.58-2.29,2.66l-8.02,9.05-.19,.22-.2-.21-4.28-4.49c-4.4-4.61-8.36-8.82-11.2-11.88l-3.34-3.65c-.43-.43-.83-.89-1.18-1.39,.48,.38,.92,.79,1.33,1.24l3.48,3.52c2.92,3,6.92,7.16,11.32,11.77l4.28,4.5h-.45l8.16-8.92,2.42-2.56c.29-.32,.61-.61,.95-.87Z"/><path class="cls-21" d="M808.41,555.71c.13,.07-2.08,4.4-4.93,9.63-1.64,3.23-3.45,6.37-5.41,9.4,1.47-3.29,3.11-6.51,4.92-9.63,1.64-3.23,3.45-6.37,5.42-9.4Z"/><path class="cls-21" d="M828.38,574.13c-1.81-2.48-3.47-5.06-4.96-7.74-1.66-2.58-3.16-5.26-4.48-8.04,3.45,5.07,6.61,10.33,9.45,15.77h0Z"/><polygon class="cls-1" points="818.24 547.41 818.24 550.34 822.84 550.87 823.09 548.64 818.24 547.41"/><path class="cls-1" d="M801.24,532.52v4.28l8.69,1.43,.48-3.27-9.17-2.44Z"/><polygon class="cls-23" points="767.72 600.32 767.29 578.99 749.99 580.16 751.85 601.83 767.72 600.32"/><rect class="cls-4" x="796.25" y="612.85" width="29.18" height="25.81" transform="translate(-55.48 79.39) rotate(-5.42)"/><path class="cls-21" d="M826.43,636.96c-.04-.16-.06-.33-.07-.49,0-.35-.1-.82-.16-1.39-.13-1.24-.32-3.01-.56-5.23-.46-4.53-1.07-10.92-1.88-18.61l.26,.21-29.02,2.8c-.06,.06,.47-.57,.25-.3h0v.85l.09,.88,.16,1.74c.12,1.15,.22,2.28,.33,3.42,.2,2.26,.42,4.47,.62,6.64,.4,4.29,.78,8.42,1.12,12.2l-.27-.21,20.96-1.87,5.95-.5,1.59-.12c.19-.01,.38-.01,.57,0-.17,.04-.33,.06-.5,.08l-1.54,.18-5.88,.62-21.08,2.14h-.11v.04c-.42-3.79-.81-7.87-1.23-12.18-.2-2.14-.41-4.35-.63-6.62-.11-1.13-.21-2.27-.32-3.42-.05-.57-.11-1.14-.17-1.72l.35-.88v-.85h0c-.65,.27-.13-.37-.17-.31l29.04-3.06h.13v.24c.68,7.75,1.25,14.21,1.66,18.78,.18,2.2,.32,3.95,.43,5.19,0,.57,.07,1.02,.1,1.36,.01,.13,.02,.26,.01,.4Z"/><path class="cls-21" d="M821.83,617.72c0,.16-5.06,.81-11.34,1.48-3.78,.5-7.58,.8-11.39,.92,0-.15,5.06-.81,11.34-1.48s11.38-1.07,11.39-.92Z"/><path class="cls-21" d="M821.66,622.08c-1.01,.36-2.05,.62-3.11,.78-1.95,.39-4.65,.83-7.66,1.19s-5.76,.55-7.74,.61c-1.07,.1-2.14,.1-3.21,0,1.06-.21,2.13-.33,3.21-.36,1.97-.18,4.69-.43,7.68-.78s5.7-.74,7.66-1.07c1.05-.2,2.1-.32,3.17-.36Z"/><path class="cls-21" d="M822.89,631.63c-1.01,.36-2.06,.62-3.12,.78-1.95,.39-4.65,.83-7.66,1.19s-5.75,.55-7.74,.61c-1.07,.1-2.14,.1-3.21,0,1.06-.21,2.13-.33,3.21-.36,1.97-.17,4.7-.43,7.69-.78s5.7-.74,7.66-1.07c1.05-.2,2.1-.32,3.17-.36Z"/><path class="cls-21" d="M821.42,626.74c-3.49,.79-7.02,1.39-10.58,1.8-3.54,.6-7.11,1.02-10.7,1.24,3.49-.78,7.03-1.38,10.58-1.8,3.54-.6,7.11-1.01,10.7-1.24Z"/><path class="cls-13" d="M847.07,666.53s23.91-15.82,25.75-23.91c1.84-8.09,2.94-15.45,2.94-15.45l-25.55-10.58,2.54,9.2s-9.16,5.45-10.1,12.05c-.62,4.4-12.46,11.93-12.46,11.93h0c-2-2.42-5.04-3.72-8.16-3.52l-9.95,.71,6.73,15.16,28.27,4.42Z"/><path class="cls-6" d="M856.41,644.84c-.35,.21-.73,.37-1.12,.46-.75,.25-1.86,.49-3.21,.92-1.52,.54-2.93,1.36-4.15,2.42-1.54,1.31-3.26,2.39-5.11,3.21-3.43,1.46-7.23,1.78-10.85,.91-.64-.12-1.25-.35-1.81-.67-.47-.27-.73-.79-.66-1.33,.04-.33,.24-.62,.53-.77,.21-.07,.33,0,.33,0,0,0-.12,0-.28,.12-.23,.16-.37,.43-.37,.71-.04,.45,.21,.88,.62,1.07,.55,.27,1.13,.45,1.73,.55,3.54,.72,7.22,.35,10.54-1.07,1.81-.81,3.5-1.86,5.01-3.15,1.28-1.06,2.76-1.87,4.34-2.38,1.37-.39,2.48-.57,3.21-.76,.41-.11,.83-.19,1.25-.24Z"/><path class="cls-6" d="M839.85,656.66c0,.09-1.23-.62-3.26-1.47-2.65-1.08-5.44-1.78-8.29-2.06-.83-.09-1.66-.11-2.45-.13h-.15l-.21-.31c-1.3-1.96-2.84-3.75-4.6-5.31-1.14-1-1.86-1.52-1.86-1.58,0-.06,.26,.09,.66,.34,.58,.37,1.13,.78,1.67,1.21,1.82,1.49,3.4,3.25,4.68,5.23l-.22-.13c.81,0,1.65,0,2.5,.13,2.91,.28,5.74,1.04,8.4,2.26,.8,.36,1.57,.78,2.32,1.24,.3,.15,.57,.34,.81,.58Z"/><path class="cls-6" d="M846.31,652.77c0,.15-1.62,.76-3.5,1.83-1.88,1.07-3.26,2.19-3.37,2.06,1.77-2.06,4.2-3.44,6.87-3.89h0Z"/><path class="cls-6" d="M859.26,624.31c0,.17-1.67,0-3.57,.48s-3.21,1.47-3.36,1.33c1.8-1.83,4.47-2.53,6.93-1.81Z"/></g></g></svg>