<?xml version="1.0" encoding="utf-8"?>
<svg version="1.1" xmlns:xlink="http://www.w3.org/1999/xlink" width="35px" height="35px" xmlns="http://www.w3.org/2000/svg">
  <g transform="matrix(1 0 0 1 -211 -785 )">
    <path d="M 14 21.875  L 14 24.5  L 21 24.5  L 21 21.875  L 18 21.875  L 18 9.625  L 16.588541666666664 9.625  L 13.890625 13.371093750000002  L 15.294270833333332 15.558593750000002  C 15.8046875 14.88411458333333  16.13888888888889 14.364583333333332  16.296875 14  L 16.333333333333332 14  L 16.333333333333332 21.875  L 14 21.875  Z M 22.950520833333336 13.6171875  C 23.205729166666664 14.929687499999998  23.333333333333332 16.223958333333332  23.333333333333332 17.5  C 23.333333333333332 18.776041666666664  23.205729166666664 20.0703125  22.950520833333336 21.3828125  C 22.6953125 22.6953125  22.33376736111111 23.916666666666664  21.865885416666668 25.046875  C 21.398003472222225 26.17708333333333  20.78125 27.09765625  20.015625 27.80859375  C 19.25 28.51953125  18.411458333333336 28.875  17.5 28.875  C 16.588541666666668 28.875  15.750000000000002 28.51953125  14.984375 27.80859375  C 14.21875 27.09765625  13.601996527777779 26.17708333333333  13.134114583333332 25.046875  C 12.66623263888889 23.916666666666664  12.3046875 22.6953125  12.049479166666668 21.3828125  C 11.794270833333334 20.0703125  11.666666666666666 18.776041666666664  11.666666666666666 17.5  C 11.666666666666666 16.223958333333332  11.794270833333334 14.929687499999998  12.049479166666668 13.6171875  C 12.3046875 12.3046875  12.66623263888889 11.083333333333332  13.134114583333332 9.953125000000002  C 13.601996527777779 8.822916666666663  14.21875 7.902343749999997  14.984375 7.191406249999999  C 15.750000000000002 6.480468750000001  16.588541666666668 6.125000000000002  17.5 6.125000000000002  C 18.411458333333336 6.125000000000002  19.25 6.480468750000001  20.015625 7.191406249999999  C 20.78125 7.902343749999997  21.398003472222225 8.822916666666663  21.865885416666668 9.953125000000002  C 22.33376736111111 11.083333333333332  22.6953125 12.3046875  22.950520833333336 13.6171875  Z M 29.3671875 26.55078125  C 30.278645833333336 25.18359375  31.378472222222225 24.5  32 24.5  L 32 10.500000000000002  C 31.378472222222225 10.500000000000002  30.278645833333336 9.816406250000002  29.3671875 8.449218750000002  C 28.455729166666664 7.082031250000002  28 5.432291666666661  28 4  L 7 4  C 7 5.432291666666661  6.544270833333333 7.082031250000002  5.6328125 8.449218750000002  C 4.721354166666666 9.816406250000002  3.621527777777778 10.500000000000002  3 10.500000000000002  L 3 24.5  C 3.621527777777778 24.5  4.721354166666666 25.18359375  5.6328125 26.55078125  C 6.544270833333333 27.91796875  7 29.567708333333332  7 31  L 28 31  C 28 29.567708333333332  28.455729166666664 27.91796875  29.3671875 26.55078125  Z M 34.653645833333336 0.5195312500000016  C 34.884548611111114 0.8658854166666641  35.00000000000001 1.276041666666664  35 1.7500000000000016  L 35 33.25  C 35.00000000000001 33.72395833333333  34.884548611111114 34.13411458333333  34.653645833333336 34.48046875  C 34.42274305555556 34.82682291666667  34.14930555555556 35  33.833333333333336 35  L 1.1666666666666667 35  C 0.8506944444444445 35  0.5772569444444444 34.82682291666667  0.34635416666666663 34.48046875  C 0.1154513888888889 34.13411458333333  0 33.72395833333333  0 33.25  L 0 1.7500000000000016  C 0 1.276041666666664  0.1154513888888889 0.8658854166666641  0.34635416666666663 0.5195312500000016  C 0.5772569444444444 0.17317708333333126  0.8506944444444445 0  1.1666666666666667 0  L 33.833333333333336 0  C 34.14930555555556 0  34.42274305555556 0.17317708333333126  34.653645833333336 0.5195312500000016  Z " fill-rule="nonzero" fill="#ffffff" stroke="none" transform="matrix(1 0 0 1 211 785 )" />
  </g>
</svg>