<?xml version="1.0" encoding="utf-8"?>
<svg version="1.1" xmlns:xlink="http://www.w3.org/1999/xlink" width="32px" height="32px" xmlns="http://www.w3.org/2000/svg">
  <g transform="matrix(1 0 0 1 -162 -787 )">
    <path d="M 8.67062706270627 8.67062706270627  C 9.1986798679868 8.142574257425743  9.462706270627063 7.505390539053902  9.462706270627063 6.759075907590759  C 9.462706270627063 6.012761276127609  9.1986798679868 5.375577557755776  8.67062706270627 4.847524752475248  C 8.142574257425743 4.319471947194721  7.505390539053907 4.0554455445544555  6.759075907590759 4.0554455445544555  C 6.0127612761276135 4.0554455445544555  5.3755775577557765 4.319471947194721  4.847524752475247 4.847524752475248  C 4.319471947194719 5.375577557755776  4.0554455445544555 6.012761276127609  4.0554455445544555 6.759075907590759  C 4.0554455445544555 7.505390539053902  4.319471947194719 8.142574257425743  4.847524752475247 8.67062706270627  C 5.3755775577557765 9.198679867986797  6.0127612761276135 9.462706270627063  6.759075907590759 9.462706270627063  C 7.505390539053907 9.462706270627063  8.142574257425743 9.198679867986797  8.67062706270627 8.67062706270627  Z M 31.21848184818482 17.003300330033003  C 31.73949394939494 17.552475247524754  32 18.193179317931794  32 18.925412541254126  C 32 19.67172717271727  31.73949394939494 20.305390539053903  31.21848184818482 20.82640264026403  L 20.84752475247525 31.21848184818482  C 20.2983498349835 31.73949394939494  19.657645764576458 32  18.925412541254126 32  C 18.17909790979098 32  17.54543454345435 31.73949394939494  17.024422442244223 31.21848184818482  L 1.9221122112211222 16.095049504950495  C 1.3870187018701872 15.574037403740373  0.932893289328933 14.862926292629261  0.5597359735973597 13.961716171617162  C 0.18657865786578656 13.06050605060506  0 12.236743674367435  0 11.490429042904289  L 0 2.7036303630363037  C 0 1.9713971397139716  0.2675467546754675 1.3377337733773373  0.8026402640264027 0.802640264026401  C 1.3377337733773378 0.2675467546754646  1.9713971397139716 0  2.7036303630363037 0  L 11.49042904290429 0  C 12.236743674367437 0  13.060506050605062 0.18657865786578398  13.961716171617162 0.559735973597359  C 14.862926292629265 0.9328932893289306  15.581078107810782 1.3870187018701827  16.116171617161715 1.9221122112211226  L 31.21848184818482 17.003300330033003  Z " fill-rule="nonzero" fill="#ffffff" stroke="none" transform="matrix(1 0 0 1 162 787 )" />
  </g>
</svg>